<svg width="30" height="30" viewBox="0 0 30 30" fill="none" xmlns="http://www.w3.org/2000/svg">
<g clip-path="url(#clip0_552_1202)">
<path d="M17.0762 -0.00117493C16.9208 -0.00117493 16.7718 0.0605589 16.6619 0.170444C16.552 0.280328 16.4902 0.429362 16.4902 0.584763C16.4902 0.740163 16.552 0.889197 16.6619 0.999082C16.7718 1.10897 16.9208 1.1707 17.0762 1.1707C23.5561 1.1707 28.8277 6.44414 28.8277 12.9223C28.8277 13.0777 28.8895 13.2267 28.9993 13.3366C29.1092 13.4465 29.2583 13.5082 29.4137 13.5082C29.5691 13.5082 29.7181 13.4465 29.828 13.3366C29.9379 13.2267 29.9996 13.0777 29.9996 12.9223C29.9996 5.79668 24.2023 -0.00117493 17.0762 -0.00117493Z" fill="url(#paint0_linear_552_1202)"/>
<path d="M25.8887 13.5094C26.0441 13.5094 26.1931 13.4476 26.303 13.3378C26.4129 13.2279 26.4746 13.0788 26.4746 12.9234C26.4746 7.74082 22.2559 3.52499 17.0762 3.52499C16.9208 3.52499 16.7718 3.58673 16.6619 3.69661C16.552 3.8065 16.4902 3.95553 16.4902 4.11093C16.4902 4.26633 16.552 4.41537 16.6619 4.52525C16.7718 4.63514 16.9208 4.69687 17.0762 4.69687C21.6125 4.69687 25.3027 8.38828 25.3027 12.9234C25.3027 13.0788 25.3645 13.2279 25.4744 13.3378C25.5842 13.4476 25.7333 13.5094 25.8887 13.5094Z" fill="url(#paint1_linear_552_1202)"/>
<path d="M21.7771 12.9234C21.7771 13.0788 21.8389 13.2279 21.9488 13.3378C22.0587 13.4476 22.2077 13.5094 22.3631 13.5094C22.5185 13.5094 22.6675 13.4476 22.7774 13.3378C22.8873 13.2279 22.949 13.0788 22.949 12.9234C22.9473 11.3664 22.328 9.87359 21.227 8.77258C20.126 7.67158 18.6332 7.0523 17.0762 7.05059C16.9208 7.05059 16.7718 7.11232 16.6619 7.22221C16.552 7.33209 16.4902 7.48113 16.4902 7.63653C16.4902 7.79193 16.552 7.94096 16.6619 8.05085C16.7718 8.16073 16.9208 8.22247 17.0762 8.22247C18.3226 8.22402 19.5175 8.71987 20.3988 9.60126C21.28 10.4827 21.7758 11.6776 21.7771 12.924V12.9234Z" fill="url(#paint2_linear_552_1202)"/>
<path d="M16.4902 11.1609C16.4902 11.3163 16.552 11.4654 16.6619 11.5753C16.7718 11.6851 16.9208 11.7469 17.0762 11.7469C17.3881 11.7473 17.6871 11.8714 17.9076 12.092C18.1282 12.3125 18.2523 12.6115 18.2527 12.9234C18.2527 13.0788 18.3145 13.2279 18.4243 13.3378C18.5342 13.4476 18.6833 13.5094 18.8387 13.5094C18.9941 13.5094 19.1431 13.4476 19.253 13.3378C19.3629 13.2279 19.4246 13.0788 19.4246 12.9234C19.4238 12.3008 19.1762 11.7039 18.7359 11.2637C18.2957 10.8234 17.6988 10.5758 17.0762 10.575C16.9208 10.575 16.7718 10.6367 16.6619 10.7466C16.552 10.8565 16.4902 11.0055 16.4902 11.1609Z" fill="url(#paint3_linear_552_1202)"/>
<path d="M10.9824 19.0242C10.9824 19.1401 10.9481 19.2534 10.8837 19.3497C10.8193 19.4461 10.7278 19.5212 10.6207 19.5655C10.5136 19.6099 10.3958 19.6215 10.2822 19.5989C10.1685 19.5763 10.0641 19.5205 9.98216 19.4385C9.90022 19.3566 9.84441 19.2522 9.8218 19.1385C9.79919 19.0249 9.81081 18.907 9.85516 18.8C9.89951 18.6929 9.97461 18.6014 10.071 18.537C10.1673 18.4726 10.2806 18.4383 10.3965 18.4383C10.5519 18.4383 10.7009 18.5 10.8108 18.6099C10.9207 18.7198 10.9824 18.8688 10.9824 19.0242Z" fill="url(#paint4_linear_552_1202)"/>
<path d="M16.0559 29.2887C17.3616 29.9249 18.8335 30.1371 20.2658 29.8954C21.698 29.6538 23.0188 28.9704 24.0435 27.941L25.2552 26.7299C25.4115 26.5737 25.5355 26.3882 25.6202 26.1841C25.7048 25.9799 25.7484 25.7611 25.7484 25.5401C25.7484 25.3191 25.7048 25.1003 25.6202 24.8962C25.5355 24.692 25.4115 24.5066 25.2552 24.3504L20.5741 19.6699C20.4181 19.5134 20.2327 19.3893 20.0285 19.3046C19.8244 19.2199 19.6056 19.1763 19.3846 19.1763C19.1637 19.1763 18.9449 19.2199 18.7407 19.3046C18.5366 19.3893 18.3513 19.5134 18.1952 19.6699L16.2065 21.6586C15.8169 22.0482 15.2157 22.1273 14.7769 21.8478C14.0593 21.3889 13.3691 20.8887 12.7097 20.3496C12.5893 20.2512 12.4348 20.2047 12.2801 20.2203C12.1255 20.2358 11.9833 20.3122 11.885 20.4325C11.7866 20.5529 11.7401 20.7074 11.7556 20.862C11.7712 21.0167 11.8475 21.1589 11.9678 21.2572C12.6628 21.825 13.3902 22.3519 14.1464 22.8352C15.0446 23.4094 16.2593 23.2629 17.0351 22.4877L19.0243 20.4955C19.0716 20.448 19.1278 20.4104 19.1897 20.3847C19.2516 20.359 19.318 20.3458 19.385 20.3458C19.452 20.3458 19.5183 20.359 19.5802 20.3847C19.6421 20.4104 19.6983 20.448 19.7456 20.4955L24.4267 25.176C24.4741 25.2234 24.5117 25.2796 24.5373 25.3416C24.563 25.4035 24.5762 25.4699 24.5762 25.5369C24.5762 25.604 24.563 25.6703 24.5373 25.7323C24.5117 25.7942 24.4741 25.8505 24.4267 25.8979L23.2173 27.1137C22.3653 27.9702 21.2668 28.5389 20.0756 28.7402C18.8844 28.9415 17.66 28.7653 16.5739 28.2363C8.45458 24.2519 4.03486 17.942 1.76142 13.3471C0.672747 11.1498 1.1245 8.49024 2.88642 6.72891L4.07118 5.54354C4.11843 5.4961 4.17459 5.45847 4.23643 5.43278C4.29827 5.40709 4.36456 5.39387 4.43153 5.39387C4.49849 5.39387 4.56479 5.40709 4.62663 5.43278C4.68847 5.45847 4.74463 5.4961 4.79189 5.54354L9.47412 10.2252C9.52149 10.2725 9.55906 10.3287 9.5847 10.3905C9.61034 10.4523 9.62355 10.5186 9.62355 10.5855C9.62355 10.6525 9.61034 10.7188 9.5847 10.7806C9.55906 10.8424 9.52149 10.8986 9.47412 10.9459L7.48485 12.9352C6.70966 13.7104 6.56316 14.9273 7.13738 15.8238C7.47547 16.3512 7.8405 16.875 8.22019 17.3748C8.26603 17.438 8.32404 17.4915 8.39082 17.532C8.45761 17.5725 8.53183 17.5992 8.60909 17.6106C8.68636 17.622 8.76511 17.6178 8.84075 17.5984C8.91638 17.5789 8.98737 17.5445 9.04952 17.4972C9.11166 17.4499 9.16372 17.3906 9.20264 17.3229C9.24156 17.2552 9.26655 17.1804 9.27614 17.1029C9.28573 17.0254 9.27973 16.9467 9.25849 16.8716C9.23724 16.7964 9.20118 16.7263 9.15243 16.6652C8.79149 16.1906 8.4452 15.6955 8.12469 15.1934C7.84461 14.7545 7.92431 14.1533 8.31338 13.7637L10.3026 11.775C10.459 11.6189 10.5831 11.4335 10.6678 11.2294C10.7524 11.0253 10.796 10.8065 10.796 10.5855C10.796 10.3646 10.7524 10.1458 10.6678 9.94168C10.5831 9.73758 10.459 9.55217 10.3026 9.39608L5.62157 4.71504C5.46557 4.55858 5.28023 4.43445 5.07617 4.34975C4.87211 4.26506 4.65335 4.22147 4.43241 4.22147C4.21147 4.22147 3.99271 4.26506 3.78865 4.34975C3.58459 4.43445 3.39926 4.55858 3.24326 4.71504L2.05848 5.8998C-0.0590995 8.01621 -0.600506 11.2184 0.710822 13.8686C3.06746 18.6264 7.64247 25.1637 16.0577 29.2898L16.0559 29.2887Z" fill="url(#paint5_linear_552_1202)"/>
</g>
<defs>
<linearGradient id="paint0_linear_552_1202" x1="16.4902" y1="6.75469" x2="29.9996" y2="6.75469" gradientUnits="userSpaceOnUse">
<stop stop-color="#08AC9E"/>
<stop offset="1" stop-color="#FF621F"/>
</linearGradient>
<linearGradient id="paint1_linear_552_1202" x1="16.4902" y1="8.51719" x2="26.4746" y2="8.51719" gradientUnits="userSpaceOnUse">
<stop stop-color="#08AC9E"/>
<stop offset="1" stop-color="#FF621F"/>
</linearGradient>
<linearGradient id="paint2_linear_552_1202" x1="16.4902" y1="10.2803" x2="22.949" y2="10.2803" gradientUnits="userSpaceOnUse">
<stop stop-color="#08AC9E"/>
<stop offset="1" stop-color="#FF621F"/>
</linearGradient>
<linearGradient id="paint3_linear_552_1202" x1="16.4902" y1="12.0422" x2="19.4246" y2="12.0422" gradientUnits="userSpaceOnUse">
<stop stop-color="#08AC9E"/>
<stop offset="1" stop-color="#FF621F"/>
</linearGradient>
<linearGradient id="paint4_linear_552_1202" x1="9.81055" y1="19.0242" x2="10.9824" y2="19.0242" gradientUnits="userSpaceOnUse">
<stop stop-color="#08AC9E"/>
<stop offset="1" stop-color="#FF621F"/>
</linearGradient>
<linearGradient id="paint5_linear_552_1202" x1="-0.000505877" y1="17.1082" x2="25.8616" y2="17.1082" gradientUnits="userSpaceOnUse">
<stop stop-color="#08AC9E"/>
<stop offset="0.92" stop-color="#FF621F"/>
</linearGradient>
<clipPath id="clip0_552_1202">
<rect width="30" height="29.9941" fill="white"/>
</clipPath>
</defs>
</svg>
