<svg width="109" height="105" viewBox="0 0 109 105" fill="none" xmlns="http://www.w3.org/2000/svg">
<g clip-path="url(#clip0_135_90)">
<path d="M80.8328 90.3482C81.5597 90.3482 82.2702 90.563 82.8746 90.9656C83.479 91.3682 83.9501 91.9404 84.2282 92.6099C84.5064 93.2794 84.5791 94.016 84.4373 94.7267C84.2955 95.4374 83.9456 96.0902 83.4316 96.6026C82.9176 97.115 82.2627 97.464 81.5498 97.6053C80.8369 97.7467 80.0981 97.6741 79.4265 97.3968C78.755 97.1195 78.181 96.6499 77.7771 96.0474C77.3733 95.4449 77.1578 94.7365 77.1578 94.0119C77.1587 93.0405 77.5461 92.1091 78.2351 91.4222C78.9242 90.7353 79.8584 90.3491 80.8328 90.3482ZM80.8328 95.2321C81.0749 95.2321 81.3116 95.1605 81.5129 95.0264C81.7141 94.8924 81.8709 94.7018 81.9636 94.4788C82.0562 94.2559 82.0805 94.0106 82.0332 93.7739C81.986 93.5372 81.8695 93.3198 81.6983 93.1492C81.5271 92.9785 81.3091 92.8623 81.0717 92.8152C80.8343 92.7681 80.5881 92.7923 80.3644 92.8846C80.1408 92.977 79.9497 93.1334 79.8152 93.334C79.6807 93.5347 79.6089 93.7706 79.6089 94.0119C79.6089 94.3355 79.7379 94.6459 79.9675 94.8747C80.197 95.1036 80.5082 95.2321 80.8328 95.2321Z" fill="url(#paint0_linear_135_90)"/>
<path d="M29.3945 90.3482C30.1215 90.3475 30.8323 90.5618 31.4371 90.964C32.0419 91.3662 32.5135 91.9381 32.7922 92.6075C33.0709 93.277 33.144 94.0137 33.0026 94.7247C32.8612 95.4356 32.5115 96.0887 31.9977 96.6015C31.4838 97.1142 30.829 97.4635 30.116 97.6051C29.403 97.7467 28.6638 97.6743 27.9921 97.3971C27.3204 97.1199 26.7462 96.6503 26.3422 96.0477C25.9383 95.4452 25.7226 94.7367 25.7226 94.0119C25.7235 93.0411 26.1105 92.1102 26.7988 91.4234C27.4871 90.7366 28.4206 90.3499 29.3945 90.3482ZM29.3945 95.2321C29.6366 95.2321 29.8731 95.1605 30.0744 95.0264C30.2757 94.8924 30.4325 94.7018 30.5251 94.4788C30.6178 94.2559 30.642 94.0106 30.5948 93.7739C30.5475 93.5372 30.431 93.3198 30.2598 93.1492C30.0887 92.9785 29.8706 92.8623 29.6332 92.8152C29.3958 92.7681 29.1498 92.7923 28.9261 92.8846C28.7025 92.977 28.5112 93.1334 28.3768 93.334C28.2423 93.5347 28.1704 93.7706 28.1704 94.0119C28.1713 94.3353 28.3006 94.6451 28.53 94.8738C28.7593 95.1024 29.0702 95.2312 29.3945 95.2321Z" fill="url(#paint1_linear_135_90)"/>
<path d="M62.2185 80.5836H57.3194C57.0054 80.5673 56.7096 80.4314 56.4931 80.2041C56.2766 79.9767 56.1559 79.6752 56.1559 79.3617C56.1559 79.0483 56.2766 78.7467 56.4931 78.5194C56.7096 78.2921 57.0054 78.1562 57.3194 78.1399H62.2185C62.5325 78.1562 62.8281 78.2921 63.0446 78.5194C63.2611 78.7467 63.3818 79.0483 63.3818 79.3617C63.3818 79.6752 63.2611 79.9767 63.0446 80.2041C62.8281 80.4314 62.5325 80.5673 62.2185 80.5836Z" fill="url(#paint2_linear_135_90)"/>
<path d="M22.535 46.3959H27.9117V43.9556H18.3591C18.0342 43.9547 17.7229 43.8254 17.4934 43.596C17.264 43.3667 17.135 43.056 17.135 42.7321V37.8482C17.1514 37.5351 17.2877 37.2402 17.5158 37.0244C17.7439 36.8086 18.0463 36.6883 18.3607 36.6883C18.6752 36.6883 18.9776 36.8086 19.2057 37.0244C19.4337 37.2402 19.5699 37.5351 19.5863 37.8482V41.5119H21.7887V34.1877C21.7887 34.0274 21.8204 33.8688 21.8819 33.7207C21.9434 33.5727 22.0335 33.4381 22.1471 33.3248C22.2608 33.2115 22.3958 33.1217 22.5443 33.0604C22.6928 32.9991 22.8519 32.9675 23.0127 32.9675H32.8108V24.4198C32.8117 24.0958 32.9414 23.7855 33.1715 23.5568C33.4015 23.328 33.7132 23.1996 34.0381 23.1996H54.8549C55.1798 23.1996 55.4915 23.328 55.7215 23.5568C55.9516 23.7855 56.0813 24.0958 56.0822 24.4198V32.9675H67.1176C67.2783 32.9675 67.4375 32.9991 67.5859 33.0604C67.7344 33.1217 67.8693 33.2115 67.9829 33.3248C68.0966 33.4381 68.1867 33.5727 68.2482 33.7207C68.3097 33.8688 68.3415 34.0274 68.3415 34.1877V41.5119H71.0314V37.8482C71.0478 37.5351 71.184 37.2402 71.412 37.0244C71.6401 36.8086 71.9425 36.6883 72.257 36.6883C72.5714 36.6883 72.8739 36.8086 73.1019 37.0244C73.33 37.2402 73.4663 37.5351 73.4827 37.8482V42.7321C73.4827 43.0566 73.3533 43.3678 73.1231 43.5972C72.893 43.8267 72.5808 43.9556 72.2554 43.9556H63.439V46.3959H69.2436C71.482 46.388 73.6779 47.0056 75.5821 48.1786C77.4863 49.3516 79.0226 51.0331 80.0169 53.0324L86.4848 65.9284H94.3029C96.2483 65.9304 98.1739 66.3172 99.9683 67.0664C101.763 67.8155 103.39 68.9121 104.757 70.2927C106.123 71.6733 107.201 73.3104 107.928 75.1092C108.655 76.908 109.018 78.8327 108.993 80.772C108.993 80.7918 108.993 80.8051 108.993 80.8216C108.993 80.8382 108.993 80.8779 108.993 80.9043C108.904 84.7304 107.318 88.3701 104.574 91.0465C101.83 93.7229 98.1451 95.2237 94.3061 95.2288H91.7852C91.4614 98.1063 90.0106 100.74 87.7486 102.556H98.9598C99.2844 102.556 99.5956 102.685 99.8252 102.914C100.055 103.143 100.184 103.453 100.184 103.777C100.184 104.1 100.055 104.41 99.8252 104.639C99.5956 104.868 99.2844 104.997 98.9598 104.997H14.4551C14.1305 104.997 13.8191 104.868 13.5896 104.639C13.3601 104.41 13.2312 104.1 13.2312 103.777C13.2312 103.453 13.3601 103.143 13.5896 102.914C13.8191 102.685 14.1305 102.556 14.4551 102.556H22.4787C20.2167 100.74 18.7659 98.1063 18.442 95.2288H15.3373C12.5055 95.2261 9.7905 94.1036 7.78811 92.1074C5.78571 90.1111 4.65961 87.4044 4.65697 84.5813V64.2189C4.66486 59.494 6.55083 54.9649 9.90182 51.6237C13.2528 48.2824 17.7956 46.4013 22.535 46.3926V46.3959ZM24.2533 41.5119H42.6222V35.4177H24.2631L24.2533 41.5119ZM53.6443 25.6399H35.2753V32.9675H43.8328C44.1578 32.9675 44.4694 33.0959 44.6995 33.3247C44.9295 33.5534 45.0593 33.8638 45.0602 34.1877V41.5119H51.1964V34.1877C51.1964 34.0274 51.2281 33.8688 51.2896 33.7207C51.3511 33.5727 51.4412 33.4381 51.5548 33.3248C51.6685 33.2115 51.8035 33.1217 51.952 33.0604C52.1005 32.9991 52.2596 32.9675 52.4203 32.9675H53.6443V25.6399ZM65.8935 35.4177H53.6443V41.5218H65.8935V35.4177ZM60.9946 43.9655H30.3762V46.4058H60.9946V43.9655ZM36.7446 54.9536V65.9416H57.5648V54.9536H36.7446ZM23.6197 54.9536C21.5453 54.9574 19.522 55.5954 17.8227 56.7815C16.1234 57.9676 14.83 59.6447 14.1168 61.5867L13.1548 64.232C13.0845 64.4256 13.062 64.6332 13.0892 64.8372C13.1163 65.0412 13.1923 65.2357 13.3107 65.4043C13.4291 65.5729 13.5864 65.7106 13.7694 65.8058C13.9524 65.9011 14.1557 65.9511 14.3622 65.9516H34.2935V54.9635L23.6197 54.9536ZM60.0126 65.9416H83.7518L78.2391 54.9536H60.0126V65.9416ZM106.449 82.055H102.874C102.549 82.055 102.238 81.9265 102.008 81.6976C101.779 81.4688 101.65 81.1585 101.65 80.8349C101.65 80.5113 101.779 80.2009 102.008 79.9721C102.238 79.7432 102.549 79.6147 102.874 79.6147H106.522C106.273 76.5567 104.88 73.7038 102.62 71.6214C100.359 69.5391 97.397 68.3793 94.3194 68.372H53.6575V73.2559H90.3856C90.6996 73.2722 90.9954 73.4081 91.2119 73.6355C91.4284 73.8628 91.5491 74.1643 91.5491 74.4778C91.5491 74.7913 91.4284 75.0928 91.2119 75.3201C90.9954 75.5475 90.6996 75.6833 90.3856 75.6996H53.6443V92.7918H69.8804C70.191 90.1148 71.4779 87.6451 73.4961 85.8524C75.5143 84.0597 78.123 83.0691 80.8262 83.0691C83.5293 83.0691 86.1382 84.0597 88.1564 85.8524C90.1746 87.6451 91.4614 90.1148 91.7719 92.7918H94.2928C97.2843 92.7849 100.17 91.689 102.408 89.71C104.646 87.731 106.082 85.0053 106.446 82.0451L106.449 82.055ZM89.3972 94.0219C89.3972 92.3313 88.8943 90.6786 87.9522 89.2729C87.01 87.8673 85.6709 86.7717 84.1042 86.1248C82.5375 85.4778 80.8135 85.3085 79.1502 85.6384C77.487 85.9682 75.9592 86.7822 74.76 87.9777C73.5609 89.1731 72.7443 90.6962 72.4134 92.3543C72.0826 94.0124 72.2524 95.731 72.9014 97.2929C73.5504 98.8548 74.6494 100.19 76.0594 101.129C77.4694 102.068 79.1271 102.57 80.8229 102.57C83.0961 102.567 85.2755 101.666 86.8829 100.063C88.4903 98.4607 89.3945 96.288 89.3972 94.0219ZM73.9072 102.57C71.6452 100.753 70.1944 98.1195 69.8705 95.242H40.3501C40.0274 98.1192 38.5777 100.753 36.3167 102.57H73.9072ZM29.3844 102.57C31.0804 102.57 32.7384 102.069 34.1489 101.131C35.5593 100.192 36.6589 98.8571 37.3084 97.2953C37.9578 95.7334 38.1281 94.0146 37.7976 92.3563C37.4672 90.698 36.6508 89.1746 35.4518 87.9789C34.2529 86.7831 32.725 85.9687 31.0616 85.6386C29.3983 85.3085 27.6743 85.4776 26.1073 86.1244C24.5404 86.7713 23.201 87.8669 22.2587 89.2726C21.3165 90.6784 20.8136 92.3311 20.8136 94.0219C20.8162 96.2875 21.72 98.4596 23.3267 100.062C24.9334 101.664 27.1118 102.566 29.3844 102.57ZM7.09493 78.1498H7.75831C8.0474 78.1512 8.33385 78.095 8.60081 77.9844C8.86779 77.8739 9.10976 77.7112 9.31278 77.506C9.51581 77.3008 9.67569 77.0573 9.78295 76.7897C9.89021 76.5221 9.94276 76.2358 9.93745 75.9476V73.2659H7.08829L7.09493 78.1498ZM7.09493 70.8256H11.1712C11.4959 70.8256 11.8072 70.9542 12.0368 71.183C12.2663 71.4118 12.3953 71.7221 12.3953 72.0457V75.9476C12.3975 76.5556 12.2794 77.1579 12.0481 77.7204C11.8167 78.2829 11.4765 78.7945 11.0469 79.2259C10.6172 79.6573 10.1065 80.0001 9.5439 80.2347C8.98134 80.4694 8.37801 80.5913 7.76819 80.5935H7.10481V83.0338H18.1301C18.4547 83.0338 18.7661 83.1624 18.9956 83.3912C19.2251 83.62 19.3542 83.9303 19.3542 84.2539C19.3542 84.5775 19.2251 84.8879 18.9956 85.1168C18.7661 85.3456 18.4547 85.4741 18.1301 85.4741H7.15453C7.37424 87.4855 8.3307 89.3456 9.84061 90.6977C11.3505 92.0498 13.3077 92.7989 15.3373 92.8017H18.442C18.7526 90.1248 20.0394 87.655 22.0576 85.8623C24.0758 84.0696 26.6847 83.0791 29.3878 83.0791C32.0909 83.0791 34.6996 84.0696 36.7179 85.8623C38.7361 87.655 40.023 90.1248 40.3336 92.8017H51.1964V75.7095H18.1301C17.9638 75.7182 17.7975 75.6929 17.6413 75.6354C17.4851 75.5779 17.3423 75.4893 17.2215 75.375C17.1007 75.2607 17.0045 75.1231 16.9387 74.9706C16.873 74.818 16.8391 74.6537 16.8391 74.4877C16.8391 74.3217 16.873 74.1574 16.9387 74.0049C17.0045 73.8523 17.1007 73.7147 17.2215 73.6004C17.3423 73.4861 17.4851 73.3975 17.6413 73.34C17.7975 73.2825 17.9638 73.2572 18.1301 73.2659H51.1964V68.3819H14.3622C13.7622 68.3817 13.1712 68.2374 12.6391 67.9612C12.1069 67.685 11.6493 67.285 11.305 66.7952C10.9608 66.3054 10.74 65.74 10.6612 65.1471C10.5825 64.5542 10.6482 63.9511 10.8528 63.3889L11.8149 60.7436C12.7012 58.3312 14.308 56.2477 16.4187 54.7737C18.5294 53.2998 21.0426 52.5062 23.6197 52.5H76.7996C75.9048 51.3553 74.7587 50.4302 73.4495 49.7956C72.1403 49.1611 70.7027 48.8341 69.247 48.8395H22.535C18.444 48.8439 14.5219 50.466 11.6291 53.3498C8.73633 56.2337 7.1092 60.1438 7.10481 64.2222L7.09493 70.8256Z" fill="url(#paint3_linear_135_90)"/>
<path d="M2.45123 42.1237C2.45123 42.486 2.55898 42.8402 2.7609 43.1414C2.96281 43.4427 3.24981 43.6774 3.58559 43.8161C3.92136 43.9547 4.29077 43.9911 4.64722 43.9204C5.00367 43.8497 5.33105 43.6752 5.58804 43.419C5.84502 43.1628 6.02001 42.8364 6.09091 42.4811C6.16182 42.1257 6.12553 41.7574 5.98645 41.4226C5.84737 41.0879 5.61181 40.8018 5.30963 40.6005C5.00744 40.3992 4.65208 40.2918 4.28865 40.2918C3.80129 40.2918 3.33403 40.4848 2.98942 40.8283C2.64481 41.1718 2.45123 41.6378 2.45123 42.1237Z" fill="url(#paint4_linear_135_90)"/>
<path d="M24.4954 5.49569C24.4954 5.858 24.6031 6.21219 24.805 6.51344C25.0069 6.8147 25.2939 7.04944 25.6297 7.1881C25.9655 7.32675 26.3349 7.36308 26.6913 7.2924C27.0478 7.22171 27.3752 7.04726 27.6322 6.79107C27.8892 6.53487 28.0641 6.20843 28.135 5.85308C28.2059 5.49772 28.1697 5.12937 28.0306 4.79464C27.8915 4.4599 27.6559 4.17378 27.3538 3.97249C27.0516 3.7712 26.6964 3.66378 26.3329 3.66378C25.8459 3.66465 25.3789 3.85792 25.0345 4.20128C24.6901 4.54463 24.4962 5.01011 24.4954 5.49569Z" fill="url(#paint5_linear_135_90)"/>
<path d="M61.2367 1.83187C61.2367 2.19418 61.3444 2.54837 61.5463 2.84962C61.7482 3.15088 62.0352 3.38571 62.371 3.52436C62.7068 3.66301 63.0762 3.69926 63.4327 3.62858C63.7891 3.5579 64.1165 3.38345 64.3735 3.12725C64.6305 2.87106 64.8054 2.54461 64.8763 2.18926C64.9472 1.83391 64.911 1.46555 64.7719 1.13082C64.6328 0.796082 64.3972 0.510042 64.0951 0.308751C63.7929 0.10746 63.4375 -3.8147e-05 63.0741 -3.8147e-05C62.5867 -3.8147e-05 62.1195 0.193022 61.7748 0.536569C61.4302 0.880116 61.2367 1.34602 61.2367 1.83187Z" fill="url(#paint6_linear_135_90)"/>
<path d="M97.978 1.83187C97.978 2.19418 98.0857 2.54837 98.2876 2.84962C98.4896 3.15088 98.7766 3.38571 99.1123 3.52436C99.4481 3.66301 99.8175 3.69926 100.174 3.62858C100.53 3.5579 100.858 3.38345 101.115 3.12725C101.372 2.87106 101.547 2.54461 101.618 2.18926C101.689 1.83391 101.652 1.46555 101.513 1.13082C101.374 0.796082 101.139 0.510042 100.836 0.308751C100.534 0.10746 100.179 -3.8147e-05 99.8154 -3.8147e-05C99.328 -3.8147e-05 98.8608 0.193022 98.5162 0.536569C98.1716 0.880116 97.978 1.34602 97.978 1.83187Z" fill="url(#paint7_linear_135_90)"/>
<path d="M77.1578 27.4817C77.1578 27.844 77.2655 28.1982 77.4675 28.4995C77.6694 28.8007 77.9564 29.0356 78.2921 29.1742C78.6279 29.3129 78.9973 29.3491 79.3538 29.2784C79.7102 29.2078 80.0376 29.0333 80.2946 28.7771C80.5516 28.5209 80.7266 28.1945 80.7975 27.8391C80.8684 27.4838 80.8321 27.1154 80.693 26.7807C80.5539 26.4459 80.3184 26.1598 80.0162 25.9585C79.714 25.7572 79.3586 25.6498 78.9952 25.6498C78.5079 25.6498 78.0406 25.8428 77.696 26.1864C77.3514 26.5299 77.1578 26.9959 77.1578 27.4817Z" fill="url(#paint8_linear_135_90)"/>
<path d="M100.429 55.552C100.429 55.9143 100.537 56.2685 100.739 56.5698C100.941 56.871 101.228 57.1059 101.563 57.2445C101.899 57.3832 102.269 57.4194 102.625 57.3487C102.982 57.2781 103.309 57.1036 103.566 56.8474C103.823 56.5912 103.998 56.2648 104.069 55.9094C104.14 55.5541 104.103 55.1858 103.964 54.8511C103.825 54.5163 103.59 54.2302 103.288 54.0289C102.985 53.8276 102.63 53.7202 102.267 53.7202C101.779 53.7202 101.312 53.9132 100.967 54.2567C100.623 54.6003 100.429 55.0662 100.429 55.552Z" fill="url(#paint9_linear_135_90)"/>
<path d="M95.53 37.8482C94.319 37.8482 93.1352 37.4902 92.1282 36.8194C91.1213 36.1487 90.3366 35.1953 89.8731 34.08C89.4097 32.9646 89.2885 31.7372 89.5248 30.5531C89.761 29.3691 90.3441 28.2815 91.2004 27.4278C92.0567 26.5741 93.1478 25.9927 94.3356 25.7572C95.5233 25.5217 96.7544 25.6426 97.8732 26.1046C98.9921 26.5666 99.9484 27.349 100.621 28.3528C101.294 29.3566 101.653 30.5367 101.653 31.744C101.651 33.3624 101.006 34.9139 99.8577 36.0583C98.7098 37.2027 97.1534 37.8464 95.53 37.8482ZM95.53 28.0836C94.803 28.0836 94.0923 28.2985 93.4879 28.7012C92.8834 29.1039 92.4125 29.6763 92.1344 30.346C91.8563 31.0157 91.7837 31.7525 91.9258 32.4633C92.0679 33.1741 92.4182 33.8269 92.9325 34.3392C93.4468 34.8514 94.102 35.2001 94.8151 35.3411C95.5283 35.4821 96.2672 35.4091 96.9387 35.1313C97.6102 34.8535 98.184 34.3833 98.5875 33.7804C98.9909 33.1774 99.2058 32.4688 99.2052 31.744C99.2043 30.7729 98.8168 29.8419 98.1277 29.1555C97.4385 28.4691 96.5041 28.0836 95.53 28.0836Z" fill="url(#paint10_linear_135_90)"/>
<path d="M8.57425 25.6399C6.8783 25.6399 5.22035 25.1385 3.81026 24.1991C2.40017 23.2597 1.30126 21.9245 0.652401 20.3624C0.00353813 18.8003 -0.166039 17.0815 0.165068 15.4233C0.496174 13.7651 1.31304 12.2421 2.51249 11.0468C3.71194 9.85154 5.24005 9.03771 6.9035 8.70827C8.56694 8.37883 10.291 8.54857 11.8576 9.19604C13.4243 9.8435 14.7632 10.9396 15.7049 12.3457C16.6467 13.7518 17.149 15.4047 17.1483 17.0955C17.1457 19.3614 16.2414 21.5336 14.6339 23.1356C13.0264 24.7375 10.8472 25.6381 8.57425 25.6399ZM8.57425 10.9881C7.36258 10.9881 6.17801 11.3462 5.17054 12.0173C4.16308 12.6884 3.37783 13.6422 2.91414 14.7582C2.45046 15.8742 2.32923 17.1022 2.56561 18.287C2.802 19.4717 3.38542 20.5599 4.2422 21.414C5.09898 22.2681 6.19062 22.8498 7.379 23.0855C8.56739 23.3212 9.79916 23.2002 10.9186 22.738C12.038 22.2757 12.9948 21.4929 13.668 20.4885C14.3412 19.4842 14.7005 18.3034 14.7005 17.0955C14.6987 15.4762 14.0527 13.9238 12.9042 12.7788C11.7557 11.6338 10.1985 10.9898 8.57425 10.9881Z" fill="url(#paint11_linear_135_90)"/>
</g>
<defs>
<linearGradient id="paint0_linear_135_90" x1="84.508" y1="94.0119" x2="77.1578" y2="94.0119" gradientUnits="userSpaceOnUse">
<stop stop-color="#08AC9E"/>
<stop offset="0.85" stop-color="#FF621F"/>
</linearGradient>
<linearGradient id="paint1_linear_135_90" x1="33.0695" y1="94.012" x2="25.7226" y2="94.012" gradientUnits="userSpaceOnUse">
<stop stop-color="#08AC9E"/>
<stop offset="0.85" stop-color="#FF621F"/>
</linearGradient>
<linearGradient id="paint2_linear_135_90" x1="63.4423" y1="79.3601" x2="56.0955" y2="79.3601" gradientUnits="userSpaceOnUse">
<stop stop-color="#08AC9E"/>
<stop offset="0.85" stop-color="#FF621F"/>
</linearGradient>
<linearGradient id="paint3_linear_135_90" x1="109" y1="64.0998" x2="4.65697" y2="64.0998" gradientUnits="userSpaceOnUse">
<stop stop-color="#08AC9E"/>
<stop offset="0.85" stop-color="#FF621F"/>
</linearGradient>
<linearGradient id="paint4_linear_135_90" x1="6.12625" y1="42.1237" x2="2.45123" y2="42.1237" gradientUnits="userSpaceOnUse">
<stop stop-color="#08AC9E"/>
<stop offset="0.85" stop-color="#FF621F"/>
</linearGradient>
<linearGradient id="paint5_linear_135_90" x1="28.1704" y1="5.49568" x2="24.4954" y2="5.49568" gradientUnits="userSpaceOnUse">
<stop stop-color="#08AC9E"/>
<stop offset="0.85" stop-color="#FF621F"/>
</linearGradient>
<linearGradient id="paint6_linear_135_90" x1="64.9117" y1="1.83187" x2="61.2367" y2="1.83187" gradientUnits="userSpaceOnUse">
<stop stop-color="#08AC9E"/>
<stop offset="0.85" stop-color="#FF621F"/>
</linearGradient>
<linearGradient id="paint7_linear_135_90" x1="101.653" y1="1.83187" x2="97.978" y2="1.83187" gradientUnits="userSpaceOnUse">
<stop stop-color="#08AC9E"/>
<stop offset="0.85" stop-color="#FF621F"/>
</linearGradient>
<linearGradient id="paint8_linear_135_90" x1="80.8328" y1="27.4718" x2="77.1578" y2="27.4718" gradientUnits="userSpaceOnUse">
<stop stop-color="#08AC9E"/>
<stop offset="0.85" stop-color="#FF621F"/>
</linearGradient>
<linearGradient id="paint9_linear_135_90" x1="104.101" y1="55.5521" x2="100.429" y2="55.5521" gradientUnits="userSpaceOnUse">
<stop stop-color="#08AC9E"/>
<stop offset="0.85" stop-color="#FF621F"/>
</linearGradient>
<linearGradient id="paint10_linear_135_90" x1="101.653" y1="31.744" x2="89.4071" y2="31.744" gradientUnits="userSpaceOnUse">
<stop stop-color="#08AC9E"/>
<stop offset="0.85" stop-color="#FF621F"/>
</linearGradient>
<linearGradient id="paint11_linear_135_90" x1="17.1483" y1="17.0955" x2="0.00338544" y2="17.0955" gradientUnits="userSpaceOnUse">
<stop stop-color="#08AC9E"/>
<stop offset="0.85" stop-color="#FF621F"/>
</linearGradient>
<clipPath id="clip0_135_90">
<rect width="109" height="105" fill="white" transform="matrix(-1 0 0 1 109 0)"/>
</clipPath>
</defs>
</svg>
