<svg width="102" height="103" viewBox="0 0 102 103" fill="none" xmlns="http://www.w3.org/2000/svg">
<g clip-path="url(#clip0_135_116)">
<path d="M97.6337 52.2698H76.2441V48.4959C76.2434 47.8167 75.9737 47.1655 75.4941 46.6853C75.0145 46.2051 74.3643 45.935 73.686 45.9342H56.3815C55.7033 45.935 55.053 46.2051 54.5734 46.6853C54.0938 47.1655 53.8241 47.8167 53.8234 48.4959V52.2698H51.0241V38.2173C51.0227 36.8931 50.4967 35.6236 49.5616 34.6873C48.6266 33.751 47.3587 33.2243 46.0363 33.2228H39.9369V6.02979C39.9369 5.23588 39.6219 4.47448 39.0613 3.9131C38.5007 3.35172 37.7404 3.03638 36.9475 3.03638H34.6196V2.35507C34.6189 1.73069 34.3709 1.13206 33.93 0.690554C33.4891 0.24905 32.8913 0.000717557 32.2677 7.62939e-06H20.5698C19.9465 0.000718488 19.3489 0.249169 18.9084 0.69075C18.468 1.13233 18.2206 1.73093 18.2206 2.35507V3.03638H15.8901C15.0972 3.03638 14.3369 3.35172 13.7763 3.9131C13.2156 4.47448 12.9007 5.23588 12.9007 6.02979V33.2255H4.97705C3.65487 33.2276 2.3874 33.7546 1.45248 34.6908C0.517552 35.6269 -0.00861705 36.896 -0.0107422 38.22V53.7746C-0.0107422 54.1758 0.148414 54.5606 0.431742 54.8443C0.715071 55.128 1.0994 55.2874 1.50009 55.2874C1.90078 55.2874 2.28497 55.128 2.5683 54.8443C2.85163 54.5606 3.01079 54.1758 3.01079 53.7746V38.2173C3.01079 37.6951 3.21796 37.1944 3.58668 36.8251C3.95541 36.4559 4.45559 36.2485 4.97705 36.2485H46.0363C46.5578 36.2485 47.0579 36.4559 47.4267 36.8251C47.7954 37.1944 48.0026 37.6951 48.0026 38.2173V91.0262C48.0026 91.5486 47.7954 92.0497 47.4268 92.4194C47.0581 92.789 46.558 92.997 46.0363 92.9977H4.98778C4.46607 92.997 3.96593 92.789 3.59728 92.4194C3.22863 92.0497 3.02151 91.5486 3.02151 91.0262V59.8124C3.02151 59.4112 2.86236 59.0264 2.57903 58.7427C2.2957 58.459 1.9115 58.2996 1.51081 58.2996C1.11013 58.2996 0.725796 58.459 0.442468 58.7427C0.159139 59.0264 -1.68756e-05 59.4112 -1.68756e-05 59.8124V91.0289C0.00140125 92.3531 0.527339 93.6226 1.46242 94.559C2.3975 95.4953 3.66537 96.0219 4.98778 96.0234H8.06019V101.485C8.07659 101.874 8.24284 102.243 8.52412 102.513C8.8054 102.783 9.18003 102.934 9.56971 102.934C9.95938 102.934 10.334 102.783 10.6153 102.513C10.8966 102.243 11.0627 101.874 11.0791 101.485V96.0234H28.0675V98.6171C28.0689 99.7791 28.5306 100.893 29.3511 101.715C30.1716 102.536 31.2842 102.999 32.4446 103H97.6337C98.7941 102.999 99.9066 102.536 100.727 101.715C101.548 100.893 102.009 99.7791 102.011 98.6171V56.6527C102.009 55.4907 101.548 54.3767 100.727 53.5551C99.9066 52.7334 98.7941 52.2712 97.6337 52.2698ZM21.2502 3.02564H31.6088V6.07H21.2502V3.02564ZM15.933 6.05933H18.2339V6.74057C18.2339 7.36446 18.4815 7.96282 18.922 8.40398C19.3626 8.84513 19.9601 9.09295 20.5832 9.09295H32.2731C32.8964 9.09295 33.4943 8.84525 33.9353 8.40417C34.3763 7.96309 34.6242 7.36471 34.625 6.74057V6.05933H36.9233V33.2255H15.933V6.05933ZM86.7259 55.2927V99.7625H83.7044V55.2927H86.7259ZM51.0241 91.0289V55.2927H65.023C65.2265 55.3013 65.4298 55.2686 65.6204 55.1965C65.8111 55.1245 65.9852 55.0145 66.1323 54.8733C66.2793 54.7321 66.3963 54.5626 66.4762 54.3749C66.5562 54.1872 66.5974 53.9853 66.5974 53.7813C66.5974 53.5772 66.5562 53.3754 66.4762 53.1877C66.3963 53 66.2793 52.8305 66.1323 52.6893C65.9852 52.5481 65.8111 52.4381 65.6204 52.3661C65.4298 52.294 65.2265 52.2612 65.023 52.2698H56.8423V48.9465H73.2011V52.2591H71.0582C70.8546 52.2505 70.6515 52.2832 70.4608 52.3553C70.2702 52.4274 70.0961 52.5373 69.949 52.6786C69.8019 52.8198 69.6849 52.9893 69.6049 53.177C69.5249 53.3646 69.4838 53.5666 69.4838 53.7706C69.4838 53.9746 69.5249 54.1765 69.6049 54.3642C69.6849 54.5518 69.8019 54.7214 69.949 54.8626C70.0961 55.0038 70.2702 55.1137 70.4608 55.1858C70.6515 55.2579 70.8546 55.2907 71.0582 55.2821H80.664V99.9663H42.9879V96.0126H46.0577C47.3801 96.0112 48.648 95.4846 49.5831 94.5482C50.5182 93.6119 51.0441 92.3424 51.0455 91.0182L51.0241 91.0289ZM31.0757 98.6171V96.0234H39.945V99.9771H32.4446C32.0846 99.9763 31.7396 99.8329 31.4851 99.578C31.2305 99.3231 31.0871 98.9776 31.0864 98.6171H31.0757ZM98.9704 98.6171C98.9697 98.9776 98.8263 99.3231 98.5717 99.578C98.3172 99.8329 97.9722 99.9763 97.6122 99.9771H89.7315V55.2927H97.6337C97.9936 55.2934 98.3387 55.437 98.5932 55.6919C98.8477 55.9468 98.991 56.2922 98.9917 56.6527L98.9704 98.6171Z" fill="url(#paint0_linear_135_116)"/>
<path d="M57.9379 88.7222H69.0947C69.9925 88.7215 70.8533 88.364 71.4881 87.7284C72.1229 87.0927 72.4799 86.2307 72.4806 85.3317V80.9301C72.4799 80.0311 72.1229 79.1692 71.4881 78.5335C70.8533 77.8979 69.9925 77.5404 69.0947 77.5397H57.9379C57.0401 77.5404 56.1792 77.8979 55.5444 78.5335C54.9096 79.1692 54.5527 80.0311 54.5519 80.9301V85.3317C54.5534 86.2305 54.9105 87.0921 55.5452 87.7276C56.1799 88.3631 57.0403 88.7208 57.9379 88.7222ZM57.5736 80.9301C57.5736 80.8334 57.6119 80.7406 57.6802 80.6722C57.7485 80.6037 57.8412 80.5653 57.9379 80.5653H69.0947C69.1427 80.5649 69.1904 80.5742 69.2349 80.5923C69.2794 80.6105 69.3199 80.6373 69.354 80.6712C69.3882 80.7052 69.4152 80.7455 69.4337 80.7899C69.4522 80.8343 69.4617 80.882 69.4617 80.9301V85.3317C69.4617 85.3799 69.4522 85.4276 69.4337 85.472C69.4152 85.5164 69.3882 85.5567 69.354 85.5907C69.3199 85.6246 69.2794 85.6514 69.2349 85.6696C69.1904 85.6877 69.1427 85.6969 69.0947 85.6965H57.9379C57.8412 85.6965 57.7485 85.6581 57.6802 85.5897C57.6119 85.5213 57.5736 85.4285 57.5736 85.3317V80.9301Z" fill="url(#paint1_linear_135_116)"/>
<path d="M12.8123 85.1976V44.0513C12.8123 43.6501 12.6532 43.2653 12.3698 42.9816C12.0865 42.6979 11.7022 42.5385 11.3015 42.5385C10.9008 42.5385 10.5165 42.6979 10.2331 42.9816C9.94981 43.2653 9.79065 43.6501 9.79065 44.0513V85.2003C9.79065 85.6015 9.94981 85.9864 10.2331 86.2701C10.5165 86.5538 10.9008 86.7131 11.3015 86.7131C11.7022 86.7131 12.0865 86.5538 12.3698 86.2701C12.6532 85.9864 12.8123 85.6015 12.8123 85.2003V85.1976Z" fill="url(#paint2_linear_135_116)"/>
<path d="M22.2895 85.1976V44.0513C22.2895 43.6501 22.1304 43.2653 21.8471 42.9816C21.5637 42.6979 21.1794 42.5385 20.7787 42.5385C20.378 42.5385 19.9938 42.6979 19.7105 42.9816C19.4272 43.2653 19.268 43.6501 19.268 44.0513V85.2003C19.268 85.6015 19.4272 85.9864 19.7105 86.2701C19.9938 86.5538 20.378 86.7131 20.7787 86.7131C21.1794 86.7131 21.5637 86.5538 21.8471 86.2701C22.1304 85.9864 22.2895 85.6015 22.2895 85.2003V85.1976Z" fill="url(#paint3_linear_135_116)"/>
<path d="M31.7668 85.1976V44.0513C31.7668 43.6501 31.6077 43.2653 31.3243 42.9816C31.041 42.6979 30.6568 42.5385 30.2561 42.5385C29.8554 42.5385 29.4711 42.6979 29.1878 42.9816C28.9045 43.2653 28.7453 43.6501 28.7453 44.0513V85.2003C28.7453 85.6015 28.9045 85.9864 29.1878 86.2701C29.4711 86.5538 29.8554 86.7131 30.2561 86.7131C30.6568 86.7131 31.041 86.5538 31.3243 86.2701C31.6077 85.9864 31.7668 85.6015 31.7668 85.2003V85.1976Z" fill="url(#paint4_linear_135_116)"/>
<path d="M41.2443 85.1976V44.0513C41.2528 43.8474 41.2201 43.6439 41.1481 43.4531C41.0761 43.2622 40.9663 43.0879 40.8253 42.9406C40.6843 42.7934 40.5149 42.6762 40.3275 42.5961C40.1401 42.5161 39.9385 42.4748 39.7347 42.4748C39.531 42.4748 39.3294 42.5161 39.142 42.5961C38.9545 42.6762 38.7852 42.7934 38.6442 42.9406C38.5031 43.0879 38.3933 43.2622 38.3213 43.4531C38.2494 43.6439 38.2168 43.8474 38.2253 44.0513V85.2003C38.2168 85.4041 38.2494 85.6076 38.3213 85.7985C38.3933 85.9894 38.5031 86.1637 38.6442 86.311C38.7852 86.4583 38.9545 86.5755 39.142 86.6555C39.3294 86.7356 39.531 86.7768 39.7347 86.7768C39.9385 86.7768 40.1401 86.7356 40.3275 86.6555C40.5149 86.5755 40.6843 86.4583 40.8253 86.311C40.9663 86.1637 41.0761 85.9894 41.1481 85.7985C41.2201 85.6076 41.2528 85.4041 41.2443 85.2003V85.1976Z" fill="url(#paint5_linear_135_116)"/>
</g>
<defs>
<linearGradient id="paint0_linear_135_116" x1="-2.73425e-05" y1="51.5" x2="102" y2="51.5" gradientUnits="userSpaceOnUse">
<stop stop-color="#08AC9E"/>
<stop offset="0.85" stop-color="#FF621F"/>
</linearGradient>
<linearGradient id="paint1_linear_135_116" x1="54.5519" y1="83.1296" x2="72.4806" y2="83.1296" gradientUnits="userSpaceOnUse">
<stop stop-color="#08AC9E"/>
<stop offset="0.85" stop-color="#FF621F"/>
</linearGradient>
<linearGradient id="paint2_linear_135_116" x1="9.79065" y1="64.6245" x2="12.8123" y2="64.6245" gradientUnits="userSpaceOnUse">
<stop stop-color="#08AC9E"/>
<stop offset="0.85" stop-color="#FF621F"/>
</linearGradient>
<linearGradient id="paint3_linear_135_116" x1="19.268" y1="64.6245" x2="22.2895" y2="64.6245" gradientUnits="userSpaceOnUse">
<stop stop-color="#08AC9E"/>
<stop offset="0.85" stop-color="#FF621F"/>
</linearGradient>
<linearGradient id="paint4_linear_135_116" x1="28.7453" y1="64.6245" x2="31.7668" y2="64.6245" gradientUnits="userSpaceOnUse">
<stop stop-color="#08AC9E"/>
<stop offset="0.85" stop-color="#FF621F"/>
</linearGradient>
<linearGradient id="paint5_linear_135_116" x1="38.2253" y1="64.6244" x2="41.2443" y2="64.6244" gradientUnits="userSpaceOnUse">
<stop stop-color="#08AC9E"/>
<stop offset="0.85" stop-color="#FF621F"/>
</linearGradient>
<clipPath id="clip0_135_116">
<rect width="102" height="103" fill="white"/>
</clipPath>
</defs>
</svg>
