<svg width="564" height="448" viewBox="0 0 564 448" fill="none" xmlns="http://www.w3.org/2000/svg">
<g clip-path="url(#clip0_70_4154)">
<path d="M388.138 346.271C388.501 345.936 388.845 345.615 389.197 345.33L388.929 344.98C388.929 344.98 388.975 344.767 389.092 344.86L389.403 345.168C396.022 339.989 401.935 346.032 407.765 350.219C410.587 352.267 413.163 354.021 416.74 354.066C419.682 353.894 422.553 353.092 425.157 351.712C427.323 350.792 429.572 350.083 431.875 349.595C432.818 349.15 433.797 348.785 434.802 348.505C430.894 343.355 426.996 338.243 423.218 332.966C420.552 329.389 416.309 325.164 416.141 320.421C416.103 318.961 416.615 317.541 417.576 316.441C418.536 315.342 419.875 314.645 421.325 314.488C425.549 313.676 429.47 316.526 432.638 318.802C437.644 322.349 442.835 325.677 447.717 329.403C452.136 332.807 457.098 336.24 461.265 340.019C462.821 339.563 464.394 339.195 465.824 338.849C465.94 338.827 466.059 338.828 466.175 338.853C466.29 338.878 466.4 338.925 466.497 338.993C466.835 339.006 467.167 339.077 467.481 339.204C467.543 339.142 467.618 339.094 467.7 339.062C474.824 336.199 482.216 334.059 489.766 332.675C495.32 331.666 501.656 330.207 507.182 331.889C508.355 332.26 509.477 332.793 510.623 333.21C512.927 333.784 515.262 334.227 517.616 334.537C519.001 334.722 520.305 335.293 521.381 336.185C521.756 336.542 522.051 336.975 522.244 337.455C522.437 337.935 522.525 338.451 522.501 338.968C522.563 339.033 522.603 339.116 522.618 339.205C522.633 339.293 522.62 339.385 522.583 339.466L522.324 339.875C522.178 340.226 521.97 340.548 521.709 340.825C516.084 349.292 505.783 353.475 496.542 356.717C490.975 358.668 485.304 360.305 479.604 361.678L479.946 363.125C480.401 364.5 480.777 365.9 481.073 367.318C483.012 366.241 485.038 365.33 487.131 364.596C487.512 363.871 488.145 363.31 488.911 363.019C489.489 362.774 490.128 362.713 490.741 362.845C491.355 362.976 491.913 363.294 492.34 363.754C496.606 364.909 500.899 376.909 495.07 378.082C494.728 378.148 494.378 378.16 494.033 378.118C490.92 379.466 487.607 380.288 484.227 380.552C486.307 384.141 483.953 388.396 479.284 386.639C476.219 385.485 474.076 381.95 471.946 379.638C468.23 375.595 464.4 371.682 460.337 367.977C460.337 367.977 460.338 367.977 460.256 367.96L460.173 367.942C460.064 367.96 459.953 367.936 459.861 367.875L459.547 367.499C459.239 367.175 458.88 366.926 458.576 366.586L456.327 367.067C443.153 369.844 429.686 372.146 416.167 371.483C413.156 371.344 410.155 371.046 407.177 370.588C404.986 370.238 401.711 370.224 399.828 368.841C399.403 368.58 399.058 368.205 398.832 367.76C398.607 367.314 398.509 366.815 398.55 366.317C396.396 366.946 394.173 367.312 391.932 367.407C388.653 367.409 388.428 364.938 390.854 362.829C392.65 361.479 394.72 360.539 396.918 360.075C395.729 358.497 394.607 356.848 393.484 355.199L392.44 355.662C392.326 355.637 392.219 355.494 392.335 355.433L393.316 354.939C391.558 352.329 389.845 349.677 388.024 347.123C387.944 346.989 387.911 346.831 387.932 346.677C387.952 346.522 388.025 346.379 388.138 346.271Z" fill="white"/>
<path d="M515.43 335.288C515.629 335.16 515.852 335.074 516.085 335.033C516.31 334.948 516.55 334.913 516.789 334.928C517.028 334.944 517.261 335.011 517.473 335.125L517.649 335.265C517.909 335.388 518.152 335.544 518.373 335.73C518.611 335.93 518.827 336.155 519.018 336.401C519.566 336.7 520.019 337.145 520.327 337.688C520.635 338.23 520.786 338.848 520.763 339.472C520.733 340.044 520.55 340.599 520.231 341.075C519.854 341.63 518.727 342.248 518.681 342.942C518.655 343.143 518.571 343.332 518.439 343.486C518.308 343.64 518.135 343.753 517.94 343.81C517.746 343.867 517.539 343.865 517.345 343.806C517.152 343.747 516.98 343.633 516.85 343.478C516.358 343.114 515.943 342.658 515.628 342.133C514.927 340.988 514.51 339.691 514.413 338.351C514.29 337.797 514.319 337.219 514.498 336.679C514.677 336.14 514.999 335.659 515.43 335.288Z" fill="#FF9933"/>
<path d="M476.343 382.264C476.245 382.154 476.178 382.021 476.147 381.877C476.117 381.733 476.126 381.584 476.172 381.444C476.217 381.304 476.299 381.179 476.408 381.08C476.517 380.982 476.65 380.914 476.794 380.883C478.719 380.24 480.756 380.004 482.777 380.19C482.899 380.193 483.017 380.225 483.124 380.283C483.231 380.341 483.322 380.424 483.391 380.524C483.46 380.624 483.504 380.739 483.52 380.859C483.536 380.98 483.524 381.102 483.484 381.217C483.581 381.223 483.675 381.254 483.755 381.309C483.835 381.363 483.899 381.439 483.94 381.527C483.981 381.615 483.997 381.712 483.987 381.809C483.977 381.906 483.941 381.998 483.883 382.076C483.871 382.119 483.861 382.163 483.855 382.207C483.121 383.198 482.08 383.917 480.894 384.253L480.812 384.235C480.705 384.346 480.571 384.427 480.423 384.471C480.276 384.515 480.119 384.519 479.969 384.484L478.328 384.132C478.258 384.253 478.161 384.356 478.044 384.432C477.928 384.509 477.794 384.557 477.656 384.572C477.517 384.587 477.377 384.57 477.247 384.522C477.116 384.473 476.998 384.394 476.904 384.291L476.276 383.538C476.19 383.442 476.127 383.329 476.09 383.206C476.053 383.082 476.043 382.953 476.062 382.825C476.081 382.698 476.128 382.577 476.2 382.47C476.271 382.363 476.366 382.273 476.476 382.207L476.343 382.264Z" fill="#FF9933"/>
<path d="M417.849 321.423L418.025 321.323C417.92 321.212 417.843 321.077 417.799 320.931C417.637 320.312 417.65 319.661 417.836 319.048C418.022 318.436 418.373 317.887 418.852 317.463C418.956 317.362 419.083 317.289 419.223 317.251C419.854 316.664 420.616 316.238 421.446 316.009C421.418 315.887 421.421 315.761 421.454 315.641C421.486 315.521 421.548 315.41 421.634 315.32C421.72 315.229 421.826 315.162 421.944 315.122C422.063 315.083 422.189 315.074 422.311 315.095C424.545 315.334 426.741 315.845 428.85 316.616C429.518 316.862 429.763 317.963 428.974 318.361L423.622 320.512C423.152 320.703 421.191 321.28 419.811 321.877C419.858 321.958 419.883 322.05 419.881 322.144C419.879 322.238 419.851 322.329 419.8 322.408C419.562 322.722 419.256 322.979 418.906 323.16C418.555 323.34 418.169 323.44 417.775 323.451C417.623 323.44 417.482 323.371 417.378 323.26C417.275 323.149 417.218 323.003 417.217 322.851C417.221 322.511 417.327 322.18 417.523 321.902C417.512 321.797 417.54 321.691 417.599 321.604C417.659 321.516 417.747 321.452 417.849 321.423Z" fill="#FF9933"/>
<path d="M390.811 345.813C392.881 344.16 395.973 344.308 398.481 344.536C398.644 344.555 398.797 344.618 398.927 344.719C399.057 344.819 399.157 344.953 399.217 345.106C400.32 345.616 401.332 346.303 402.214 347.139C402.259 347.188 402.294 347.246 402.316 347.309C402.339 347.372 402.348 347.439 402.343 347.505C402.338 347.572 402.32 347.637 402.289 347.697C402.259 347.756 402.215 347.808 402.164 347.85C402.169 347.876 402.169 347.902 402.164 347.928C402.158 347.953 402.147 347.977 402.132 347.998C399.898 349.519 397.531 350.834 395.06 351.928C395.05 352.043 395 352.151 394.92 352.234C394.84 352.317 394.734 352.37 394.62 352.384C393.977 352.473 393.355 352.671 392.778 352.968C392.673 353.015 392.556 353.031 392.442 353.013C392.328 352.995 392.221 352.945 392.134 352.869C392.048 352.793 391.985 352.693 391.954 352.582C391.922 352.471 391.922 352.353 391.955 352.242C391.882 352.179 391.816 352.108 391.76 352.029C390.598 350.165 388.541 347.594 390.811 345.813Z" fill="#FF9933"/>
<path d="M388.054 347.06C389.875 349.615 391.589 352.267 393.347 354.877L392.365 355.371C392.267 355.35 392.31 355.634 392.471 355.6L393.514 355.136C394.637 356.786 395.759 358.435 396.948 360.012C394.75 360.477 392.68 361.417 390.884 362.767C388.462 364.859 388.684 367.346 391.963 367.345C394.204 367.25 396.426 366.884 398.58 366.254C398.539 366.752 398.638 367.252 398.863 367.698C399.089 368.143 399.433 368.517 399.858 368.779C401.742 370.162 405.016 370.176 407.207 370.525C410.185 370.983 413.186 371.282 416.197 371.421C429.781 372.098 443.184 369.782 456.358 367.004L458.606 366.524C458.911 366.864 459.27 367.113 459.578 367.437L459.892 367.813C459.984 367.874 460.095 367.898 460.204 367.88L460.286 367.898C460.297 367.906 460.31 367.912 460.325 367.915C460.339 367.918 460.354 367.918 460.368 367.915C464.431 371.62 468.26 375.533 471.976 379.576C474.107 381.888 476.25 385.422 479.314 386.577C483.984 388.334 486.337 384.079 484.257 380.49C487.63 380.227 490.936 379.409 494.043 378.068C494.396 378.099 494.752 378.083 495.101 378.02C500.944 376.781 496.65 364.781 492.37 363.692C491.943 363.232 491.385 362.914 490.771 362.782C490.158 362.651 489.519 362.712 488.941 362.957C488.175 363.248 487.543 363.809 487.161 364.534C485.069 365.268 483.043 366.179 481.104 367.256C480.808 365.838 480.431 364.438 479.977 363.063L479.635 361.616C485.353 360.161 491.024 358.524 496.573 356.656C505.833 353.486 516.115 349.23 521.739 340.763C522 340.486 522.209 340.164 522.355 339.813L522.614 339.404C522.651 339.322 522.663 339.231 522.648 339.142C522.634 339.054 522.593 338.971 522.531 338.906C522.555 338.388 522.467 337.872 522.274 337.392C522.081 336.912 521.786 336.479 521.411 336.123C520.336 335.231 519.031 334.66 517.646 334.475C515.292 334.165 512.958 333.722 510.654 333.148C509.508 332.731 508.385 332.198 507.212 331.827C501.686 330.144 495.35 331.604 489.796 332.613C482.246 333.997 474.854 336.136 467.73 339C467.648 339.031 467.574 339.08 467.512 339.142C467.198 339.015 466.865 338.943 466.527 338.931C466.43 338.863 466.32 338.816 466.205 338.791C466.089 338.766 465.97 338.765 465.854 338.787C464.424 339.133 462.852 339.501 461.296 339.957C457.129 336.178 452.232 332.758 447.747 329.341C442.865 325.615 437.674 322.286 432.668 318.74C429.451 316.453 425.577 313.63 421.356 314.426C419.906 314.583 418.567 315.28 417.606 316.379C416.646 317.479 416.133 318.899 416.171 320.359C416.306 325.095 420.649 329.341 423.249 332.904C427.034 338.148 430.925 343.293 434.833 348.443C433.828 348.723 432.848 349.087 431.905 349.533C429.603 350.02 427.353 350.729 425.187 351.65C422.583 353.03 419.713 353.832 416.771 354.004C413.194 353.959 410.618 352.204 407.796 350.157C401.966 345.97 396.053 339.927 389.434 345.106L389.122 344.798C389.023 344.777 388.926 344.756 388.96 344.918L389.228 345.268C388.875 345.553 388.531 345.874 388.168 346.209C388.055 346.317 387.983 346.46 387.962 346.614C387.941 346.769 387.974 346.926 388.054 347.06ZM418.747 325.48C418.593 325.155 418.473 324.837 418.352 324.519C421.246 319.986 432.932 333.124 435.439 335.843C433.061 336.69 430.653 337.514 428.349 338.498C428.196 338.568 428.282 338.81 428.418 338.736C430.792 337.905 433.137 336.896 435.458 335.915L435.708 336.192C438.225 338.616 440.474 341.304 442.416 344.209C443.227 345.551 444.518 348.336 443.056 349.792C441.841 350.416 440.553 350.884 439.222 351.187C438.083 350.286 437.015 349.299 436.028 348.235C432.758 344.751 429.842 340.897 426.913 337.108C423.983 333.319 420.655 329.548 418.747 325.48ZM457.31 338.536C458.057 339.212 458.747 339.841 459.567 340.497C457.148 341.238 454.973 342.617 453.271 344.491C451.396 346.752 450.509 350.41 452.413 352.897C453.427 353.843 454.737 354.409 456.12 354.498C454.061 354.658 452.012 354.769 449.991 354.749C446.247 354.76 442.606 353.527 439.639 351.242C441.439 350.854 443.076 350.261 444.775 349.783C444.859 349.757 444.93 349.699 444.973 349.621C445.015 349.544 445.026 349.452 445.001 349.367C443.059 341.289 435.457 335.039 429.657 329.588C427.974 327.99 420.738 319.31 418.042 323.405C416.715 318.225 420.274 314.59 425.675 315.815C428.085 316.549 430.354 317.686 432.386 319.177C436.144 321.563 439.772 324.146 443.255 326.918C447.587 330.406 452.11 335.653 457.277 338.529L457.31 338.536ZM468.355 341.212C469.215 343.031 469.848 344.95 470.238 346.924C470.333 347.447 470.391 347.976 470.413 348.508L470.482 348.986C470.475 349.169 470.428 349.348 470.346 349.511C470.264 349.674 470.147 349.818 470.004 349.932C471.057 348.062 468.464 343.349 467.796 342.14C467.573 341.707 467.235 341.343 466.819 341.089C467.038 340.935 467.297 340.847 467.564 340.834C467.831 340.821 468.096 340.885 468.328 341.017C468.316 341.084 468.326 341.152 468.355 341.212ZM466.57 348.182L466.831 349.046C466.879 349.178 466.96 349.296 467.066 349.388C467.228 349.714 467.443 350.01 467.703 350.263C466.246 350.415 466.243 350.105 465.438 348.575C464.848 347.475 464.443 346.286 464.237 345.054C464.112 344.514 464.057 343.959 464.075 343.405C463.766 341.964 464.293 341.269 465.638 341.317C465.488 341.572 465.397 341.858 465.373 342.154C465.212 344.245 465.624 346.34 466.563 348.215L466.57 348.182ZM466.824 352.119C464.611 352.705 462.333 353.002 460.045 353.003C457.137 353.119 452.883 353.908 452.783 349.729C452.696 346.051 456.22 343.783 459.195 342.634C459.701 342.433 462.141 341.461 463.932 340.952C463.713 341.471 463.567 342.017 463.497 342.576C463.368 344.28 463.578 345.992 464.114 347.614C464.65 349.236 465.502 350.735 466.621 352.024L466.824 352.119ZM460.913 340.064L460.658 340.13L460.447 339.913L460.913 340.064ZM492.893 376.551C491.215 375.822 489.851 374.519 489.046 372.875C487.734 370.784 487.175 368.306 487.462 365.853L488.181 365.543C488.504 367.32 489.044 369.051 489.788 370.697C490.112 371.73 490.591 372.708 491.209 373.596C491.416 374.06 491.714 374.478 492.084 374.826C492.455 375.174 492.891 375.444 493.367 375.622C496.387 376.423 496.199 373.377 495.514 370.808C495.462 370.487 495.39 370.18 495.328 369.909C495.071 368.863 494.747 367.836 494.358 366.832C495.42 368.697 496.093 370.758 496.337 372.891C496.485 375.001 495.498 377.367 492.893 376.551ZM482.726 379.389C479.505 379.523 479.247 379.605 477.203 376.728C474.835 375.018 474.805 373.208 477.114 371.297L479.163 369.743C480.356 369.016 481.601 368.375 482.886 367.827C484.145 367.238 485.453 366.659 486.675 366.165C486.567 368.411 487.032 370.648 488.026 372.664C489.02 374.68 490.511 376.41 492.357 377.69C490.864 378.091 489.31 378.377 487.857 378.667C486.169 379.045 484.453 379.287 482.726 379.389ZM477.911 380.315L477.533 380.715L477.663 380.588C477.73 380.485 477.814 380.393 477.911 380.315ZM475.707 382.592C476.267 382.45 476.787 382.18 477.225 381.803C477.663 381.426 478.008 380.952 478.231 380.418C480.004 380.887 481.855 380.98 483.666 380.689C484.471 383.095 482.439 384.326 477.534 384.392C476.867 383.819 476.261 383.209 475.674 382.585L475.707 382.592ZM460.006 366.24C466.261 364.918 472.511 363.542 478.718 361.969L479.034 363.136C479.268 364.717 479.616 366.278 480.075 367.809L480.146 367.961C477.178 369.799 474.683 372.151 474.461 374.869L473.304 373.539C473.411 373.441 473.35 373.325 473.165 373.389C471.44 371.187 469.44 369.217 467.213 367.527C466.646 367.082 465.973 366.789 465.26 366.679C464.548 366.568 463.819 366.643 463.143 366.895C462.955 366.975 463.062 367.273 463.231 367.206C466.739 365.81 470.573 370.909 472.862 373.599C472.241 374.014 471.542 374.299 470.807 374.437C470.073 374.575 469.318 374.563 468.588 374.401C468.549 374.392 468.509 374.4 468.475 374.422C468.441 374.444 468.418 374.478 468.409 374.517C468.401 374.556 468.408 374.597 468.43 374.631C468.452 374.665 468.486 374.688 468.525 374.697C469.296 374.919 470.11 374.949 470.896 374.785C471.682 374.621 472.416 374.268 473.035 373.756L473.297 374.053L474.459 375.281C474.472 376.251 474.735 377.201 475.223 378.039C475.699 378.865 476.4 379.54 477.244 379.983L477.137 380.081C477.072 380.254 476.991 380.421 476.893 380.578L476.703 380.744C476.433 380.973 476.138 381.169 475.823 381.328C475.53 381.435 475.248 381.57 474.981 381.732C473.587 380.23 472.206 378.663 470.697 377.137C467.544 373.833 464.303 370.614 461.079 367.398C461.061 367.336 461.026 367.28 460.977 367.238L460.006 366.24ZM400.585 365.791C401.094 365.659 401.595 365.561 402.081 365.458C405.42 364.851 410.579 364.479 413.217 362.021C415.104 360.261 415.021 357.528 411.986 357.514C411.914 357.507 411.842 357.529 411.785 357.574C408.396 357.559 405.02 357.991 401.744 358.858C399.321 354.147 394.787 350.238 390.843 346.541C392.608 344.308 397.683 345.052 399.755 346.115C401.029 346.853 402.244 347.688 403.39 348.611C405.535 350.136 407.575 351.827 409.801 353.215C411.669 354.456 413.797 355.251 416.021 355.537C418.246 355.822 420.507 355.592 422.628 354.864C425.55 353.961 428.254 352.633 431.264 351.801C433.074 351.364 434.845 351.108 436.534 350.594L436.953 351.044C436.699 351.129 436.478 351.292 436.321 351.51C435.981 351.833 435.761 352.262 435.698 352.727C435.636 353.192 435.735 353.665 435.979 354.065C436.13 354.316 436.344 354.522 436.6 354.664C436.855 354.807 437.144 354.879 437.436 354.876C438.014 354.82 438.55 354.548 438.937 354.115C439.215 353.883 439.419 353.574 439.523 353.227C445.513 357.311 453.016 355.929 460.575 354.852C463.457 354.893 466.306 354.236 468.88 352.938C469.44 352.886 469.975 352.68 470.426 352.343C470.876 352.006 471.226 351.551 471.435 351.029C472.459 348.809 471.745 345.735 470.595 343.255C470.26 342.115 469.699 341.054 468.946 340.136C477.683 336.703 486.827 334.412 496.149 333.321C499.517 332.844 502.943 332.955 506.272 333.652C506.005 333.915 505.796 334.233 505.662 334.584C505.528 334.934 505.471 335.31 505.494 335.684C505.501 335.861 505.547 336.035 505.629 336.191C505.712 336.348 505.829 336.483 505.972 336.588C506.114 336.693 506.278 336.764 506.452 336.797C506.626 336.829 506.806 336.822 506.976 336.775C508.313 336.546 509.67 336.459 511.016 336.181C511.687 336.033 512.347 335.842 512.993 335.608L514.305 335.889C514.879 336.012 515.482 336.004 516.078 336.028C519.01 335.798 520.433 337.408 520.392 340.801C507.799 355.282 485.178 359.213 467.305 363.252C456.304 365.939 445.162 368.014 433.932 369.466C428.617 370.072 423.267 370.315 417.919 370.192C414.727 370.092 411.542 369.823 408.378 369.385C407.196 369.217 406.037 369.021 404.865 368.804C403.995 368.617 403.126 368.431 402.239 368.241L400.585 365.791ZM398.246 361.648L398.476 361.937C398.854 362.414 399.643 361.775 399.337 361.28C403.658 359.938 409.273 358.96 411.902 358.303C412.461 361.034 411.311 362.506 408.451 362.717L406.798 363.222C405.129 363.724 403.413 364.043 401.723 364.403L400.485 364.653C400.391 364.566 400.27 364.515 400.142 364.509C400.014 364.504 399.888 364.544 399.788 364.623L399.535 364.844L396.772 365.403C395.231 365.709 393.435 367.042 393.679 364.861C393.681 364.77 393.7 364.681 393.735 364.598C399.403 363.709 404.989 362.361 410.439 360.567C410.439 360.567 410.461 360.468 410.439 360.567C405.022 362.067 399.531 363.288 393.987 364.222C395.133 362.99 396.595 362.097 398.214 361.641L398.246 361.648ZM394.156 354.862L397.209 353.351C398.88 355.016 400.367 356.855 401.646 358.837L400.086 359.224L398.141 359.735C397.017 358.412 395.521 356.666 394.124 354.855L394.156 354.862ZM390.597 346.884C391.345 347.559 392.215 348.227 392.763 348.791L395.762 351.856L397.177 353.258C396.134 353.722 395.082 354.15 394.035 354.63C391.648 351.593 389.73 348.45 390.565 346.877L390.597 346.884Z" fill="#201306"/>
<path d="M500.31 334.488C500.585 334.504 500.856 334.562 501.114 334.66C501.489 334.779 501.819 335.011 502.059 335.323C502.299 335.636 502.437 336.014 502.456 336.408L502.417 336.107C502.476 336.305 502.49 336.513 502.458 336.717C502.414 337.055 502.269 337.371 502.041 337.624C502.001 337.659 501.964 337.697 501.93 337.738C501.697 337.974 501.405 338.145 501.085 338.233C500.765 338.321 500.428 338.324 500.106 338.241C499.847 338.169 499.599 338.063 499.367 337.928C499.021 337.727 498.75 337.42 498.594 337.052C498.437 336.684 498.404 336.275 498.5 335.886C498.601 335.484 498.835 335.127 499.163 334.873C499.491 334.619 499.895 334.483 500.31 334.488Z" fill="#201306"/>
<path d="M493.959 336.339C494.095 336.407 494.228 336.481 494.357 336.562C494.622 336.721 494.831 336.96 494.952 337.246C495.073 337.531 495.1 337.847 495.03 338.149C494.978 338.404 494.874 338.646 494.725 338.859C494.576 339.073 494.385 339.253 494.163 339.39C493.94 339.538 493.685 339.631 493.42 339.661C493.154 339.69 492.884 339.656 492.634 339.56C492.384 339.465 492.161 339.311 491.983 339.111C491.804 338.912 491.677 338.672 491.609 338.413L491.641 338.265C491.568 337.96 491.581 337.64 491.68 337.343C491.779 337.045 491.96 336.781 492.201 336.58C492.442 336.38 492.735 336.251 493.046 336.209C493.356 336.166 493.672 336.211 493.959 336.339Z" fill="#201306"/>
<path d="M487.883 337.46C488.096 337.549 488.288 337.682 488.447 337.849C488.606 338.016 488.729 338.214 488.808 338.431C488.887 338.648 488.921 338.879 488.907 339.109C488.893 339.34 488.831 339.565 488.726 339.771C488.551 340.109 488.276 340.386 487.939 340.564C487.703 340.706 487.439 340.792 487.165 340.817C486.891 340.841 486.615 340.802 486.359 340.704C486.102 340.606 485.87 340.451 485.682 340.25C485.494 340.05 485.355 339.809 485.273 339.546C485.191 339.23 485.185 338.899 485.257 338.581C485.334 338.319 485.468 338.076 485.649 337.872C485.83 337.668 486.055 337.506 486.306 337.399C486.557 337.292 486.828 337.241 487.101 337.252C487.374 337.262 487.641 337.333 487.883 337.46Z" fill="#201306"/>
<path d="M480.693 338.736C481.083 338.871 481.41 339.144 481.611 339.504C481.813 339.864 481.874 340.285 481.785 340.688C481.705 341.071 481.552 341.435 481.333 341.76C481.111 342.124 480.77 342.4 480.367 342.54C479.964 342.679 479.526 342.674 479.127 342.524C478.72 342.381 478.385 342.087 478.189 341.703C477.993 341.318 477.953 340.874 478.076 340.461C478.202 339.889 478.547 339.389 479.035 339.067C479.524 338.745 480.119 338.627 480.693 338.736Z" fill="#201306"/>
<path d="M472.806 341.668C473.101 341.584 473.415 341.598 473.701 341.709C473.987 341.82 474.229 342.021 474.39 342.282L474.57 342.321C474.632 342.374 474.682 342.44 474.716 342.514C474.75 342.588 474.768 342.668 474.768 342.75C474.769 342.831 474.752 342.912 474.719 342.986C474.685 343.06 474.636 343.127 474.575 343.181C474.534 343.423 474.425 343.649 474.261 343.833C474.098 344.017 473.885 344.151 473.649 344.219C473.304 344.314 472.935 344.272 472.62 344.102C472.305 343.932 472.067 343.647 471.957 343.307C471.878 342.977 471.92 342.63 472.076 342.329C472.232 342.028 472.491 341.793 472.806 341.668Z" fill="#201306"/>
<path d="M429.752 353.332C430.229 353.335 430.685 353.523 431.026 353.855C431.368 354.188 431.568 354.64 431.584 355.116C431.586 355.59 431.403 356.046 431.073 356.386C430.744 356.727 430.294 356.924 429.82 356.937C429.344 356.944 428.884 356.762 428.54 356.431C428.197 356.1 427.997 355.647 427.985 355.17C427.988 354.695 428.173 354.24 428.502 353.897C428.831 353.555 429.279 353.353 429.752 353.332Z" fill="#201306"/>
<path d="M421.389 358.566C421.196 358.372 421.071 358.12 421.03 357.849C420.99 357.578 421.036 357.301 421.163 357.058C421.326 356.799 421.573 356.604 421.863 356.506C422.153 356.409 422.467 356.415 422.753 356.523L422.836 356.54C422.913 356.486 423.005 356.46 423.099 356.467C423.192 356.475 423.281 356.514 423.349 356.58C423.416 356.645 423.459 356.732 423.469 356.826C423.479 356.919 423.456 357.013 423.404 357.091L423.383 357.19C423.499 357.443 423.53 357.727 423.471 357.999C423.413 358.271 423.269 358.518 423.059 358.701C422.814 358.891 422.507 358.983 422.198 358.958C421.889 358.933 421.6 358.794 421.389 358.566Z" fill="#201306"/>
<path d="M421.009 366.267C421.023 366.082 421.062 365.9 421.125 365.725C421.145 365.686 421.176 365.654 421.215 365.631C421.253 365.609 421.296 365.598 421.34 365.6C421.508 365.626 421.667 365.689 421.807 365.784C421.947 365.879 422.064 366.005 422.149 366.151C422.373 366.564 422.452 367.041 422.374 367.504C422.159 368.506 420.532 368.089 420.733 367.153C420.87 366.874 420.964 366.575 421.009 366.267Z" fill="#201306"/>
<path d="M423.815 365.666C424.345 365.917 424.841 366.642 424.366 367.176C424.327 367.21 424.281 367.235 424.23 367.248C424.18 367.261 424.127 367.262 424.076 367.251C424.025 367.24 423.977 367.217 423.936 367.185C423.896 367.152 423.863 367.111 423.842 367.063C423.654 366.817 423.705 366.501 423.437 366.307C423.39 366.243 423.362 366.167 423.358 366.087C423.354 366.008 423.373 365.929 423.413 365.861C423.453 365.792 423.513 365.737 423.584 365.703C423.656 365.668 423.736 365.655 423.815 365.666Z" fill="#201306"/>
<path d="M425.988 365.857C426.18 365.959 426.395 366.005 426.612 365.99C426.652 365.989 426.691 366 426.725 366.022C426.758 366.043 426.785 366.074 426.801 366.111C426.817 366.147 426.822 366.188 426.815 366.227C426.808 366.267 426.789 366.303 426.761 366.332C426.614 366.454 426.433 366.527 426.242 366.542C426.051 366.556 425.861 366.511 425.697 366.413C425.401 366.195 425.707 365.728 425.988 365.857Z" fill="#201306"/>
<path d="M462.395 361.34C462.475 361.32 462.56 361.32 462.64 361.341C462.721 361.362 462.795 361.403 462.854 361.46C462.914 361.518 462.958 361.59 462.982 361.67C463.006 361.749 463.01 361.834 462.992 361.915C462.999 362.006 462.979 362.097 462.936 362.178C462.927 362.219 462.908 362.257 462.881 362.29C462.854 362.322 462.82 362.348 462.781 362.365C462.743 362.382 462.701 362.389 462.658 362.387C462.616 362.384 462.575 362.372 462.539 362.35C462.419 362.302 462.312 362.226 462.226 362.129C462.167 362.073 462.123 362.003 462.099 361.926C462.074 361.849 462.071 361.766 462.088 361.687C462.105 361.608 462.142 361.534 462.196 361.473C462.249 361.412 462.318 361.367 462.395 361.34Z" fill="#201306"/>
<path d="M464.153 359.862L464.548 359.946C464.958 360.034 464.649 360.672 464.336 360.451C464.226 360.372 464.125 360.281 464.034 360.18C463.937 360.073 464.002 359.846 464.153 359.862Z" fill="#201306"/>
<path d="M462.125 348.982C462.595 349.139 462.994 349.456 463.255 349.877C463.42 350.067 463.214 350.47 462.946 350.275C462.491 350.045 462.13 349.664 461.925 349.197C461.92 349.169 461.922 349.14 461.93 349.113C461.938 349.086 461.952 349.061 461.972 349.04C461.991 349.019 462.015 349.003 462.042 348.993C462.069 348.983 462.097 348.979 462.125 348.982Z" fill="#201306"/>
<path d="M460.843 349.841C461.165 349.905 461.471 350.034 461.74 350.222C461.783 350.261 461.812 350.313 461.822 350.37C461.831 350.428 461.821 350.487 461.792 350.537C461.763 350.588 461.717 350.627 461.663 350.647C461.609 350.668 461.549 350.669 461.494 350.651C461.202 350.507 460.935 350.316 460.705 350.086C460.685 350.063 460.674 350.034 460.671 350.004C460.669 349.973 460.675 349.943 460.69 349.916C460.705 349.89 460.728 349.869 460.755 349.855C460.782 349.842 460.813 349.837 460.843 349.841Z" fill="#201306"/>
<path d="M459.803 350.769C459.394 350.539 459.009 350.267 458.656 349.957C458.628 349.928 458.612 349.891 458.61 349.852C458.607 349.812 458.618 349.773 458.641 349.741C458.664 349.709 458.698 349.687 458.737 349.677C458.775 349.668 458.815 349.672 458.851 349.689C459.242 349.924 459.616 350.188 459.969 350.479C460.132 350.599 459.983 350.894 459.803 350.769Z" fill="#201306"/>
<path d="M487.572 376.235C488.113 376.351 488.65 376.569 489.213 376.587C489.775 376.604 489.411 377.024 489.114 377.047C488.798 377.115 488.471 377.103 488.16 377.012C487.85 376.922 487.567 376.756 487.337 376.528C487.331 376.493 487.333 376.458 487.342 376.423C487.351 376.389 487.367 376.357 487.389 376.329C487.411 376.302 487.439 376.279 487.47 376.263C487.502 376.246 487.537 376.237 487.572 376.235Z" fill="#201306"/>
<path d="M486.149 377.03C486.328 377.042 486.505 377.08 486.674 377.142C486.937 377.199 486.825 377.639 486.586 377.553C486.408 377.531 486.232 377.494 486.061 377.44C486.006 377.429 485.959 377.396 485.929 377.349C485.898 377.302 485.888 377.245 485.9 377.191C485.911 377.137 485.944 377.089 485.991 377.059C486.037 377.028 486.094 377.018 486.149 377.03Z" fill="#201306"/>
<path d="M484.273 376.971C484.408 376.995 484.532 377.06 484.629 377.157C484.725 377.255 484.788 377.38 484.809 377.516C484.784 377.631 484.648 377.704 484.607 377.575C484.576 377.479 484.523 377.391 484.452 377.319C484.381 377.247 484.294 377.193 484.198 377.161C484.173 377.151 484.153 377.132 484.142 377.107C484.132 377.082 484.131 377.054 484.141 377.029C484.151 377.004 484.171 376.984 484.195 376.973C484.22 376.962 484.248 376.961 484.273 376.971Z" fill="#201306"/>
<path d="M507.603 347.148C507.452 347.395 507.255 347.609 507.022 347.779C507.022 347.779 506.824 347.737 506.84 347.741C506.92 347.458 507.059 347.195 507.246 346.969C507.432 346.665 507.734 346.936 507.603 347.148Z" fill="#201306"/>
<path d="M504.929 348.413L505.257 348.484C505.52 348.54 505.333 348.93 505.187 348.812L504.89 348.594C504.874 348.582 504.862 348.567 504.855 348.548C504.848 348.53 504.846 348.51 504.85 348.491C504.854 348.472 504.864 348.454 504.878 348.44C504.892 348.427 504.91 348.417 504.929 348.413Z" fill="#201306"/>
<path d="M503.201 348.868C503.24 348.876 503.275 348.9 503.297 348.933C503.318 348.967 503.326 349.008 503.317 349.047C503.309 349.086 503.285 349.121 503.252 349.142C503.218 349.164 503.177 349.172 503.138 349.163C503.098 349.155 503.064 349.131 503.043 349.098C503.021 349.064 503.013 349.023 503.022 348.984C503.03 348.945 503.054 348.91 503.087 348.889C503.121 348.867 503.162 348.859 503.201 348.868Z" fill="#201306"/>
<path d="M484.061 355.057C484.221 355.084 484.373 355.145 484.507 355.236C484.642 355.327 484.755 355.446 484.84 355.584C484.985 355.787 484.735 356.077 484.491 355.853C484.321 355.675 484.129 355.519 483.921 355.388C483.888 355.363 483.864 355.328 483.853 355.288C483.842 355.248 483.845 355.205 483.861 355.167C483.877 355.129 483.906 355.098 483.942 355.078C483.979 355.057 484.02 355.05 484.061 355.057Z" fill="#201306"/>
<path d="M482.669 356.185C482.984 356.355 483.273 356.567 483.53 356.816C483.738 356.963 483.424 357.308 483.285 357.158C482.981 356.971 482.701 356.75 482.448 356.498C482.423 356.464 482.408 356.422 482.407 356.38C482.407 356.337 482.42 356.295 482.445 356.26C482.469 356.225 482.504 356.199 482.544 356.186C482.585 356.172 482.629 356.172 482.669 356.185Z" fill="#201306"/>
<path d="M481.538 356.578C481.706 356.597 481.87 356.632 482.03 356.683C482.211 356.722 482.128 357.031 481.967 356.979L481.442 356.867C481.305 356.786 481.407 356.55 481.538 356.578Z" fill="#201306"/>
<path d="M476.156 355.424C476.032 355.869 475.86 356.299 475.642 356.706C475.627 356.729 475.605 356.747 475.58 356.757C475.555 356.768 475.527 356.771 475.5 356.765C475.473 356.759 475.448 356.745 475.43 356.725C475.411 356.705 475.399 356.68 475.395 356.653C475.483 356.21 475.622 355.779 475.808 355.367C475.89 355.144 476.218 355.214 476.156 355.424Z" fill="#201306"/>
<path d="M473.689 355.806C473.647 355.523 474.05 355.403 474.096 355.67C474.151 355.911 474.153 356.16 474.101 356.401C474.05 356.643 473.946 356.87 473.796 357.066C473.791 357.092 473.775 357.115 473.753 357.13C473.73 357.144 473.703 357.149 473.677 357.144C473.651 357.138 473.628 357.122 473.613 357.1C473.599 357.078 473.594 357.05 473.599 357.024C473.656 356.621 473.687 356.214 473.689 355.806Z" fill="#201306"/>
<path d="M444.946 341.694C444.79 341.781 444.618 341.623 444.746 341.427C444.987 341.193 445.24 340.972 445.505 340.766C445.692 340.617 445.982 340.868 445.792 341.033C445.533 341.281 445.249 341.502 444.946 341.694Z" fill="#201306"/>
<path d="M443.08 338.871C443.056 338.874 443.031 338.872 443.008 338.863C442.986 338.855 442.966 338.842 442.95 338.824C442.934 338.806 442.922 338.784 442.916 338.761C442.909 338.738 442.908 338.713 442.913 338.69C442.918 338.666 442.929 338.644 442.945 338.626C442.96 338.607 442.979 338.592 443.002 338.583C443.024 338.573 443.047 338.569 443.071 338.571C443.095 338.572 443.119 338.58 443.139 338.592C443.166 338.608 443.188 338.633 443.2 338.662C443.212 338.691 443.215 338.722 443.209 338.753C443.202 338.784 443.186 338.812 443.163 338.833C443.14 338.854 443.111 338.868 443.08 338.871Z" fill="#201306"/>
<path d="M439.415 335.149C439.471 334.886 439.524 334.639 439.498 334.359C439.473 334.079 439.882 334.166 439.826 334.429C439.77 334.692 439.713 334.955 439.657 335.218C439.601 335.48 439.406 335.267 439.415 335.149Z" fill="#201306"/>
<path d="M440.708 364.355C440.616 364.575 440.508 364.787 440.383 364.99C440.352 365.138 440.027 365.051 440.088 364.927C440.166 364.687 440.268 364.456 440.391 364.236C440.496 363.983 440.803 364.152 440.708 364.355Z" fill="#201306"/>
<path d="M437.805 363.252C437.94 363.023 438.325 363.226 438.17 363.468C437.961 363.838 437.619 364.114 437.215 364.242C437.194 364.254 437.169 364.257 437.147 364.25C437.124 364.244 437.104 364.228 437.093 364.208C437.081 364.187 437.079 364.163 437.086 364.14C437.092 364.117 437.107 364.098 437.128 364.087C437.374 363.825 437.6 363.547 437.805 363.252Z" fill="#201306"/>
<path d="M-42.6139 24.2352C-61.483 10.1767 -89.0234 15.4419 -108.701 28.3017C-144.606 51.7024 -163.467 98.7176 -153.55 140.458C-149.546 157.413 -139.368 174.866 -122.507 179.234C-120.53 179.875 -118.416 179.972 -116.388 179.515C-110.269 177.785 -109.678 167.982 -114.827 164.216C-119.975 160.45 -127.683 162.303 -132.186 166.819C-136.689 171.334 -138.663 177.748 -139.913 184.06C-147.081 220.318 -134.224 259.149 -109.403 286.595C-84.5807 314.04 -48.8661 330.3 -12.2006 334.909C-2.39268 336.356 7.57296 336.379 17.3888 334.979C30.5787 332.772 42.8947 326.873 55.9617 324.038C69.0287 321.203 84.1777 322.027 93.7213 331.39C98.2354 335.793 101.116 342.371 99.645 348.516C98.174 354.66 91.3403 359.483 85.3677 357.482C79.3951 355.481 76.9019 347.731 77.9967 341.42C79.941 330.344 89.703 321.871 100.459 318.609C111.214 315.348 122.738 316.511 133.796 318.486C158.802 323.092 182.755 332.236 204.472 345.466C219.41 354.56 233.187 365.551 248.578 373.814C268.006 384.101 289.474 389.947 311.434 390.93C333.395 391.913 355.301 388.01 375.576 379.501" stroke="#201306" stroke-width="0.96" stroke-miterlimit="10" stroke-linecap="round" stroke-dasharray="5.26 5.26"/>
</g>
<defs>
<clipPath id="clip0_70_4154">
<rect width="713.461" height="304.361" fill="white" transform="translate(-134.231) rotate(12.0941)"/>
</clipPath>
</defs>
</svg>
