<svg width="107" height="106" viewBox="0 0 107 106" fill="none" xmlns="http://www.w3.org/2000/svg">
<g clip-path="url(#clip0_135_106)">
<path d="M106.119 12.9872L93.4855 0.936599C93.0063 0.473863 92.5075 1.52588e-05 91.5824 1.52588e-05H40.9831C40.2727 1.48748e-05 39.5913 0.282125 39.0887 0.784427C38.586 1.28673 38.3033 1.9681 38.3025 2.67883V10.9133L20.4692 13.9796C19.7818 14.1022 19.1707 14.4914 18.7689 15.0625C18.367 15.6337 18.2069 16.3406 18.3236 17.0292L19.2292 22.3089C13.4333 24.2602 7.48151 26.27 1.73583 28.3356C1.08198 28.5771 0.549382 29.0663 0.253213 29.6975C-0.0429568 30.3286 -0.0789463 31.0511 0.153074 31.7086L11.5776 63.4868C11.6869 63.7903 11.8871 64.0526 12.1509 64.2382C12.4147 64.4237 12.7292 64.5235 13.0516 64.5238C13.233 64.5245 13.4132 64.4933 13.5839 64.4318C13.7775 64.362 13.9555 64.2547 14.1077 64.116C14.2599 63.9773 14.3832 63.81 14.4707 63.6236C14.5582 63.4372 14.6081 63.2354 14.6175 63.0296C14.6269 62.8239 14.5957 62.6184 14.5256 62.4248L3.26838 31.1092C8.67969 29.1579 14.2861 27.2736 19.7643 25.4282L25.1504 56.8385L31.3503 93.0211C31.4601 93.6339 31.7818 94.1886 32.2591 94.5881C32.7364 94.9876 33.3389 95.2065 33.9612 95.2066C34.1068 95.2056 34.2521 95.1934 34.3959 95.1703L51.1816 92.288L64.2974 90.0384L44.5721 97.1328L29.0152 102.727L16.922 69.1066C16.8523 68.9129 16.7451 68.7349 16.6066 68.5827C16.4682 68.4304 16.3011 68.307 16.1149 68.2194C15.9288 68.1318 15.7272 68.0817 15.5217 68.072C15.3162 68.0624 15.1108 68.0932 14.9172 68.163C14.7236 68.2327 14.5457 68.3399 14.3935 68.4785C14.2414 68.617 14.118 68.7841 14.0304 68.9704C13.9428 69.1566 13.8927 69.3583 13.883 69.5639C13.8734 69.7695 13.9042 69.975 13.9739 70.1686L26.2344 104.261C26.3514 104.586 26.5316 104.886 26.7646 105.141C26.9976 105.397 27.2788 105.604 27.5921 105.751C27.9053 105.898 28.2444 105.982 28.5901 105.997C28.9357 106.013 29.2809 105.96 29.606 105.841L45.6281 100.079L82.0109 86.9943L88.9631 85.8041H104.317C105.028 85.8019 105.709 85.5179 106.211 85.0143C106.714 84.5106 106.996 83.8284 106.997 83.1169V14.7546C106.997 13.8152 106.487 13.3357 106.117 12.9872H106.119ZM101.968 13.358H93.9286C93.5524 13.358 92.6747 13.358 92.4518 13.1434C92.3573 12.9809 92.3182 12.7921 92.3404 12.6054L92.3208 4.15346L101.968 13.358ZM103.865 82.6681H41.4429V52.108C41.4258 51.7036 41.2532 51.3214 40.9611 51.0413C40.669 50.7611 40.2801 50.6047 39.8755 50.6047C39.4709 50.6047 39.082 50.7611 38.7899 51.0413C38.4978 51.3214 38.3251 51.7036 38.3081 52.108V83.1141C38.3074 83.8263 38.5893 84.5097 39.0919 85.0141C39.5946 85.5184 40.2768 85.8026 40.9887 85.8041H70.422L50.6632 89.191L34.3653 91.9785L28.2518 56.2977L21.5085 16.9651L38.3137 14.0828V44.8213C38.3048 45.0328 38.3387 45.2438 38.4134 45.4418C38.4882 45.6399 38.6022 45.8207 38.7486 45.9735C38.8951 46.1263 39.0709 46.2479 39.2655 46.3309C39.4601 46.414 39.6695 46.4568 39.8811 46.4568C40.0926 46.4568 40.302 46.414 40.4966 46.3309C40.6912 46.2479 40.867 46.1263 41.0135 45.9735C41.1599 45.8207 41.274 45.6399 41.3487 45.4418C41.4235 45.2438 41.4574 45.0328 41.4484 44.8213V3.13324H89.1944L89.2167 12.611C89.1931 13.1177 89.2728 13.6239 89.451 14.0989C89.6292 14.5738 89.9021 15.0074 90.2532 15.3734C91.3121 16.4243 92.8084 16.4884 93.7363 16.4884H103.86L103.865 82.6681Z" fill="url(#paint0_linear_135_106)"/>
<path d="M48.9915 24.3466C48.9922 24.7624 49.1579 25.1608 49.452 25.4546C49.7461 25.7483 50.1448 25.9133 50.5603 25.9133H95.3721C95.5835 25.9222 95.7945 25.8882 95.9924 25.8134C96.1903 25.7386 96.3711 25.6246 96.5238 25.4781C96.6766 25.3316 96.7981 25.1558 96.8811 24.9611C96.9641 24.7664 97.007 24.5569 97.007 24.3452C97.007 24.1336 96.9641 23.9241 96.8811 23.7294C96.7981 23.5347 96.6766 23.3589 96.5238 23.2124C96.3711 23.0659 96.1903 22.9519 95.9924 22.8771C95.7945 22.8023 95.5835 22.7683 95.3721 22.7772H50.5603C50.1443 22.7772 49.7451 22.9426 49.4509 23.2369C49.1567 23.5312 48.9915 23.9304 48.9915 24.3466Z" fill="url(#paint1_linear_135_106)"/>
<path d="M95.3721 33.9247H50.5603C50.349 33.9158 50.1379 33.9498 49.9399 34.0246C49.742 34.0993 49.5612 34.2134 49.4085 34.3599C49.2558 34.5063 49.1342 34.6822 49.0512 34.8769C48.9682 35.0716 48.9253 35.2811 48.9253 35.4927C48.9253 35.7044 48.9682 35.9139 49.0512 36.1086C49.1342 36.3032 49.2558 36.4791 49.4085 36.6256C49.5612 36.7721 49.742 36.8861 49.9399 36.9609C50.1379 37.0357 50.349 37.0696 50.5603 37.0607H95.3721C95.5835 37.0696 95.7945 37.0357 95.9924 36.9609C96.1903 36.8861 96.3711 36.7721 96.5238 36.6256C96.6766 36.4791 96.7981 36.3032 96.8811 36.1086C96.9641 35.9139 97.007 35.7044 97.007 35.4927C97.007 35.2811 96.9641 35.0716 96.8811 34.8769C96.7981 34.6822 96.6766 34.5063 96.5238 34.3599C96.3711 34.2134 96.1903 34.0993 95.9924 34.0246C95.7945 33.9498 95.5835 33.9158 95.3721 33.9247Z" fill="url(#paint2_linear_135_106)"/>
<path d="M95.3721 45.0554H50.5603C50.349 45.0465 50.1379 45.0805 49.9399 45.1553C49.742 45.2301 49.5612 45.3441 49.4085 45.4906C49.2558 45.6371 49.1342 45.8129 49.0512 46.0076C48.9682 46.2023 48.9253 46.4118 48.9253 46.6234C48.9253 46.8351 48.9682 47.0446 49.0512 47.2393C49.1342 47.434 49.2558 47.6098 49.4085 47.7563C49.5612 47.9028 49.742 48.0169 49.9399 48.0917C50.1379 48.1665 50.349 48.2004 50.5603 48.1915H95.3721C95.5835 48.2004 95.7945 48.1665 95.9924 48.0917C96.1903 48.0169 96.3711 47.9028 96.5238 47.7563C96.6766 47.6098 96.7981 47.434 96.8811 47.2393C96.9641 47.0446 97.007 46.8351 97.007 46.6234C97.007 46.4118 96.9641 46.2023 96.8811 46.0076C96.7981 45.8129 96.6766 45.6371 96.5238 45.4906C96.3711 45.3441 96.1903 45.2301 95.9924 45.1553C95.7945 45.0805 95.5835 45.0465 95.3721 45.0554Z" fill="url(#paint3_linear_135_106)"/>
<path d="M95.3721 56.1973H50.5603C50.349 56.1884 50.1379 56.2224 49.9399 56.2972C49.742 56.372 49.5612 56.486 49.4085 56.6325C49.2558 56.779 49.1342 56.9549 49.0512 57.1496C48.9682 57.3443 48.9253 57.5537 48.9253 57.7654C48.9253 57.977 48.9682 58.1865 49.0512 58.3812C49.1342 58.5759 49.2558 58.7518 49.4085 58.8983C49.5612 59.0448 49.742 59.1588 49.9399 59.2336C50.1379 59.3084 50.349 59.3423 50.5603 59.3334H95.3721C95.5835 59.3423 95.7945 59.3084 95.9924 59.2336C96.1903 59.1588 96.3711 59.0448 96.5238 58.8983C96.6766 58.7518 96.7981 58.5759 96.8811 58.3812C96.9641 58.1865 97.007 57.977 97.007 57.7654C97.007 57.5537 96.9641 57.3443 96.8811 57.1496C96.7981 56.9549 96.6766 56.779 96.5238 56.6325C96.3711 56.486 96.1903 56.372 95.9924 56.2972C95.7945 56.2224 95.5835 56.1884 95.3721 56.1973Z" fill="url(#paint4_linear_135_106)"/>
<path d="M95.3721 67.3365H50.5603C50.349 67.3276 50.1379 67.3615 49.9399 67.4363C49.742 67.5111 49.5612 67.6251 49.4085 67.7716C49.2558 67.9181 49.1342 68.094 49.0512 68.2887C48.9682 68.4834 48.9253 68.6929 48.9253 68.9045C48.9253 69.1162 48.9682 69.3256 49.0512 69.5203C49.1342 69.715 49.2558 69.8909 49.4085 70.0374C49.5612 70.1839 49.742 70.2979 49.9399 70.3727C50.1379 70.4475 50.349 70.4814 50.5603 70.4725H95.3721C95.5835 70.4814 95.7945 70.4475 95.9924 70.3727C96.1903 70.2979 96.3711 70.1839 96.5238 70.0374C96.6766 69.8909 96.7981 69.715 96.8811 69.5203C96.9641 69.3256 97.007 69.1162 97.007 68.9045C97.007 68.6929 96.9641 68.4834 96.8811 68.2887C96.7981 68.094 96.6766 67.9181 96.5238 67.7716C96.3711 67.6251 96.1903 67.5111 95.9924 67.4363C95.7945 67.3615 95.5835 67.3276 95.3721 67.3365Z" fill="url(#paint5_linear_135_106)"/>
</g>
<defs>
<linearGradient id="paint0_linear_135_106" x1="-1.19277" y1="53" x2="100.552" y2="53" gradientUnits="userSpaceOnUse">
<stop stop-color="#08AC9E"/>
<stop offset="0.85" stop-color="#FF621F"/>
</linearGradient>
<linearGradient id="paint1_linear_135_106" x1="48.9915" y1="24.3466" x2="96.9409" y2="24.3466" gradientUnits="userSpaceOnUse">
<stop stop-color="#08AC9E"/>
<stop offset="1"/>
</linearGradient>
<linearGradient id="paint2_linear_135_106" x1="48.9914" y1="35.4858" x2="96.9409" y2="35.4858" gradientUnits="userSpaceOnUse">
<stop stop-color="#08AC9E"/>
<stop offset="1"/>
</linearGradient>
<linearGradient id="paint3_linear_135_106" x1="48.9914" y1="46.6248" x2="96.9409" y2="46.6248" gradientUnits="userSpaceOnUse">
<stop stop-color="#08AC9E"/>
<stop offset="1"/>
</linearGradient>
<linearGradient id="paint4_linear_135_106" x1="48.9914" y1="57.764" x2="96.9409" y2="57.764" gradientUnits="userSpaceOnUse">
<stop stop-color="#08AC9E"/>
<stop offset="1"/>
</linearGradient>
<linearGradient id="paint5_linear_135_106" x1="48.9914" y1="68.9031" x2="96.9409" y2="68.9031" gradientUnits="userSpaceOnUse">
<stop stop-color="#08AC9E"/>
<stop offset="1"/>
</linearGradient>
<clipPath id="clip0_135_106">
<rect width="107" height="106" fill="white"/>
</clipPath>
</defs>
</svg>
