<svg width="12" height="12" viewBox="0 0 12 12" fill="none" xmlns="http://www.w3.org/2000/svg">
<path d="M6.865 1.75501L7.745 3.51501C7.865 3.76001 8.185 3.99501 8.455 4.04001L10.05 4.30501C11.07 4.47501 11.31 5.21501 10.575 5.94501L9.335 7.18501C9.125 7.39501 9.01 7.80001 9.075 8.09001L9.43 9.62501C9.71 10.84 9.065 11.31 7.99 10.675L6.495 9.79001C6.225 9.63001 5.78 9.63001 5.505 9.79001L4.01 10.675C2.94 11.31 2.29 10.835 2.57 9.62501L2.925 8.09001C2.99 7.80001 2.875 7.39501 2.665 7.18501L1.425 5.94501C0.695 5.21501 0.93 4.47501 1.95 4.30501L3.545 4.04001C3.81 3.99501 4.13 3.76001 4.25 3.51501L5.13 1.75501C5.61 0.800007 6.39 0.800007 6.865 1.75501Z" fill="#08AC9E"/>
</svg>
