<svg width="309" height="279" viewBox="0 0 309 279" fill="none" xmlns="http://www.w3.org/2000/svg">
<g clip-path="url(#clip0_230_108)">
<path d="M2.28281 73.7812C4.26003 71.5155 16.6906 78.845 32.9643 91.3433L49.4648 89.2683C47.654 87.3894 46.8924 85.2637 47.7795 84.192C48.8159 82.9219 51.7213 83.5646 54.2681 85.6251C55.2269 86.386 56.0409 87.3122 56.6716 88.3598L71.9649 86.4392C69.5656 84.4026 68.4375 81.8205 69.4469 80.5859C70.4564 79.3513 73.3878 79.9554 75.9356 82.019C77.1546 82.9576 78.1205 84.1834 78.7467 85.5868L96.8019 83.3179L103.274 88.5606L69.7973 100.08L57.0153 111.265C69.5664 122.383 80.0377 132.836 86.5219 140.505L103.988 138.362L107.143 141.761L93.7105 150.838L97.1022 155.849L91.6619 153.63L85.7105 168.025L81.7276 165.642L80.206 147.448C71.8076 142.187 60.2295 133.533 47.7033 122.977L39.8942 136.729L35.4107 171.74L28.9391 166.497L27.4818 148.403C25.9758 148.084 24.5743 147.396 23.4042 146.4C20.8564 144.336 19.6335 141.632 20.6699 140.362C21.7064 139.092 24.4466 139.709 26.9354 141.634L25.7031 126.308C24.5451 125.911 23.4689 125.31 22.526 124.532C19.9782 122.468 18.7563 119.768 19.7918 118.495C20.6761 117.414 22.9071 117.726 25.1149 119.114L23.6977 101.268C9.19152 87.1057 0.324759 76.0309 2.28281 73.7812Z" fill="#374A63"/>
<path d="M77.8321 86.0422C77.3445 84.6384 76.4469 83.4127 75.2545 82.5225C74.0621 81.6324 72.6293 81.1183 71.1401 81.0465C72.5681 81.306 73.9156 81.8922 75.0767 82.759C76.2378 83.6258 77.181 84.7497 77.8321 86.0422V86.0422Z" fill="white"/>
<path d="M55.5422 89.1493C54.8484 87.9526 53.8684 86.9461 52.6893 86.2191C51.5103 85.4921 50.1687 85.0672 48.7839 84.9822C51.4592 85.5361 53.8517 87.0113 55.5422 89.1493Z" fill="white"/>
<path d="M21.4571 119.25C19.7698 120.668 22.8084 123.26 24.0327 123.984C24.6095 124.334 25.2302 124.607 25.8789 124.795C24.4779 124.212 19.8201 120.95 21.4738 119.249L21.4571 119.25Z" fill="white"/>
<path d="M21.5363 140.989C21.9237 142.342 22.6594 143.569 23.6703 144.548C24.6813 145.528 25.9323 146.227 27.2991 146.575C24.7281 145.522 22.6644 143.522 21.5363 140.989V140.989Z" fill="white"/>
<path d="M4.92731 75.8362C10.088 83.5511 16.2979 90.5135 23.3796 96.5246L24.8075 97.7098L23.429 96.4722C16.5739 90.2388 10.3747 83.3245 4.92731 75.8362V75.8362Z" fill="white"/>
<path d="M80.5775 145.514C70.7527 137.887 60.9225 129.899 51.4775 121.837C60.7347 130.255 70.4493 138.159 80.5775 145.514V145.514Z" fill="white"/>
<path d="M296.15 163.389C295.741 186.879 277.074 206.577 256.128 217.377C243.08 224.107 228.394 228.415 213.794 226.998C199.194 225.582 184.8 217.77 177.839 204.912C170.879 192.053 172.989 174.229 184.334 164.953C186.457 163.22 188.971 161.759 191.711 161.657C198.389 161.405 202.659 169.148 202.587 175.81C202.423 190.19 189.93 201.94 176.352 206.86C146.165 217.801 108.739 199.449 99.0497 168.961" stroke="#374A63" stroke-width="2" stroke-miterlimit="10" stroke-linecap="round" stroke-dasharray="12 12"/>
</g>
<defs>
<clipPath id="clip0_230_108">
<rect width="258.344" height="212.754" fill="white" transform="matrix(-0.957751 0.287599 0.287599 0.957751 247.429 0)"/>
</clipPath>
</defs>
</svg>
