<svg width="367" height="283" viewBox="0 0 367 283" fill="none" xmlns="http://www.w3.org/2000/svg">
<g clip-path="url(#clip0_304_132)">
<path d="M155.059 210.812C154.742 210.502 154.427 210.227 154.111 209.972L154.343 209.651C154.401 209.568 154.285 209.472 154.206 209.543C154.126 209.615 154.018 209.728 153.939 209.813C147.988 205.207 142.678 210.636 137.458 214.421C134.928 216.256 132.619 217.843 129.387 217.901C126.552 217.951 124.402 216.869 121.825 215.827C119.88 215.006 117.857 214.38 115.787 213.958C114.934 213.545 114.05 213.201 113.141 212.93C116.645 208.315 120.125 203.679 123.524 198.988C125.839 195.769 129.737 191.954 129.846 187.724C129.919 184.879 127.946 182.946 125.171 182.426C121.385 181.726 117.907 184.28 115.018 186.337C110.53 189.532 105.875 192.535 101.501 195.887C97.4714 198.976 93.0797 202.052 89.352 205.463C87.9514 205.059 86.5478 204.745 85.2612 204.441C85.0486 204.395 84.8263 204.434 84.642 204.55C84.341 204.569 84.0456 204.64 83.7696 204.762C83.711 204.708 83.6443 204.664 83.5719 204.632C77.166 202.093 70.5185 200.207 63.7305 199.001C58.735 198.124 53.0464 196.844 48.0778 198.378C47.0276 198.718 46.0294 199.186 44.9916 199.564C42.9022 200.322 40.8502 200.277 38.7196 200.776C37.4997 201.061 36.2753 201.366 35.3378 202.273C34.9868 202.589 34.7089 202.977 34.5238 203.411C34.3386 203.845 34.2507 204.314 34.2659 204.785C34.2057 204.841 34.1658 204.915 34.1529 204.996C34.1399 205.077 34.1546 205.16 34.1945 205.232C34.2667 205.357 34.3539 205.473 34.4304 205.6C34.5585 205.916 34.7424 206.206 34.9733 206.458C40.0425 213.988 49.3094 217.69 57.6212 220.573C62.6225 222.298 67.72 223.742 72.8594 225.031C72.7659 225.463 72.6618 225.895 72.5704 226.323C72.1024 227.533 71.8778 228.893 71.5728 230.082C69.8233 229.128 67.9975 228.32 66.1142 227.665C65.7687 227.023 65.2039 226.527 64.5221 226.265C64.0046 226.039 63.4293 225.977 62.8748 226.089C62.3203 226.201 61.8137 226.481 61.4242 226.891C57.5987 227.945 53.7719 238.711 59.0123 239.788C59.3239 239.854 59.6443 239.869 59.961 239.833C62.6078 241.202 66.2529 241.656 68.7865 241.964L68.8492 241.972C66.9755 245.2 69.1161 249.004 73.2968 247.408C76.0487 246.358 77.9462 243.194 79.8707 241.107C83.1994 237.479 86.6442 233.958 90.2734 230.625C90.2977 230.615 90.3206 230.601 90.3418 230.585C90.3706 230.576 90.3817 230.533 90.4063 230.511C90.457 230.515 90.5078 230.508 90.5551 230.49C90.6025 230.471 90.645 230.442 90.6796 230.405C90.7796 230.299 90.867 230.186 90.9595 230.078C91.24 229.787 91.5646 229.554 91.8345 229.252L93.8479 229.658C105.693 232.092 117.8 234.1 129.941 233.457C132.645 233.316 135.34 233.033 138.014 232.608C139.989 232.293 142.918 232.262 144.61 231.009C145.5 230.35 145.901 229.533 145.752 228.745C147.759 229.231 149.827 229.719 151.699 229.709C154.656 229.687 154.838 227.462 152.669 225.593C151.243 224.365 149.185 223.68 147.201 223.158C148.27 221.729 149.284 220.258 150.282 218.775C150.592 218.914 150.906 219.052 151.222 219.176C151.339 219.222 151.425 219.029 151.311 218.971C151.025 218.82 150.732 218.678 150.438 218.548C152.01 216.201 153.546 213.82 155.169 211.524C155.234 211.411 155.259 211.278 155.239 211.149C155.219 211.019 155.155 210.901 155.059 210.812Z" fill="white"/>
<path d="M40.6737 201.481C40.4942 201.369 40.2955 201.293 40.0876 201.254C39.8872 201.177 39.6718 201.145 39.4574 201.161C39.243 201.178 39.0348 201.242 38.8481 201.348C38.7841 201.369 38.7452 201.435 38.6874 201.475C38.4529 201.588 38.2323 201.728 38.0301 201.892C37.8162 202.07 37.6256 202.274 37.4626 202.499L37.4465 202.504C36.9543 202.772 36.547 203.172 36.2706 203.658C35.9942 204.145 35.8598 204.699 35.8828 205.257C35.9017 205.796 36.0709 206.319 36.3716 206.767C36.7148 207.259 37.7321 207.801 37.7793 208.428C37.7959 208.616 37.8695 208.794 37.9901 208.939C38.1106 209.084 38.2725 209.189 38.4543 209.24C38.6362 209.291 38.8295 209.285 39.0084 209.224C39.1872 209.163 39.3432 209.049 39.4559 208.898C39.8909 208.564 40.2603 208.152 40.5453 207.684C41.17 206.655 41.5419 205.492 41.6301 204.293C41.7292 203.277 41.6257 202.072 40.6737 201.481Z" fill="#FF9933"/>
<path d="M75.8919 243.393C76.3227 242.954 75.9916 242.303 75.4909 242.154C73.7567 241.597 71.9275 241.394 70.1119 241.557C70.0029 241.563 69.8967 241.594 69.8016 241.647C69.7065 241.701 69.6252 241.776 69.5639 241.866C69.5027 241.956 69.4631 242.059 69.4485 242.167C69.4339 242.275 69.4444 242.385 69.4795 242.488C69.1458 242.55 68.8691 242.897 69.1285 243.251C69.142 243.292 69.1885 243.316 69.2148 243.353C69.8753 244.24 70.8134 244.881 71.8807 245.175C71.9079 245.191 71.9361 245.206 71.9653 245.218C72.0604 245.319 72.1809 245.394 72.3143 245.434C72.4478 245.474 72.5896 245.477 72.7251 245.445L74.2187 245.131C74.2816 245.238 74.3688 245.329 74.4736 245.396C74.5783 245.463 74.6976 245.505 74.8216 245.518C74.9456 245.531 75.0709 245.514 75.1874 245.47C75.3038 245.425 75.4082 245.354 75.4921 245.262C75.6899 245.042 75.8752 244.817 76.0593 244.588C76.1352 244.502 76.1912 244.4 76.2235 244.29C76.2558 244.18 76.2634 244.065 76.246 243.952C76.2286 243.839 76.1866 243.731 76.1228 243.636C76.059 243.541 75.9751 243.461 75.8769 243.402L75.8919 243.393Z" fill="#FF9933"/>
<path d="M128.321 188.673C128.266 188.645 128.209 188.621 128.157 188.592C128.251 188.491 128.318 188.367 128.352 188.233C128.497 187.679 128.486 187.096 128.319 186.548C128.153 186.001 127.837 185.51 127.408 185.131C127.312 185.041 127.195 184.977 127.068 184.945C126.499 184.435 125.816 184.069 125.075 183.879C125.099 183.772 125.097 183.66 125.068 183.553C125.039 183.447 124.984 183.35 124.908 183.27C124.832 183.19 124.737 183.129 124.632 183.095C124.528 183.06 124.416 183.051 124.307 183.07C122.287 183.299 120.302 183.771 118.395 184.475C117.796 184.701 117.581 185.688 118.275 185.964C119.875 186.601 121.476 187.236 123.077 187.87C123.509 188.037 125.262 188.545 126.505 189.085C126.466 189.158 126.448 189.24 126.451 189.322C126.455 189.405 126.481 189.485 126.526 189.554C126.739 189.834 127.013 190.062 127.327 190.221C127.641 190.381 127.986 190.469 128.339 190.477C128.476 190.469 128.605 190.407 128.697 190.305C128.79 190.203 128.839 190.069 128.834 189.932C128.832 189.629 128.736 189.334 128.561 189.086C128.569 189.001 128.55 188.915 128.507 188.841C128.464 188.767 128.399 188.708 128.321 188.673Z" fill="#FF9933"/>
<path d="M152.656 210.405C150.765 208.936 148.025 209.082 145.776 209.302C145.628 209.316 145.487 209.372 145.369 209.462C145.251 209.552 145.16 209.673 145.106 209.811C144.096 210.275 143.166 210.899 142.354 211.658C142.315 211.703 142.286 211.755 142.267 211.811C142.249 211.868 142.243 211.927 142.248 211.986C142.254 212.045 142.271 212.102 142.299 212.154C142.328 212.206 142.366 212.251 142.413 212.288C142.41 212.313 142.414 212.339 142.425 212.361C142.437 212.384 142.454 212.403 142.476 212.416C144.49 213.77 146.622 214.94 148.846 215.913C148.856 216.014 148.9 216.11 148.972 216.182C149.044 216.255 149.139 216.3 149.24 216.311C149.83 216.377 150.403 216.551 150.93 216.822C151.025 216.861 151.128 216.873 151.229 216.856C151.329 216.839 151.424 216.795 151.5 216.727C151.577 216.66 151.633 216.572 151.662 216.475C151.691 216.377 151.692 216.273 151.665 216.175C151.733 216.122 151.791 216.058 151.838 215.985C152.87 214.311 154.71 211.987 152.656 210.405Z" fill="#FF9933"/>
<path d="M155.059 210.812C154.742 210.502 154.427 210.227 154.111 209.972L154.343 209.651C154.401 209.568 154.285 209.472 154.206 209.543C154.126 209.615 154.018 209.728 153.939 209.813C147.988 205.207 142.678 210.636 137.458 214.421C134.928 216.256 132.619 217.843 129.387 217.901C126.552 217.951 124.402 216.869 121.825 215.827C119.88 215.006 117.857 214.38 115.787 213.958C114.934 213.545 114.05 213.201 113.141 212.93C116.645 208.315 120.125 203.679 123.524 198.988C125.839 195.769 129.737 191.954 129.846 187.724C129.919 184.879 127.946 182.946 125.171 182.426C121.385 181.726 117.907 184.28 115.018 186.337C110.53 189.532 105.875 192.535 101.501 195.887C97.4714 198.976 93.0797 202.052 89.352 205.463C87.9514 205.059 86.5478 204.745 85.2612 204.441C85.0475 204.396 84.824 204.435 84.6387 204.551C84.3399 204.569 84.0467 204.64 83.7728 204.761C83.7123 204.709 83.6446 204.665 83.5719 204.632C77.166 202.093 70.5185 200.207 63.7305 199.001C58.735 198.124 53.0464 196.844 48.0778 198.378C47.0276 198.718 46.0294 199.186 44.9916 199.564C42.9022 200.322 40.8502 200.277 38.7196 200.776C37.4997 201.061 36.2753 201.366 35.3378 202.273C34.9864 202.588 34.7083 202.977 34.5232 203.411C34.338 203.845 34.2502 204.314 34.2659 204.785C34.2057 204.841 34.1658 204.915 34.1529 204.996C34.1399 205.077 34.1546 205.16 34.1945 205.232C34.2667 205.357 34.3539 205.473 34.4304 205.6C34.5571 205.917 34.7411 206.207 34.9733 206.458C40.0425 213.988 49.3094 217.69 57.6212 220.573C62.6225 222.298 67.72 223.742 72.8594 225.031C72.7659 225.463 72.6618 225.895 72.5704 226.323C72.1024 227.533 71.8778 228.893 71.5728 230.082C69.8233 229.128 67.9975 228.32 66.1142 227.665C65.7687 227.023 65.2039 226.527 64.5221 226.265C64.0046 226.039 63.4293 225.977 62.8748 226.089C62.3203 226.201 61.8137 226.481 61.4242 226.891C57.5987 227.945 53.7719 238.711 59.0123 239.788C59.3239 239.854 59.6443 239.869 59.961 239.833C62.6078 241.202 66.2529 241.656 68.7865 241.964L68.8492 241.972C66.9755 245.2 69.1161 249.004 73.2968 247.408C76.0487 246.358 77.9462 243.194 79.8707 241.107C83.1994 237.479 86.6442 233.958 90.2734 230.625C90.2977 230.615 90.3206 230.601 90.3418 230.585C90.3706 230.576 90.3817 230.533 90.4063 230.511C90.457 230.515 90.5078 230.508 90.5551 230.49C90.6025 230.471 90.645 230.442 90.6796 230.405C90.7796 230.299 90.867 230.186 90.9595 230.078C91.24 229.787 91.5646 229.554 91.8345 229.252L93.8479 229.658C105.693 232.092 117.8 234.1 129.941 233.457C132.645 233.316 135.34 233.033 138.014 232.608C139.989 232.293 142.918 232.262 144.61 231.009C145.5 230.35 145.901 229.533 145.752 228.745C147.759 229.231 149.824 229.72 151.699 229.709C154.656 229.687 154.838 227.462 152.669 225.593C151.243 224.365 149.185 223.68 147.201 223.158C148.27 221.729 149.284 220.258 150.282 218.775C150.592 218.914 150.906 219.052 151.222 219.176C151.339 219.222 151.425 219.029 151.311 218.971C151.025 218.82 150.732 218.678 150.438 218.548C152.01 216.201 153.546 213.82 155.169 211.524C155.234 211.411 155.259 211.278 155.239 211.149C155.219 211.019 155.155 210.901 155.059 210.812ZM120.158 202.631C117.546 206.027 114.926 209.495 112 212.629C111.115 213.59 110.155 214.48 109.13 215.29C108.107 214.972 106.1 214.465 105.689 214.059C104.377 212.758 105.522 210.264 106.248 209.052C107.839 206.396 110.147 204.094 112.26 201.847L112.49 201.596C112.486 201.605 112.485 201.614 112.488 201.623C112.491 201.632 112.497 201.64 112.505 201.644C114.595 202.506 116.7 203.401 118.839 204.141C118.982 204.19 119.034 203.979 118.903 203.923C116.817 203.053 114.653 202.324 112.523 201.578C112.52 201.576 112.516 201.574 112.511 201.574C112.507 201.573 112.503 201.573 112.499 201.575C112.495 201.576 112.491 201.578 112.488 201.581C112.485 201.584 112.483 201.588 112.481 201.592C114.726 199.151 125.217 187.389 127.8 191.381C127.82 191.406 127.841 191.428 127.864 191.449C127.761 191.729 127.65 192.012 127.515 192.303C125.817 195.963 122.613 199.441 120.158 202.631ZM105.517 193.758C108.641 191.262 111.896 188.933 115.268 186.782C117.132 185.589 119.087 184.254 121.28 183.749C126.137 182.625 129.346 185.862 128.164 190.516C125.724 186.858 119.247 194.661 117.73 196.094C112.537 200.999 105.723 206.623 103.996 213.866C103.974 213.943 103.984 214.025 104.022 214.095C104.061 214.165 104.125 214.217 104.202 214.24C105.736 214.717 107.256 215.174 108.818 215.529C106.155 217.582 102.886 218.697 99.5226 218.7C97.705 218.735 95.8619 218.647 94.0214 218.512C95.5785 218.241 96.8172 217.763 97.3443 217.052C99.0419 214.767 98.2359 211.501 96.5465 209.473C95.1253 207.771 93.0662 206.698 90.8722 205.93C91.5405 205.361 92.2314 204.764 92.9075 204.153C97.5648 201.559 101.628 196.89 105.517 193.758ZM83.011 206.418C83.3292 206.188 83.776 206.203 84.3585 206.483C83.9899 206.715 83.6901 207.041 83.4898 207.427C82.8974 208.515 80.5726 212.753 81.527 214.412C81.3988 214.312 81.294 214.185 81.2197 214.04C81.1454 213.896 81.1033 213.737 81.0967 213.574C81.107 213.43 81.128 213.286 81.1594 213.145C81.1682 212.669 81.2194 212.194 81.3123 211.727C81.5893 209.905 82.2739 208.294 82.9816 206.601C83.0062 206.543 83.0163 206.481 83.011 206.418ZM85.673 207.43C85.6456 207.168 85.5636 206.914 85.4322 206.686C86.6402 206.648 87.1069 207.248 86.837 208.545C86.8532 209.041 86.8045 209.537 86.6921 210.021C86.5117 211.129 86.1484 212.2 85.617 213.19C84.9038 214.561 84.9001 214.833 83.5884 214.704C83.8256 214.478 84.0209 214.212 84.1652 213.918C84.2596 213.835 84.3312 213.729 84.3733 213.611C84.4566 213.354 84.5251 213.096 84.5989 212.832C85.4776 211.066 85.8834 208.91 85.673 207.43ZM84.5494 216.231C86.487 214.217 87.6822 210.511 87.3393 207.758C87.2758 207.263 87.144 206.778 86.9477 206.319C88.566 206.761 90.7549 207.623 91.215 207.798C93.8885 208.823 97.0579 210.845 96.9925 214.129C96.916 217.904 93.0879 217.224 90.4736 217.125C88.773 217.061 86.3776 216.983 84.3854 216.369C84.4401 216.319 84.4967 216.287 84.5494 216.231ZM90.0845 205.409C90.0243 205.475 89.9567 205.539 89.8975 205.607L89.6736 205.539L90.0845 205.409ZM57.919 235.076C58.1313 233.166 58.7306 231.319 59.6806 229.646C59.3263 230.548 59.0348 231.473 58.8083 232.415C58.7475 232.653 58.6928 232.921 58.6475 233.207C58.0445 235.519 57.879 238.243 60.5906 237.517C61.4493 237.285 62.0469 236.552 62.519 235.693C63.0759 234.899 63.5087 234.025 63.8024 233.101C64.1762 232.07 65.0786 230.05 65.2224 228.473L65.8761 228.755C66.3781 230.776 65.3754 233.502 64.4713 235.037C63.6991 236.345 62.5537 237.855 61.0125 238.35C58.6797 239.088 57.7838 236.976 57.919 235.076ZM65.4862 240.161C64.1853 239.902 62.7897 239.655 61.4355 239.296C64.4379 237.644 67.055 232.43 66.5416 229.03C67.7011 229.508 68.8661 229.97 70.007 230.49C71.1576 230.982 72.2738 231.551 73.3485 232.191L75.177 233.578C77.2518 235.275 77.2315 236.895 75.1158 238.438C73.294 241.027 73.0467 240.952 70.1569 240.844C68.584 240.741 67.0221 240.513 65.4862 240.161ZM74.6363 241.852C74.667 241.897 74.7047 241.936 74.7479 241.968C74.7539 241.992 74.7615 242.015 74.7707 242.038C74.6453 241.913 74.5282 241.792 74.4314 241.679L74.4827 241.662C74.543 241.717 74.5949 241.782 74.6363 241.852ZM74.8596 245.307C70.4558 245.275 68.6202 244.179 69.353 242.021C70.9324 242.19 72.7098 242.25 74.221 241.761C74.4266 242.236 74.7397 242.656 75.1356 242.99C75.5314 243.324 75.9993 243.562 76.5029 243.685C75.9816 244.25 75.4322 244.788 74.8565 245.298L74.8596 245.307ZM89.7407 229.909C89.7006 229.953 89.6707 230.006 89.653 230.064C86.7579 232.966 83.8501 235.851 81.0234 238.822C79.7315 240.185 78.4808 241.588 77.1899 242.955C77.1899 242.955 77.1816 242.93 77.1785 242.92C76.9388 242.774 76.6841 242.655 76.419 242.563C76.1352 242.417 75.8682 242.241 75.6228 242.037C75.5901 242.013 75.53 241.958 75.4572 241.897C75.3689 241.756 75.2945 241.606 75.2349 241.45C75.2001 241.419 75.1768 241.392 75.1473 241.366C75.9042 240.967 76.5292 240.358 76.9462 239.613C77.3891 238.862 77.6277 238.009 77.638 237.138C78.0056 236.755 78.3667 236.384 78.6775 236.033L78.912 235.763C80.0305 236.618 81.6039 237.096 82.961 236.6C82.9923 236.587 83.0179 236.563 83.0331 236.533C83.0482 236.503 83.052 236.468 83.0435 236.435C83.035 236.402 83.0149 236.373 82.9869 236.354C82.959 236.335 82.9249 236.326 82.8911 236.33C81.4667 236.53 80.2196 236.437 79.0487 235.606C81.0934 233.18 84.5216 228.603 87.6868 229.836C87.8522 229.899 87.9346 229.629 87.7661 229.567C86.4312 229.082 85.2859 229.347 84.1089 230.148C82.132 231.493 80.3954 233.505 78.7739 235.402C78.6767 235.331 78.5403 235.456 78.6353 235.542C78.2866 235.951 77.9434 236.355 77.6088 236.742C77.3927 234.304 75.1518 232.211 72.4723 230.577C72.5003 230.535 72.5223 230.488 72.5375 230.44C72.8416 229.128 73.3546 227.664 73.4691 226.258C73.5586 225.912 73.6513 225.564 73.745 225.22C79.321 226.59 84.9485 227.802 90.5585 228.949L89.7407 229.909ZM142.417 230.583C141.636 230.77 140.85 230.936 140.06 231.082C139.014 231.282 137.963 231.467 136.908 231.618C134.066 232.024 131.204 232.276 128.334 232.372C123.529 232.508 118.72 232.313 113.943 231.789C103.826 230.728 93.864 228.539 83.9463 226.356C67.8917 222.818 47.57 219.463 36.2022 206.462C36.1642 203.427 37.4408 201.983 40.067 202.174C40.6056 202.155 41.1402 202.112 41.6738 202.045C42.0841 201.98 42.47 201.904 42.8474 201.824C43.43 202.036 44.0267 202.207 44.6332 202.336C45.8374 202.581 47.0614 202.647 48.2692 202.849C48.4224 202.889 48.5827 202.895 48.7384 202.865C48.8941 202.835 49.041 202.771 49.1685 202.677C49.296 202.583 49.4008 202.461 49.4749 202.321C49.5491 202.182 49.5907 202.027 49.5968 201.869C49.615 201.533 49.5605 201.197 49.4372 200.884C49.3139 200.571 49.1247 200.288 48.8822 200.054C51.8465 199.377 54.6183 199.362 57.9727 199.726C66.3594 200.659 74.5888 202.668 82.4573 205.702C81.7949 206.509 81.2964 207.437 80.9895 208.434C79.9607 210.654 79.333 213.415 80.2568 215.395C80.4477 215.863 80.7654 216.268 81.1742 216.566C81.583 216.864 82.0667 217.043 82.5718 217.083C84.1452 218.108 87.1284 218.691 90.0355 218.766C96.8275 219.696 103.569 220.907 108.951 217.229C109.041 217.536 109.224 217.808 109.475 218.008C109.82 218.397 110.301 218.64 110.82 218.687C111.36 218.759 111.835 218.358 112.128 217.964C112.698 217.19 112.309 216.336 111.821 215.672C111.678 215.48 111.48 215.336 111.253 215.259C111.38 215.127 111.516 214.98 111.625 214.846C113.183 215.287 114.746 215.518 116.357 215.914C119.047 216.575 121.495 217.821 124.135 218.624C128.317 219.895 131.944 219.395 135.644 217.089C137.642 215.843 139.48 214.32 141.378 212.948C142.39 212.218 143.52 211.249 144.636 210.676C146.505 209.718 151.055 209.032 152.652 211.027C149.111 214.349 145.089 217.866 142.889 222.095C139.944 221.347 136.914 220.986 133.874 221.02C133.82 220.981 133.755 220.96 133.689 220.96C130.955 220.995 130.885 223.434 132.589 225.006C134.96 227.194 139.595 227.514 142.602 228.051C143.041 228.127 143.493 228.224 143.948 228.32L142.417 230.583ZM149.88 226.757C144.863 226.119 140.022 224.713 135.093 223.55C135.043 223.538 135.022 223.615 135.069 223.628C139.973 224.979 144.996 226.616 150.092 227.16C150.119 227.239 150.139 227.32 150.149 227.403C150.365 229.358 148.747 228.164 147.355 227.895C146.529 227.735 145.703 227.565 144.875 227.403C144.802 227.334 144.725 227.269 144.643 227.21C144.554 227.139 144.442 227.103 144.328 227.108C144.214 227.112 144.105 227.157 144.021 227.235C143.644 227.163 143.268 227.094 142.91 227.013C141.393 226.699 139.847 226.424 138.335 225.993L136.848 225.542C134.331 225.4 133.298 224.114 133.75 221.685C136.121 222.258 141.17 223.103 145.042 224.291C144.771 224.731 145.482 225.309 145.833 224.874L146.034 224.612C147.87 225.234 149.307 225.947 149.88 226.757ZM146.152 222.887C145.539 222.733 144.943 222.595 144.395 222.454C143.932 222.336 143.47 222.221 143.003 222.111C144.143 220.325 145.473 218.668 146.971 217.169C147.883 217.604 148.793 218.075 149.712 218.511C148.45 220.13 147.112 221.712 146.142 222.891L146.152 222.887ZM149.878 218.292C148.948 217.887 147.992 217.491 147.061 217.087L148.272 215.831C149.167 214.913 150.057 213.994 150.953 213.079C151.442 212.568 152.235 211.98 152.901 211.359C153.637 212.768 151.921 215.588 149.868 218.295L149.878 218.292Z" fill="#201306"/>
<path d="M54.2563 200.714C54.0105 200.715 53.766 200.75 53.5297 200.818C53.1824 200.922 52.8754 201.13 52.6508 201.415C52.4262 201.699 52.295 202.045 52.275 202.406C52.2898 202.31 52.3023 202.217 52.3181 202.124C52.257 202.303 52.2446 202.494 52.282 202.679C52.3156 202.98 52.4466 203.262 52.6552 203.482C52.6836 203.516 52.7163 203.551 52.7457 203.587C52.9493 203.799 53.2064 203.953 53.4902 204.032C53.774 204.111 54.074 204.112 54.3586 204.035C54.5935 203.976 54.8185 203.883 55.0263 203.759C55.3364 203.579 55.5797 203.303 55.7198 202.974C55.8599 202.644 55.8893 202.278 55.8035 201.931C55.7103 201.589 55.5097 201.287 55.2312 201.068C54.9527 200.849 54.6111 200.725 54.2563 200.714Z" fill="#201306"/>
<path d="M59.9702 202.345C59.8497 202.4 59.7329 202.463 59.6205 202.533C59.3848 202.681 59.2008 202.898 59.0938 203.154C58.9867 203.411 58.9619 203.694 59.0227 203.964C59.0733 204.193 59.1694 204.409 59.3051 204.599C59.4409 204.79 59.6138 204.951 59.8133 205.073C60.5983 205.652 61.8931 205.106 62.103 204.181L62.1351 204.04C62.208 203.758 62.197 203.46 62.1034 203.185C62.0098 202.909 61.8378 202.666 61.6082 202.487C61.3786 202.307 61.1015 202.198 60.8106 202.173C60.5197 202.148 60.2278 202.208 59.9702 202.345Z" fill="#201306"/>
<path d="M65.4403 203.323C65.252 203.407 65.0826 203.528 64.9423 203.678C64.802 203.829 64.694 204.007 64.6244 204.201C64.5548 204.394 64.5252 204.6 64.5375 204.805C64.5498 205.01 64.6038 205.211 64.696 205.394C64.8489 205.7 65.0991 205.947 65.4075 206.095C66.2842 206.542 67.5309 206.241 67.788 205.166C67.8653 204.887 67.8698 204.593 67.8014 204.312C67.566 203.234 66.3296 202.901 65.4403 203.323Z" fill="#201306"/>
<path d="M71.8913 204.434C71.1127 204.63 70.8034 205.379 70.9081 206.107C70.9754 206.451 71.1136 206.777 71.3139 207.065C71.51 207.395 71.8179 207.645 72.1821 207.768C72.5463 207.891 72.9428 207.881 73.3003 207.738C73.985 207.46 74.5088 206.642 74.249 205.883C73.8988 204.899 72.9845 204.161 71.8913 204.434Z" fill="#201306"/>
<path d="M78.9814 207.028C78.7251 206.961 78.454 206.978 78.2076 207.075C77.9611 207.173 77.7522 207.346 77.6111 207.57C77.5629 207.607 77.5137 207.64 77.4665 207.68C77.4106 207.729 77.3655 207.788 77.3344 207.855C77.3033 207.922 77.2867 207.994 77.2858 208.068C77.2849 208.142 77.2997 208.215 77.3292 208.282C77.3586 208.35 77.4022 208.41 77.4568 208.459C77.4975 208.675 77.5971 208.875 77.7446 209.038C77.8921 209.201 78.0818 209.319 78.2928 209.381C78.6062 209.464 78.9397 209.422 79.2233 209.265C79.5068 209.107 79.7181 208.846 79.8127 208.536C79.8968 208.226 79.8573 207.896 79.7022 207.614C79.5472 207.333 79.2888 207.123 78.9814 207.028Z" fill="#201306"/>
<path d="M117.691 217.306C117.264 217.304 116.853 217.47 116.545 217.767C116.238 218.064 116.06 218.47 116.048 218.896C116.048 219.322 116.214 219.73 116.51 220.035C116.807 220.34 117.212 220.518 117.638 220.53C118.066 220.532 118.477 220.367 118.784 220.069C119.09 219.772 119.268 219.367 119.278 218.941C119.277 218.516 119.112 218.108 118.816 217.804C118.52 217.499 118.117 217.32 117.691 217.306Z" fill="#201306"/>
<path d="M125.218 221.949C125.393 221.775 125.506 221.55 125.541 221.307C125.576 221.065 125.53 220.817 125.412 220.602C125.092 220.039 124.533 220.005 123.983 220.133L123.897 220.084C123.827 220.045 123.747 220.03 123.668 220.041C123.589 220.051 123.516 220.087 123.459 220.142C123.402 220.197 123.364 220.269 123.351 220.348C123.338 220.426 123.351 220.506 123.388 220.577C123.397 220.605 123.407 220.637 123.432 220.661C123.295 221.164 123.289 221.649 123.75 222.015C123.962 222.182 124.227 222.267 124.496 222.255C124.766 222.243 125.022 222.134 125.218 221.949Z" fill="#201306"/>
<path d="M125.567 228.842C125.57 228.676 125.546 228.511 125.498 228.353C125.479 228.32 125.452 228.292 125.419 228.273C125.386 228.254 125.348 228.244 125.31 228.244C125.159 228.268 125.015 228.325 124.89 228.412C124.764 228.499 124.66 228.614 124.585 228.747C124.376 229.11 124.306 229.536 124.387 229.947C124.531 230.863 126.099 230.451 125.78 229.584C125.678 229.346 125.607 229.097 125.567 228.842Z" fill="#201306"/>
<path d="M123.056 228.317C122.579 228.549 122.134 229.205 122.555 229.675C122.588 229.709 122.629 229.735 122.675 229.751C122.72 229.767 122.768 229.772 122.816 229.766C122.863 229.761 122.909 229.745 122.949 229.719C122.99 229.693 123.024 229.658 123.049 229.618C123.205 229.401 123.166 229.104 123.41 228.94C123.485 228.889 123.538 228.812 123.559 228.724C123.58 228.636 123.567 228.543 123.522 228.465C123.478 228.386 123.405 228.327 123.318 228.3C123.232 228.272 123.138 228.279 123.056 228.317Z" fill="#201306"/>
<path d="M121.107 228.504C120.918 228.565 120.718 228.581 120.522 228.552C120.487 228.552 120.454 228.562 120.425 228.581C120.396 228.6 120.374 228.627 120.36 228.658C120.347 228.69 120.343 228.724 120.349 228.758C120.355 228.792 120.371 228.823 120.394 228.847C120.524 228.958 120.686 229.024 120.856 229.038C121.026 229.051 121.196 229.01 121.342 228.922C121.641 228.807 121.387 228.374 121.107 228.504Z" fill="#201306"/>
<path d="M88.3794 224.6C88.3059 224.578 88.2279 224.577 88.1535 224.596C88.0791 224.614 88.011 224.652 87.9563 224.706C87.9015 224.76 87.8621 224.827 87.8421 224.901C87.8221 224.975 87.8222 225.053 87.8424 225.127C87.8463 225.21 87.8723 225.29 87.9179 225.36C87.9286 225.396 87.9474 225.43 87.9729 225.459C87.9984 225.487 88.0299 225.51 88.0652 225.525C88.1005 225.539 88.1386 225.546 88.1769 225.545C88.2152 225.543 88.2528 225.533 88.2868 225.515C88.3918 225.462 88.4891 225.395 88.5759 225.316C88.6287 225.262 88.6663 225.196 88.6853 225.123C88.7043 225.05 88.7039 224.974 88.6841 224.901C88.6642 224.829 88.6257 224.763 88.5722 224.71C88.5188 224.657 88.4522 224.619 88.3794 224.6Z" fill="#201306"/>
<path d="M86.795 223.289C86.6814 223.295 86.5688 223.314 86.4593 223.345C86.0975 223.462 86.3669 223.999 86.6412 223.797C86.7431 223.729 86.8358 223.648 86.917 223.556C86.988 223.47 86.9526 223.273 86.795 223.289Z" fill="#201306"/>
<path d="M88.5929 213.522C88.1505 213.608 87.8543 213.983 87.5841 214.317C87.4344 214.5 87.6226 214.852 87.8626 214.686C88.2321 214.429 88.6506 214.159 88.772 213.704C88.7788 213.679 88.779 213.652 88.7725 213.627C88.766 213.602 88.753 213.58 88.7349 213.561C88.7168 213.543 88.6941 213.529 88.6692 213.523C88.6442 213.516 88.618 213.515 88.5929 213.522Z" fill="#201306"/>
<path d="M89.7495 214.297C89.464 214.36 89.193 214.476 88.9513 214.64C88.9005 214.669 88.8633 214.716 88.8476 214.772C88.8319 214.828 88.8391 214.888 88.8677 214.939C88.8962 214.99 88.9438 215.027 88.9999 215.042C89.056 215.058 89.1161 215.051 89.1669 215.022C89.4335 214.903 89.6741 214.733 89.875 214.521C89.8949 214.5 89.9076 214.474 89.9112 214.445C89.9149 214.417 89.9092 214.388 89.8952 214.363C89.8811 214.338 89.8594 214.318 89.8331 214.306C89.8069 214.294 89.7776 214.291 89.7495 214.297Z" fill="#201306"/>
<path d="M90.6832 215.127C91.0462 214.914 91.3892 214.668 91.7083 214.393C91.7321 214.368 91.7463 214.335 91.7482 214.301C91.7502 214.266 91.74 214.232 91.7192 214.204C91.6984 214.176 91.6683 214.157 91.6345 214.149C91.6006 214.141 91.5651 214.145 91.534 214.161C91.181 214.365 90.8462 214.6 90.5335 214.862C90.3888 214.972 90.5331 215.243 90.6832 215.127Z" fill="#201306"/>
<path d="M65.7916 238.045C65.2987 238.085 64.8311 238.356 64.3345 238.439C64.0808 238.486 64.1688 238.845 64.3847 238.857C64.9405 238.924 65.6093 238.859 65.9809 238.389C66.0012 238.355 66.0123 238.316 66.013 238.277C66.0136 238.237 66.0039 238.198 65.9848 238.163C65.9657 238.128 65.9378 238.099 65.9039 238.078C65.87 238.058 65.8314 238.046 65.7916 238.045Z" fill="#201306"/>
<path d="M67.0829 238.745C66.9196 238.761 66.7587 238.795 66.6032 238.848C66.3663 238.924 66.467 239.301 66.7029 239.221C66.8612 239.175 67.0138 239.112 67.1579 239.031C67.2692 238.96 67.2426 238.736 67.0829 238.745Z" fill="#201306"/>
<path d="M68.7636 238.681C68.6403 238.705 68.5275 238.768 68.441 238.859C68.3545 238.95 68.2986 239.066 68.281 239.19C68.2778 239.212 68.2828 239.235 68.2951 239.254C68.3075 239.273 68.3264 239.287 68.3482 239.294C68.3701 239.3 68.3935 239.298 68.4141 239.288C68.4347 239.279 68.4511 239.262 68.4603 239.241C68.4912 239.155 68.541 239.076 68.6063 239.011C68.6715 238.946 68.7505 238.896 68.8374 238.865C68.8619 238.855 68.8815 238.836 68.8919 238.812C68.9023 238.788 68.9027 238.761 68.8929 238.736C68.8831 238.712 68.864 238.692 68.8397 238.682C68.8155 238.671 68.7881 238.671 68.7636 238.681Z" fill="#201306"/>
<path d="M47.7277 212.072C47.8657 212.295 48.0482 212.486 48.2638 212.636C48.281 212.645 48.3005 212.65 48.3201 212.648C48.3398 212.647 48.3587 212.64 48.3744 212.628C48.3901 212.616 48.4019 212.6 48.4086 212.582C48.4152 212.563 48.4163 212.543 48.4117 212.524C48.3362 212.273 48.2079 212.04 48.0353 211.842C47.8964 211.675 47.6145 211.886 47.7277 212.072Z" fill="#201306"/>
<path d="M50.1195 213.199L49.8218 213.295C49.5977 213.368 49.7657 213.702 49.9372 213.576L50.1943 213.386C50.2685 213.31 50.2304 213.17 50.1195 213.199Z" fill="#201306"/>
<path d="M51.7021 213.597C51.6675 213.6 51.6352 213.616 51.6116 213.641C51.5879 213.667 51.5745 213.7 51.5739 213.735C51.5733 213.77 51.5856 213.803 51.6084 213.829C51.6311 213.856 51.6628 213.873 51.6973 213.877C51.7319 213.874 51.764 213.858 51.7877 213.832C51.8113 213.807 51.8247 213.773 51.8253 213.739C51.8259 213.704 51.8137 213.67 51.7909 213.644C51.7682 213.618 51.7366 213.601 51.7021 213.597Z" fill="#201306"/>
<path d="M68.9095 219.068C68.7669 219.097 68.6317 219.154 68.5119 219.237C68.3921 219.319 68.2903 219.425 68.2123 219.547C68.0755 219.726 68.3774 219.97 68.5238 219.799C68.6723 219.635 68.8448 219.493 69.0353 219.38C69.0559 219.371 69.0745 219.359 69.0903 219.344C69.1062 219.328 69.1188 219.31 69.1275 219.29C69.1362 219.269 69.1407 219.247 69.1409 219.225C69.1412 219.203 69.1371 219.181 69.1289 219.161C69.1206 219.14 69.1084 219.122 69.0929 219.106C69.0775 219.09 69.0589 219.078 69.0385 219.069C69.0181 219.06 68.9964 219.056 68.9742 219.056C68.9521 219.055 68.93 219.06 68.9095 219.068Z" fill="#201306"/>
<path d="M70.1204 220.065C69.8453 220.229 69.5871 220.421 69.3499 220.636C69.172 220.775 69.4041 221.087 69.5863 220.951C69.8543 220.777 70.105 220.578 70.3347 220.356C70.3684 220.326 70.3897 220.284 70.3944 220.239C70.3991 220.194 70.3869 220.149 70.3601 220.113C70.3333 220.077 70.294 220.052 70.2496 220.043C70.2053 220.034 70.1592 220.042 70.1204 220.065Z" fill="#201306"/>
<path d="M71.1817 220.448C71.0332 220.475 70.8871 220.513 70.7445 220.562C70.5844 220.614 70.649 220.868 70.8261 220.814C70.9798 220.771 71.13 220.716 71.2756 220.651C71.39 220.589 71.297 220.411 71.1817 220.448Z" fill="#201306"/>
<path d="M76.014 219.368C76.1276 219.768 76.2848 220.155 76.4828 220.521C76.4969 220.544 76.5189 220.562 76.5448 220.57C76.5707 220.579 76.5988 220.578 76.624 220.568C76.6493 220.557 76.67 220.538 76.6825 220.514C76.695 220.49 76.6984 220.462 76.6922 220.436C76.612 220.041 76.4876 219.656 76.3212 219.289C76.2398 219.115 75.952 219.176 76.014 219.368Z" fill="#201306"/>
<path d="M78.2316 219.683C78.2668 219.442 77.9009 219.328 77.8603 219.574C77.8002 219.788 77.7883 220.012 77.8254 220.23C77.8625 220.449 77.9476 220.656 78.0747 220.838C78.0877 220.853 78.1048 220.863 78.1238 220.868C78.1427 220.873 78.1627 220.873 78.1814 220.867C78.2001 220.861 78.2167 220.85 78.229 220.834C78.2413 220.819 78.249 220.8 78.2509 220.781C78.2097 220.416 78.2032 220.049 78.2316 219.683Z" fill="#201306"/>
<path d="M104.015 206.932C104.046 206.948 104.081 206.953 104.115 206.946C104.149 206.939 104.179 206.92 104.201 206.893C104.222 206.866 104.233 206.832 104.233 206.797C104.232 206.763 104.219 206.73 104.196 206.704C103.987 206.486 103.758 206.287 103.512 206.11C103.341 205.975 103.091 206.208 103.261 206.35C103.494 206.567 103.746 206.762 104.015 206.932Z" fill="#201306"/>
<path d="M105.694 204.403C105.727 204.399 105.757 204.384 105.779 204.36C105.801 204.336 105.814 204.305 105.815 204.272C105.815 204.239 105.804 204.207 105.783 204.182C105.762 204.157 105.732 204.141 105.7 204.136C105.667 204.14 105.637 204.155 105.615 204.179C105.592 204.203 105.58 204.234 105.579 204.267C105.578 204.3 105.59 204.332 105.611 204.357C105.632 204.382 105.662 204.398 105.694 204.403Z" fill="#201306"/>
<path d="M108.965 201.055C108.942 200.819 108.914 200.581 108.888 200.346C108.861 200.111 108.546 200.178 108.601 200.379C108.655 200.58 108.723 200.844 108.782 201.079C108.806 201.177 108.978 201.16 108.965 201.055Z" fill="#201306"/>
<path d="M107.876 227.22C107.959 227.415 108.058 227.602 108.171 227.781C108.256 227.901 108.482 227.835 108.43 227.676C108.354 227.464 108.261 227.258 108.153 227.06C108.059 226.879 107.789 227.037 107.876 227.22Z" fill="#201306"/>
<path d="M110.488 226.22C110.351 226.014 110.018 226.199 110.154 226.409C110.341 226.739 110.645 226.987 111.008 227.103C111.092 227.135 111.154 227.02 111.096 226.961C110.871 226.733 110.668 226.485 110.488 226.22Z" fill="#201306"/>
<path d="M168.389 225.704C198.921 231.37 231.711 223.794 256.674 205.304C264.697 199.36 272.24 192.195 281.821 189.362C287.129 187.792 293.477 187.9 297.494 191.697C301.51 195.494 300.975 203.621 295.717 205.355C291.942 206.598 287.856 204.114 285.51 200.923C281.214 195.082 280.865 187.15 282.375 180.068C283.886 172.987 287.026 166.341 289.208 159.423C294.885 141.423 293.631 120.915 283.837 104.798C278.706 96.3564 271.513 89.3869 265.252 81.7485C258.991 74.1101 253.47 65.262 252.712 55.4122C252.228 49.1281 253.736 42.8057 256.262 37.0252C259.387 29.8845 264.019 23.4981 269.841 18.302C280.357 8.92618 294.116 4.00368 307.862 0.901668" stroke="#201306" stroke-width="1.54" stroke-miterlimit="10" stroke-linecap="round" stroke-dasharray="8.45 8.45"/>
</g>
<defs>
<clipPath id="clip0_304_132">
<rect width="323.571" height="191.894" fill="white" transform="translate(0 99.644) rotate(-17.9358)"/>
</clipPath>
</defs>
</svg>
