<svg width="60" height="45" viewBox="0 0 60 45" fill="none" xmlns="http://www.w3.org/2000/svg">
<g clip-path="url(#clip0_318_787)">
<path d="M52.0079 0.0303524C43.1991 -0.333686 34.1846 2.60924 25.6502 4.41719C22.8916 5.00149 20.133 5.53073 17.39 6.10584C17.3984 6.08091 17.4047 6.05533 17.4087 6.02937C17.4759 5.43564 17.4121 4.83468 17.2217 4.2673C17.0658 3.65547 16.4736 3.48105 15.9281 3.68295C13.9542 4.3797 11.9254 4.91684 9.8622 5.289C8.12601 5.63774 6.24656 6.28022 4.46673 6.18538C4.29824 6.18075 4.13138 6.21918 3.98258 6.29689C3.83379 6.3746 3.70812 6.48891 3.61791 6.62865C3.52771 6.76838 3.47603 6.92871 3.468 7.09394C3.45996 7.25917 3.49586 7.42365 3.5721 7.57119C3.9122 8.26729 4.3304 8.92394 4.81892 9.52901C3.37261 10.0644 1.94501 10.6578 0.539221 11.3369C0.419051 11.3917 0.312138 11.471 0.225538 11.5694C0.138939 11.6679 0.0745365 11.7832 0.0368108 11.9079C-0.000914929 12.0326 -0.0111396 12.1637 0.00667527 12.2926C0.0244901 12.4215 0.0699469 12.5451 0.140154 12.6554C0.0404088 23.3043 3.46294 34.4916 6.7826 44.5256C6.82119 44.6788 6.91865 44.8115 7.05458 44.8959C7.1905 44.9802 7.35448 45.0098 7.51209 44.9784C24.6558 39.9859 42.0053 35.4583 59.4576 31.6283C59.6367 31.5867 59.7922 31.4779 59.8906 31.3253C59.9891 31.1726 60.0227 30.9882 59.9844 30.8115C57.4315 20.802 54.7072 10.82 52.784 0.666678C52.7419 0.492633 52.6435 0.336604 52.5036 0.221922C52.3637 0.107241 52.1899 0.040036 52.0079 0.0303524Z" fill="white"/>
<path d="M42.1985 7.92649C41.2077 7.34183 40.0836 7.00955 38.9286 6.95982C35.2412 6.86499 31.1361 9.19603 29.0819 12.2888H29.0539C21.8037 17.5597 27.4144 28.9306 35.048 30.1909C36.5749 30.4363 38.1389 30.3316 39.6177 29.885C40.4159 29.9513 41.2196 29.9152 42.0084 29.7779C51.425 28.0526 50.8296 10.0434 42.1985 7.92649ZM41.7933 11.5485C46.6778 15.8007 45.6865 24.6294 39.5303 26.8167C38.9223 26.8335 38.314 26.7956 37.713 26.7035C34.0723 26.1467 32.1835 24.3082 31.3076 20.778C30.9522 19.3402 30.5563 17.5995 30.815 16.1434C31.6348 11.6403 38.1744 8.40674 41.8026 11.5607L41.7933 11.5485Z" fill="#FF9933"/>
<path d="M52.7965 0.666678C52.7545 0.493111 52.6566 0.33745 52.5173 0.222819C52.3781 0.108187 52.2049 0.040676 52.0234 0.0303524C43.2147 -0.333686 34.2001 2.60924 25.6657 4.41719C22.9071 5.00149 20.1485 5.53073 17.4055 6.10584C17.4139 6.08091 17.4202 6.05533 17.4242 6.02937C17.4914 5.43564 17.4276 4.83468 17.2372 4.2673C17.0813 3.65547 16.4891 3.48105 15.9436 3.68295C13.9697 4.3797 11.941 4.91684 9.87788 5.289C8.14168 5.63774 6.26209 6.28022 4.48226 6.18538C4.31377 6.18075 4.1469 6.21918 3.99811 6.29689C3.84931 6.3746 3.72365 6.48891 3.63344 6.62865C3.54323 6.76838 3.49171 6.92871 3.48368 7.09394C3.47564 7.25917 3.51139 7.42365 3.58763 7.57119C3.92773 8.26729 4.34593 8.92394 4.83445 9.52901C3.38814 10.0644 1.96054 10.6578 0.554749 11.3369C0.434579 11.3917 0.327665 11.471 0.241066 11.5694C0.154466 11.6679 0.0902162 11.7832 0.0524905 11.9079C0.0147648 12.0326 0.00438797 12.1637 0.0222028 12.2926C0.0400177 12.4215 0.0856267 12.5451 0.155834 12.6554C0.0560885 23.3043 3.47862 34.4916 6.79827 44.5256C6.83687 44.6788 6.93433 44.8115 7.07025 44.8959C7.20618 44.9802 7.37001 45.0098 7.52761 44.9784C24.6714 39.9859 42.0208 35.4583 59.4731 31.6283C59.6523 31.5867 59.8077 31.4779 59.9061 31.3253C60.0046 31.1726 60.0382 30.9882 59.9999 30.8115C57.4283 20.802 54.7041 10.82 52.7965 0.666678ZM5.72907 8.06673C7.27201 7.9566 8.80253 7.50079 10.2987 7.14898C12.1502 6.70235 13.9768 6.23123 15.7691 5.6041C15.884 5.85024 16.0142 6.08933 16.1587 6.31997C16.1587 6.34138 16.1899 6.35666 16.2024 6.37501C12.7191 7.09275 9.28389 8.01939 5.91613 9.14968C5.87399 8.78562 5.81153 8.42408 5.72907 8.06673ZM12.8983 42.4607C11.692 42.7666 9.1578 43.8526 8.04814 43.253C6.93847 42.6534 6.64232 39.8512 6.3088 38.649C5.84124 36.9766 5.408 35.2951 5.00902 33.6045C3.41932 26.8529 2.74293 19.9423 1.26856 13.1847C1.34723 13.1653 1.42352 13.1376 1.4961 13.1021C4.66752 11.5363 7.94759 10.1921 11.3117 9.07932C11.2912 9.2567 11.3083 9.43633 11.362 9.6069C11.4156 9.77748 11.5046 9.93531 11.6235 10.0705C12.7238 15.271 14.5192 20.2421 15.7286 25.4274C16.3271 27.9807 16.9245 30.5362 17.5209 33.0936C18.11 35.6205 18.2502 38.4532 19.2695 40.8241C18.8113 40.9434 18.35 41.0596 17.8918 41.182C16.2252 41.6164 14.5607 42.0426 12.8983 42.4607ZM19.8742 40.668C19.7589 38.3003 18.7427 35.9386 18.2128 33.6136L16.324 25.2958C15.0772 19.7221 14.5223 14.0841 13.0199 8.55928C13.0199 8.55928 13.0199 8.54396 13.0199 8.53479C21.9409 5.7112 31.4104 4.08071 40.4499 2.52972C41.8775 2.28499 43.3082 2.05554 44.7483 1.90258C45.7208 1.80163 49.7137 1.07354 50.7174 1.65784C52.0609 2.44098 52.0141 4.69248 52.3164 6.06604C52.6905 7.74449 53.0718 9.42292 53.4603 11.1014C54.9752 17.599 56.5774 24.0905 58.4726 30.4933C45.6709 34.1765 32.7258 37.3213 19.8587 40.6589L19.8742 40.668Z" fill="#201306"/>
<path d="M40.7617 6.09098C36.3697 5.38737 32.6573 6.84354 30.0359 9.47441C27.6233 10.9153 26.0991 13.8765 25.4352 16.5104C24.5001 20.2701 25.1546 24.4887 27.6171 27.5784C30.1107 30.7201 34.3156 32.6382 38.3802 32.109C42.0365 31.6348 46.9147 29.4628 48.6664 26.1437C52.5253 18.8231 50.0099 7.57466 40.7617 6.09098ZM47.8435 22.9744C45.9733 30.0104 35.6122 32.5403 30.226 27.7191C27.5702 25.3391 26.4419 21.4662 26.8284 17.7922C28.468 12.3622 32.9659 7.51657 39.094 7.73377C47.2763 8.02133 49.6171 16.3391 47.8435 22.9744Z" fill="#201306"/>
<path d="M32.4547 12.4569C28.4026 14.3964 28.0908 21.7964 30.8058 24.8342C34.3125 28.7407 41.0919 27.5507 44.1684 23.8277C47.4663 19.8508 46.5749 14.4331 42.6568 11.1384C38.7387 7.84368 34.7894 9.2662 32.4547 12.4569ZM32.972 14.2098L33.2433 13.9039C33.5106 13.8484 33.7867 13.8469 34.0546 13.8995C34.3226 13.9521 34.5767 14.0577 34.8018 14.2098C35.6434 14.7818 36.0861 16.1737 35.0076 16.7397C33.3399 17.6177 32.4203 15.5741 32.972 14.2098ZM37.9593 22.6316C34.9857 23.5493 34.6865 19.9854 35.6123 17.7645C35.7135 17.7894 35.8196 17.787 35.9195 17.7574C36.0195 17.7277 36.1093 17.6721 36.1795 17.5963C38.2648 15.513 42.2733 21.3009 37.9468 22.6316H37.9593Z" fill="#201306"/>
<path d="M18.4249 40.2643C17.4316 40.213 16.453 40.0065 15.5261 39.6525C15.445 39.6189 15.3982 39.7351 15.4637 39.781C16.3263 40.41 17.386 40.7228 18.4591 40.6651C18.7054 40.659 18.6493 40.2858 18.4249 40.2643Z" fill="#201306"/>
<path d="M16.1245 38.9002C16.6295 38.9737 17.256 39.1602 17.7547 39.0164C17.7876 39.007 17.8167 38.9878 17.838 38.9613C17.8592 38.9349 17.8716 38.9026 17.8733 38.8689C17.875 38.8353 17.866 38.802 17.8475 38.7736C17.8291 38.7453 17.802 38.7232 17.7702 38.7105C17.2933 38.5086 16.6451 38.6158 16.137 38.6249C16.1044 38.6301 16.0746 38.646 16.0527 38.6702C16.0307 38.6944 16.0179 38.7252 16.0164 38.7576C16.015 38.7899 16.0249 38.8217 16.0446 38.8477C16.0643 38.8737 16.0925 38.8923 16.1245 38.9002Z" fill="#201306"/>
<path d="M16.9099 36.3764C16.9217 36.3571 16.9283 36.3352 16.9289 36.3126C16.9296 36.2901 16.9244 36.2678 16.9137 36.2479C16.9031 36.2279 16.8873 36.211 16.8681 36.1987C16.8489 36.1864 16.8267 36.1791 16.8038 36.1776C16.4516 36.1776 16.2023 36.3397 15.8687 36.1347C15.8312 36.1133 15.7866 36.1069 15.7444 36.117C15.7021 36.127 15.6656 36.1528 15.6423 36.1887C15.6189 36.2247 15.6106 36.2681 15.6191 36.31C15.6277 36.3518 15.6524 36.3888 15.6881 36.4132C16.0154 36.6426 16.6699 36.7925 16.9099 36.3764Z" fill="#201306"/>
<path d="M12.8733 24.7516C12.8733 24.6384 12.7206 24.6323 12.6489 24.6843C12.4837 24.8005 12.2624 24.9688 12.0473 24.9198C11.9911 24.9093 11.9328 24.9193 11.8837 24.9481C11.8345 24.9768 11.7978 25.0223 11.7805 25.0758C11.7632 25.1294 11.7666 25.1874 11.7899 25.2387C11.8132 25.29 11.8548 25.331 11.907 25.3542C12.3465 25.4949 12.9356 25.2838 12.8733 24.7516Z" fill="#201306"/>
<path d="M53.2579 28.8385C52.9492 28.6689 52.6232 28.5314 52.2853 28.4286C52.2568 28.4214 52.2266 28.4233 52.1992 28.4339C52.1718 28.4446 52.1486 28.4635 52.1327 28.4879C52.1168 28.5123 52.1091 28.5409 52.1108 28.5698C52.1124 28.5987 52.1234 28.6264 52.142 28.6488C52.3869 28.897 52.6576 29.1194 52.9494 29.3126C53.2208 29.5487 53.5392 29.727 53.8845 29.8358C53.9384 29.8511 53.9959 29.8487 54.0484 29.8292C54.1009 29.8096 54.1454 29.7738 54.1753 29.7271C54.2053 29.6805 54.2188 29.6257 54.2142 29.5707C54.2095 29.5158 54.1867 29.4639 54.1493 29.4228C53.8965 29.1697 53.593 28.9708 53.2579 28.8385Z" fill="#201306"/>
<path d="M54.1588 27.4038C53.9257 27.2826 53.7274 27.1059 53.5821 26.8899C53.4512 26.6972 53.1302 26.8502 53.2486 27.0643C53.498 27.517 54.0714 28.1411 54.6481 27.9117C54.6646 27.9024 54.6788 27.8895 54.6896 27.8741C54.7004 27.8587 54.7076 27.8411 54.7106 27.8226C54.7136 27.8041 54.7122 27.7853 54.7068 27.7673C54.7014 27.7494 54.692 27.7328 54.6793 27.7189C54.5275 27.5827 54.3509 27.4757 54.1588 27.4038Z" fill="#201306"/>
<path d="M16.3832 11.3737C16.137 11.1994 15.9032 11.0035 15.6694 10.8169C15.4356 10.6303 15.2174 10.9393 15.3203 11.1382C15.6039 11.6001 16.2335 12.3007 16.8476 12.163C16.8756 12.156 16.9017 12.1428 16.9238 12.1246C16.946 12.1064 16.9638 12.0835 16.9757 12.0577C16.9877 12.0319 16.9935 12.0037 16.9929 11.9753C16.9924 11.9469 16.9853 11.9191 16.9722 11.8938C16.8631 11.6551 16.6077 11.5328 16.3832 11.3737Z" fill="#201306"/>
<path d="M17.0596 10.0679C16.8507 9.97302 16.6513 10.2575 16.8632 10.3738L17.5364 10.7439C17.7264 10.8777 17.9368 10.981 18.1598 11.0498C18.3282 11.0835 18.5183 10.8846 18.3594 10.7439C18.029 10.4258 17.4741 10.2698 17.0596 10.0679Z" fill="#201306"/>
<path d="M48.9032 6.17946C48.6507 6.12745 48.5198 6.48537 48.7785 6.56185C49.3676 6.71481 50.0471 6.98703 50.6487 6.97785C50.8171 6.97785 50.9294 6.73317 50.7548 6.64445C50.2187 6.36301 49.5047 6.30488 48.9032 6.17946Z" fill="#201306"/>
<path d="M49.1433 5.14859C49.5059 5.04429 49.8814 4.98972 50.2592 4.98645C50.2856 4.9806 50.3096 4.96722 50.3283 4.94798C50.347 4.92875 50.3596 4.90454 50.3642 4.87838C50.3689 4.85221 50.3655 4.82532 50.3546 4.801C50.3437 4.77669 50.3257 4.75608 50.3029 4.74178C50.091 4.63854 49.856 4.58914 49.6197 4.59823C49.3833 4.60732 49.1531 4.67457 48.9501 4.79376C48.707 4.90389 48.9033 5.24342 49.1433 5.14859Z" fill="#201306"/>
</g>
<defs>
<clipPath id="clip0_318_787">
<rect width="60" height="45" fill="white"/>
</clipPath>
</defs>
</svg>
