<svg width="170" height="17" viewBox="0 0 170 17" fill="none" xmlns="http://www.w3.org/2000/svg">
<g clip-path="url(#clip0_333_3307)">
<path d="M39.0344 4.4264C37.8069 4.4264 36.8249 4.74992 36.0065 4.91169L35.7611 6.77199C36.5803 6.48236 37.4321 6.29225 38.2978 6.20582C39.2798 6.20582 39.8527 6.36757 39.689 7.25728C36.743 7.25728 34.779 7.82345 34.3699 9.76463C33.797 12.9999 37.3977 13.0808 38.7888 11.6249L38.6252 12.5146H41.2438L42.3895 7.25728C42.7986 5.07346 40.8347 4.34552 39.0344 4.4264ZM39.198 9.84552C39.0343 10.4926 38.4615 10.7352 37.8069 10.8161C37.2341 10.8161 36.743 10.4926 37.0703 9.84552C37.3977 9.36023 38.1355 9.36022 38.707 9.36022H39.363C39.2798 9.27934 39.198 9.60288 39.198 9.84552Z" fill="#32A6CE"/>
<path d="M35.7611 6.77057C36.5803 6.48094 37.4321 6.29083 38.2978 6.2044C39.2798 6.2044 39.8527 6.36616 39.689 7.25586C36.743 7.25586 34.779 7.82204 34.3699 9.76321C33.797 12.9985 37.3977 13.0794 38.7888 11.6235L38.6252 12.5132H41.2438L42.3895 7.25586C42.8805 5.07204 40.8347 4.50586 39.0344 4.50586M39.198 9.84411C39.0343 10.4912 38.4615 10.7338 37.8069 10.8147C37.2341 10.8147 36.743 10.4912 37.0703 9.84411C37.3977 9.35881 38.1355 9.3588 38.707 9.3588H39.363C39.2798 9.27792 39.198 9.60146 39.198 9.84411Z" fill="#1A80AD"/>
<path d="M44.599 2L42.4713 12.5147H45.0913L47.2995 2H44.599Z" fill="#32A6CE"/>
<path d="M46.4771 2L42.4673 12.5147H45.0873L47.2954 2H46.4771Z" fill="#1A80AD"/>
<path d="M32.4072 2H27.5778L25.4514 12.5147H28.3156L29.0507 9.27941H31.0966C33.0605 9.27941 34.6972 8.14706 35.1064 6.125C35.5155 3.77941 33.797 2 32.4072 2ZM32.324 5.63971C32.1604 6.36765 31.4239 6.85294 30.6874 6.85294H29.378L29.9522 4.42647H31.338C32.0745 4.42647 32.4837 4.91176 32.32 5.63971H32.324Z" fill="#32A6CE"/>
<path d="M32.4072 2H29.1339L25.3682 12.5147H28.2324L28.9689 9.27941H31.0147C32.9787 9.27941 34.6153 8.14706 35.0245 6.125C35.5155 3.77941 33.797 2 32.4072 2ZM32.324 5.63971C32.1604 6.36765 31.4239 6.85294 30.6874 6.85294H29.378L29.9522 4.42647H31.3379C32.0744 4.42647 32.4836 4.91176 32.32 5.63971H32.324Z" fill="#1A80AD"/>
<path d="M13.5024 4.4264C12.2749 4.4264 11.2929 4.74992 10.5564 4.91169L10.3123 6.77199C10.6382 6.61022 11.8658 6.2867 12.8478 6.20582C13.8298 6.20582 14.4039 6.36757 14.2389 7.25728C11.3747 7.25728 9.41076 7.82345 9.0016 9.76463C8.42877 12.9999 11.9489 13.0808 13.3387 11.6249L13.1764 12.5146H15.7897L16.9353 7.25728C17.3445 5.07346 15.2987 4.34552 13.4984 4.4264H13.5024ZM13.7479 9.84552C13.5856 10.4926 13.0114 10.7352 12.3581 10.8161C11.7839 10.8161 11.2929 10.4926 11.7021 9.84552C12.0294 9.36023 12.7673 9.36022 13.2569 9.36022H13.9116C13.8297 9.27934 13.7479 9.60288 13.7479 9.84552Z" fill="#21789E"/>
<path d="M10.3929 6.77057C10.7216 6.60881 11.949 6.28528 12.9296 6.2044C13.9116 6.2044 14.4845 6.36616 14.3208 7.25586C11.4567 7.25586 9.49401 7.82204 9.08485 9.76321C8.51065 12.9985 12.0295 13.0794 13.4206 11.6235L13.1765 12.5132H15.7897L16.9354 7.25586C17.4264 5.07204 15.3806 4.50586 13.5816 4.50586M13.7439 9.84411C13.5816 10.4912 13.0074 10.7338 12.3541 10.8147C11.7799 10.8147 11.2889 10.4912 11.6981 9.84411C12.0254 9.35881 12.7633 9.3588 13.2529 9.3588H13.9076C13.8258 9.27792 13.7439 9.60146 13.7439 9.84411Z" fill="#1A5B80"/>
<path d="M18.0033 4.42627H20.622L21.0311 8.95568L23.6497 4.42627H26.3503L20.1323 15.7498H17.1849L19.0671 12.3527L18.0033 4.42627Z" fill="#21789E"/>
<path d="M20.6219 4.58803L21.0311 9.03656L23.6497 4.42627H26.3502L20.1309 15.7498H17.1849L19.0671 12.4336" fill="#1A5B80"/>
<path d="M7.03899 2H2.129L0 12.5147H2.86416L3.60064 9.27941H5.64647C7.61046 9.27941 9.24711 8.14706 9.65627 6.125C10.1473 3.77941 8.42879 2 7.03899 2ZM6.95581 5.63971C6.79214 6.36765 6.05565 6.85294 5.31915 6.85294H4.00981L4.584 4.42647H5.96972C6.70622 4.42647 7.11541 4.91176 6.95175 5.63971H6.95581Z" fill="#21789E"/>
<path d="M7.03899 2H4.82814L0 12.5147H2.86416L3.60064 9.27941H5.64647C7.61046 9.27941 9.24711 8.14706 9.65627 6.125C10.1473 3.77941 8.42879 2 7.03899 2ZM6.95581 5.63971C6.79214 6.36765 6.05565 6.85294 5.31915 6.85294H4.00981L4.584 4.42647H5.96972C6.70622 4.42647 7.11541 4.91176 6.95175 5.63971H6.95581Z" fill="#1A5B80"/>
<path d="M13.0114 7.25732C10.8019 7.41909 9.32893 8.06615 9.0016 9.68379C8.42877 12.9191 11.9489 13 13.3387 11.5441L13.1764 12.5147H15.7897L16.1988 10.5735L13.0114 7.25732ZM13.7479 9.84557C13.5856 10.4926 13.0114 10.7353 12.3581 10.8162C11.7839 10.8162 11.2929 10.4926 11.7021 9.84557C12.0294 9.36028 12.7673 9.36026 13.2569 9.36026H13.9116C13.8297 9.27938 13.7479 9.60292 13.7479 9.84557Z" fill="#06435E"/>
<path d="M21.1948 8.8748L21.0311 9.11745L22.7496 10.7351L26.3503 4.42627H23.6497L21.1948 8.8748Z" fill="#06435E"/>
<path d="M2.86417 12.5146L3.60065 9.2793L0.245483 12.5146H2.86417Z" fill="#06435E"/>
<path d="M28.2324 12.5147L28.9689 9.11768V9.19855L25.6137 12.5147H28.2324Z" fill="#2273AA"/>
<path d="M38.4616 7.25732C36.2521 7.41909 34.7791 8.06615 34.4531 9.68379C33.8789 12.9191 37.4796 13 38.8707 11.5441L38.6253 12.5147H41.2439L41.653 10.5735L38.4616 7.25732ZM39.198 9.84557C39.0344 10.4926 38.4616 10.7353 37.8069 10.8162C37.2341 10.8162 36.743 10.4926 37.0704 9.84557C37.3977 9.36028 38.1356 9.36026 38.707 9.36026H39.3631C39.2799 9.27938 39.198 9.60292 39.198 9.84557Z" fill="#2273AA"/>
<path d="M44.3535 7.74268L42.4713 12.5147H45.0913L45.8265 9.27944L44.3535 7.74268Z" fill="#2273AA"/>
<path d="M47.8724 3.69841V2.56607H47.4632V2.4043H48.527V2.56607H48.1178V3.69841H47.8724Z" fill="#32A6CE"/>
<path d="M48.6907 3.69872V2.40461H48.9361L49.2635 3.29431C49.2721 3.35566 49.3008 3.41252 49.3453 3.45609C49.3453 3.3752 49.3453 3.3752 49.4272 3.21343L49.7545 2.32373H50.0013V3.61784H49.8363V2.48549L49.4272 3.61784H49.183L48.7739 2.48549V3.61784H48.6907V3.69872Z" fill="#32A6CE"/>
</g>
<g clip-path="url(#clip1_333_3307)">
<path d="M84.6667 13.8094L86.6984 2.38086H89.873L87.9048 13.8094H84.6667Z" fill="#3C58BF"/>
<path d="M84.6667 13.8094L87.2699 2.38086H89.873L87.9048 13.8094H84.6667Z" fill="#293688"/>
<path d="M99.3968 2.50813C98.4631 2.15954 97.4728 1.9873 96.4762 2.00018C93.3016 2.00018 91.0159 3.5875 91.0159 5.87321C91.0159 7.5875 92.6032 8.47639 93.873 9.04781C95.1429 9.61924 95.5238 10.0002 95.5238 10.5081C95.5238 11.27 94.508 11.651 93.6191 11.651C92.3492 11.651 91.6508 11.4605 90.5714 11.0161L90.127 10.8256L89.6826 13.4288C90.4445 13.7462 91.8413 14.0637 93.3016 14.0637C96.6667 14.0637 98.8889 12.4764 98.8889 10.0637C98.8889 8.73034 98.0635 7.71447 96.1588 6.88907C95.0159 6.31764 94.3175 6.00017 94.3175 5.42875C94.3175 4.92081 94.8889 4.41289 96.1588 4.41289C97.2381 4.41289 98 4.60336 98.5714 4.85733L98.8889 4.98431L99.3968 2.50813Z" fill="#3C58BF"/>
<path d="M99.3968 2.50813C98.4631 2.15954 97.4728 1.9873 96.4762 2.00018C93.3016 2.00018 91.5873 3.5875 91.5873 5.87321C91.5873 7.5875 92.6032 8.47639 93.873 9.04781C95.1429 9.61924 95.5238 10.0002 95.5238 10.5081C95.5238 11.27 94.508 11.651 93.6191 11.651C92.3492 11.651 91.6508 11.4605 90.5714 11.0161L90.127 10.8256L89.6826 13.4288C90.4445 13.7462 91.8413 14.0637 93.3016 14.0637C96.6667 14.0637 98.8889 12.4764 98.8889 10.0637C98.8889 8.73034 98.0635 7.71447 96.1588 6.88907C95.0159 6.31764 94.3175 6.00017 94.3175 5.42875C94.3175 4.92081 94.8889 4.41289 96.1588 4.41289C97.2381 4.41289 98 4.60336 98.5714 4.85733L98.8889 4.98431L99.3968 2.50813Z" fill="#293688"/>
<path d="M104.857 2.38086C104.095 2.38086 103.524 2.44433 103.206 3.20624L98.4444 13.8094H101.873L102.508 11.9047H106.571L106.952 13.8094H110.004L107.338 2.38086H104.857ZM103.397 9.99991C103.587 9.42848 104.667 6.63482 104.667 6.63482C104.667 6.63482 104.921 5.9364 105.111 5.49196L105.302 6.57132C105.302 6.57132 105.936 9.42846 106.063 10.0634H103.397V9.99991Z" fill="#3C58BF"/>
<path d="M105.619 2.38086C104.857 2.38086 104.286 2.44433 103.968 3.20624L98.4444 13.8094H101.873L102.508 11.9047H106.571L106.952 13.8094H110.004L107.338 2.38086H105.619ZM103.397 9.99991C103.651 9.36499 104.667 6.63482 104.667 6.63482C104.667 6.63482 104.921 5.9364 105.111 5.49196L105.302 6.57132C105.302 6.57132 105.936 9.42846 106.063 10.0634H103.397V9.99991Z" fill="#293688"/>
<path d="M78.8254 10.3808L78.5079 8.73007C77.9365 6.8253 76.0952 4.73005 74.0635 3.71418L76.9206 13.8729H80.3492L85.492 2.44434H82.0677L78.8254 10.3808Z" fill="#3C58BF"/>
<path d="M78.8254 10.3808L78.5079 8.73007C77.9365 6.8253 76.0952 4.73005 74.0635 3.71418L76.9206 13.8729H80.3492L85.492 2.44434H82.7026L78.8254 10.3808Z" fill="#293688"/>
<path d="M70.0042 2.38086L70.5756 2.50784C74.6391 3.46022 77.4328 5.87292 78.5121 8.73007L77.3693 3.33324C77.1788 2.57134 76.6074 2.38086 75.909 2.38086H70.0042Z" fill="#FFBC00"/>
<path d="M70.0042 2.38086C74.0677 3.33324 77.4328 5.80942 78.5121 8.66656L77.4328 4.15862C77.3544 3.81394 77.1605 3.50643 76.8834 3.28702C76.6063 3.06762 76.2624 2.9495 75.909 2.95228L70.0042 2.38086Z" fill="#F7981D"/>
<path d="M70.0042 2.38086C74.0677 3.33324 77.4328 5.80942 78.5121 8.66656L77.7503 6.19038C77.5598 5.42848 77.3058 4.66656 76.4169 4.3491L70.0042 2.38086Z" fill="#ED7C00"/>
<path d="M82 10.0001L79.8412 7.84134L78.8254 10.254L78.5714 8.66674C78 6.76198 76.1587 4.66675 74.127 3.65088L76.9841 13.8096H80.4127L82 10.0001Z" fill="#051244"/>
<path d="M87.9048 13.8093L85.1746 11.0156L84.6667 13.8093H87.9048Z" fill="#051244"/>
<path d="M95.2064 9.87305C95.4604 10.127 95.5873 10.3175 95.5238 10.5715C95.5238 11.3334 94.508 11.7143 93.6191 11.7143C92.3492 11.7143 91.6508 11.5239 90.5714 11.0794L90.127 10.8889L89.6826 13.4921C90.4445 13.8096 91.8413 14.127 93.3016 14.127C95.3334 14.127 96.9841 13.5556 97.9365 12.5397L95.2064 9.87305Z" fill="#051244"/>
<path d="M98.8931 13.8097H101.877L102.512 11.9049H106.576L106.957 13.8097H110.004L108.925 9.17473L105.115 5.49219L105.306 6.50807C105.306 6.50807 105.941 9.36521 106.068 10.0001H103.401C103.655 9.36521 104.671 6.63505 104.671 6.63505C104.671 6.63505 104.925 5.93663 105.115 5.49219" fill="#051244"/>
</g>
<g clip-path="url(#clip2_333_3307)">
<path fill-rule="evenodd" clip-rule="evenodd" d="M170 8.6008C170 5.75601 168.622 3.51123 165.989 3.51123C163.355 3.51123 161.745 5.75601 161.745 8.57789C161.745 11.9227 163.633 13.6112 166.345 13.6112C167.667 13.6112 168.667 13.3112 169.422 12.8893V10.6675C168.576 11.0854 167.643 11.2947 166.7 11.2779C165.622 11.2779 164.667 10.9008 164.545 9.58934H169.978C169.978 9.44455 170 8.86747 170 8.6008ZM164.511 7.54456C164.511 6.29456 165.278 5.76643 165.978 5.76643C166.656 5.76643 167.378 6.28727 167.378 7.54456H164.511Z" fill="#635BFF"/>
<path fill-rule="evenodd" clip-rule="evenodd" d="M157.456 3.51125C156.646 3.50809 155.865 3.81863 155.278 4.3779L155.133 3.68938H152.689V16.6446L155.467 16.056L155.478 12.9113C155.878 13.2008 156.467 13.6112 157.445 13.6112C159.433 13.6112 161.245 12.0112 161.245 8.48936C161.233 5.26748 159.4 3.51125 157.456 3.51125ZM156.789 11.1675C156.133 11.1675 155.747 10.9342 155.478 10.6467L155.467 6.52479C155.756 6.20187 156.156 5.98 156.789 5.98C157.8 5.98 158.5 7.11332 158.5 8.56957C158.5 10.0581 157.811 11.1737 156.789 11.1737V11.1675Z" fill="#635BFF"/>
<path fill-rule="evenodd" clip-rule="evenodd" d="M148.867 2.85627L151.656 2.25627V0L148.867 0.5896V2.85627Z" fill="#635BFF"/>
<path d="M151.655 3.7002H148.867V13.4231H151.655V3.7002Z" fill="#635BFF"/>
<path fill-rule="evenodd" clip-rule="evenodd" d="M145.878 4.52311L145.7 3.70017H143.304V13.4221H146.082V6.83352C146.738 5.97727 147.853 6.13351 148.193 6.25539V3.69913C147.838 3.56684 146.538 3.32206 145.882 4.52206L145.878 4.52311Z" fill="#635BFF"/>
<path fill-rule="evenodd" clip-rule="evenodd" d="M140.323 1.28955L137.615 1.86768L137.603 10.7666C137.603 12.4114 138.836 13.6229 140.481 13.6229C141.392 13.6229 142.059 13.4562 142.426 13.2562V11.001C142.07 11.1448 140.315 11.6562 140.315 10.0114V6.06766H142.426V3.701H140.315L140.323 1.28955Z" fill="#635BFF"/>
<path fill-rule="evenodd" clip-rule="evenodd" d="M132.811 6.52296C132.811 6.08963 133.167 5.92296 133.756 5.92296C134.717 5.94296 135.661 6.18655 136.511 6.63443V4.02296C135.635 3.67688 134.699 3.50323 133.756 3.51151C131.5 3.51151 130 4.68963 130 6.6563C130 9.72297 134.223 9.23442 134.223 10.5563C134.223 11.0678 133.778 11.2334 133.155 11.2334C132.233 11.2334 131.055 10.8563 130.122 10.3448V12.9896C131.08 13.4041 132.112 13.6195 133.155 13.623C135.467 13.623 137.056 12.4771 137.056 10.4896C137.045 7.17922 132.811 7.76775 132.811 6.52296Z" fill="#635BFF"/>
</g>
<defs>
<clipPath id="clip0_333_3307">
<rect width="50" height="13.75" fill="white" transform="translate(0 2)"/>
</clipPath>
<clipPath id="clip1_333_3307">
<rect width="40" height="12.127" fill="white" transform="translate(70 2)"/>
</clipPath>
<clipPath id="clip2_333_3307">
<rect width="40" height="16.6448" fill="white" transform="translate(130)"/>
</clipPath>
</defs>
</svg>
