<svg width="50" height="52" viewBox="0 0 50 52" fill="none" xmlns="http://www.w3.org/2000/svg">
<g clip-path="url(#clip0_318_839)">
<path d="M24.8181 51.6699C25.5158 50.1584 26.3034 48.689 27.1766 47.2697C27.1881 47.2436 27.1982 47.2169 27.2068 47.1897L28.0154 47.4933C28.1654 47.5611 28.3335 47.5788 28.4945 47.544C28.6555 47.5091 28.8006 47.4234 28.9083 47.2998C35.8624 37.6023 42.6887 27.8582 49.8687 18.3175C49.9212 18.2532 49.9583 18.1779 49.9774 18.0973C49.9965 18.0167 49.997 17.933 49.9789 17.8522C49.9607 17.7714 49.9244 17.6957 49.8726 17.6307C49.8208 17.5658 49.7551 17.5132 49.68 17.4769C39.9428 12.9601 32.0989 6.38501 23.4264 0.290322C23.3384 0.226225 23.2377 0.181472 23.1308 0.159036C23.0239 0.136601 22.9133 0.136955 22.8065 0.160177C22.6708 0.0786166 22.5189 0.0267883 22.3612 0.00820414C22.2035 -0.01038 22.0437 0.00470066 21.8923 0.0524276C21.741 0.100155 21.6018 0.179474 21.484 0.284947C21.3662 0.39042 21.2727 0.519611 21.2096 0.663901C18.2008 6.13144 14.0533 11.0386 10.4279 16.1091C7.05866 20.8027 3.99926 25.8066 0.225678 30.1933C0.144158 30.2804 0.0824701 30.3838 0.0445472 30.4964C0.0066242 30.6091 -0.00655425 30.7285 0.00588608 30.8466C0.0183264 30.9647 0.0560207 31.0789 0.116605 31.1814C0.177189 31.2838 0.259207 31.3723 0.357126 31.4409C0.312094 31.5055 0.286107 31.5811 0.281943 31.6594C0.277778 31.7378 0.29566 31.8157 0.3336 31.8846C0.276388 31.9639 0.248496 32.0602 0.254633 32.1574C0.26077 32.2546 0.300429 32.3467 0.367162 32.4183C3.80719 36.0177 8.36595 38.8833 12.2945 41.9624C16.3107 45.1114 20.2089 48.3739 23.9253 51.8666C23.9935 51.9216 24.0734 51.9606 24.159 51.9806C24.2447 52.0007 24.3339 52.0013 24.4198 51.9823C24.5057 51.9634 24.5861 51.9255 24.655 51.8713C24.724 51.8172 24.7798 51.7483 24.8181 51.6699Z" fill="white"/>
<path d="M26.0713 34.0464C25.421 32.4151 23.3558 31.6812 21.9407 30.7405C20.3672 29.693 18.8275 28.3053 17.0552 27.6047C16.132 27.2378 15.0336 28.2919 15.731 29.1726C16.9878 30.7371 18.8814 31.798 20.5357 32.9122C21.8834 33.8262 23.5478 35.4174 25.2527 35.2773C25.3961 35.2667 25.5351 35.2236 25.659 35.1515C25.783 35.0793 25.8884 34.9799 25.9675 34.861C26.0466 34.7421 26.0971 34.6069 26.1151 34.4656C26.1331 34.3244 26.1181 34.181 26.0713 34.0464Z" fill="#FF9933"/>
<path d="M23.0459 37.3489C22.1934 35.8611 20.1652 34.8704 18.767 33.8863C17.3688 32.9022 16.0008 31.7246 14.3532 31.2642C13.4873 31.0207 12.8741 32.1516 13.3424 32.8121C14.3937 34.2599 16.1827 35.2107 17.6248 36.2515C18.9725 37.2289 20.3202 38.6099 22.0048 38.9702C22.9752 39.1804 23.4704 38.0828 23.0459 37.3489Z" fill="#FF9933"/>
<path d="M24.8181 51.6699C25.5158 50.1584 26.3034 48.689 27.1766 47.2697C27.1881 47.2436 27.1982 47.2169 27.2068 47.1897L28.0154 47.4933C28.1654 47.5611 28.3335 47.5788 28.4945 47.544C28.6555 47.5091 28.8006 47.4234 28.9083 47.2998C35.8624 37.6023 42.6887 27.8582 49.8687 18.3175C49.9212 18.2532 49.9583 18.1779 49.9774 18.0973C49.9965 18.0167 49.997 17.933 49.9789 17.8522C49.9607 17.7714 49.9244 17.6957 49.8726 17.6307C49.8208 17.5658 49.7551 17.5132 49.68 17.4769C39.9428 12.9601 32.0989 6.38501 23.4264 0.290322C23.3384 0.226225 23.2377 0.181472 23.1308 0.159036C23.0239 0.136601 22.9133 0.136955 22.8065 0.160177C22.6708 0.0786166 22.5189 0.0267883 22.3612 0.00820414C22.2035 -0.01038 22.0437 0.00470066 21.8923 0.0524276C21.741 0.100155 21.6018 0.179474 21.484 0.284947C21.3662 0.39042 21.2727 0.519611 21.2096 0.663901C18.2008 6.13144 14.0533 11.0386 10.4279 16.1091C7.05866 20.8027 3.99926 25.8066 0.225678 30.1933C0.144158 30.2804 0.0824701 30.3838 0.0445472 30.4964C0.0066242 30.6091 -0.00655425 30.7285 0.00588608 30.8466C0.0183264 30.9647 0.0560207 31.0789 0.116605 31.1814C0.177189 31.2838 0.259207 31.3723 0.357126 31.4409C0.312094 31.5055 0.286107 31.5811 0.281943 31.6594C0.277778 31.7378 0.29566 31.8157 0.3336 31.8846C0.276388 31.9639 0.248496 32.0602 0.254633 32.1574C0.26077 32.2546 0.300429 32.3467 0.367162 32.4183C3.80719 36.0177 8.36595 38.8833 12.2945 41.9624C16.3107 45.1114 20.2089 48.3739 23.9253 51.8666C23.9935 51.9216 24.0734 51.9606 24.159 51.9806C24.2447 52.0007 24.3339 52.0013 24.4198 51.9823C24.5057 51.9634 24.5861 51.9255 24.655 51.8713C24.724 51.8172 24.7798 51.7483 24.8181 51.6699ZM11.5734 15.9757C15.0438 11.1754 18.5512 6.09479 22.9952 2.13175C23.0441 2.08312 23.0902 2.03183 23.1334 1.97823C28.6927 6.37494 34.7876 10.3613 40.8759 13.9875C42.5875 15.0049 44.8551 15.829 46.3847 17.0666C47.5976 17.2178 48.1514 17.8638 48.0458 19.0047C47.4191 19.9565 46.7722 20.8928 46.105 21.8136C43.6657 25.2962 41.132 28.7255 38.5949 32.1548C36.0578 35.5841 33.4131 38.8966 30.8255 42.2726C29.1611 44.4409 28.5816 45.7786 25.7514 45.7319C23.8781 45.7019 21.7554 44.481 20.0438 43.7304C15.9434 41.9457 12.244 39.5939 8.67929 37.0352C7.31474 35.9277 5.91979 34.8636 4.47774 33.9129L1.44539 31.5777C1.59429 31.4792 1.71129 31.3401 1.78232 31.1774C4.34971 25.7465 8.06266 20.8361 11.5734 15.9791V15.9757ZM22.2539 48.861C19.7304 46.8928 17.4325 44.571 15.0168 42.4728C14.417 41.9524 13.8073 41.4186 13.1941 40.8782C17.3888 43.4268 21.7149 45.1115 26.2331 46.8161C24.8348 48.9144 24.7708 50.8258 22.2539 48.8643V48.861Z" fill="#201306"/>
<path d="M35.9736 23.805C38.0963 19.4684 35.7917 14.4645 31.6678 12.3495C31.6116 12.3205 31.5467 12.3123 31.485 12.3264C31.4232 12.3405 31.3686 12.3758 31.3308 12.4263C27.9279 10.5248 23.0087 12.4497 20.9771 15.5687C20.3384 16.5681 19.9147 17.6871 19.7325 18.8558C19.5503 20.0246 19.6133 21.2181 19.9177 22.3616C20.2222 23.5052 20.7615 24.5743 21.502 25.5022C22.2425 26.4302 23.1684 27.1969 24.2216 27.7547C28.4703 29.9731 33.8712 28.075 35.9736 23.805ZM27.3415 28.075C28.3959 27.2575 29.3685 26.3414 30.2458 25.3395C31.273 25.6794 32.325 25.9404 33.3927 26.1201C32.5641 26.8271 31.6019 27.364 30.5619 27.6996C29.5219 28.0351 28.425 28.1628 27.3348 28.075H27.3415ZM33.5781 25.9634C32.5087 25.7572 31.4541 25.482 30.4211 25.1394C31.9676 23.3413 33.3085 21.1863 33.8341 19.0414C34.6626 19.8366 35.4035 20.7166 36.0444 21.6667C35.9254 22.32 35.7169 22.9542 35.4245 23.5515C34.9711 24.4671 34.3416 25.2864 33.5714 25.9634H33.5781ZM31.2599 13.0401C31.5968 13.1502 31.9507 13.2702 32.2876 13.4137C32.5208 13.5749 32.7457 13.7474 32.9615 13.9307C33.7752 15.3025 34.0271 16.9309 33.6656 18.481C31.7501 16.7701 29.4072 15.5975 26.8799 15.085C28.1468 14.0575 29.6502 13.3552 31.2566 13.0401H31.2599ZM33.6184 18.8245C33.0793 21.0162 31.6508 23.1845 30.0504 25.0193C27.3497 24.0725 24.8551 22.627 22.6987 20.7593C23.1755 19.7103 23.7461 18.7055 24.4036 17.757C25.0567 16.838 25.8255 16.0051 26.6913 15.2785C29.2821 15.8149 31.6759 17.0409 33.6151 18.8245H33.6184ZM36.1083 21.3832C35.5018 20.4027 34.7678 19.5055 33.9251 18.7145C34.294 17.1809 34.0629 15.566 33.2782 14.1943C35.2998 16.0057 36.4688 18.7078 36.0881 21.3832H36.1083ZM30.9737 12.95C29.3729 13.2674 27.8804 13.9838 26.6374 15.0316C25.2123 14.7637 23.7537 14.7187 22.3146 14.8982C24.4877 12.5064 27.8335 12.046 30.9534 12.95H30.9737ZM22.2136 15.0149C23.6241 14.882 25.0465 14.9472 26.4386 15.2084C25.4095 16.1029 24.5203 17.144 23.8005 18.2975C23.338 19.0487 22.925 19.8287 22.564 20.6326C21.8119 19.9763 21.1039 19.272 20.4447 18.5243C20.59 17.8511 20.8233 17.1995 21.1388 16.5861C21.4211 16.0223 21.7718 15.4947 22.1831 15.0149H22.2136ZM20.4245 18.6077C21.0696 19.3698 21.7651 20.0885 22.5066 20.7593C21.9742 21.9669 21.533 23.328 21.5464 24.4288C20.4122 22.7107 19.9987 20.6226 20.394 18.6077H20.4245ZM21.7722 24.7657C21.6441 23.6415 22.0754 22.2071 22.6582 20.8928C24.7643 22.7921 27.2251 24.2653 29.9022 25.2295C29.0031 26.2363 28.0325 27.1783 26.9978 28.0483C26.2666 27.946 25.5561 27.7311 24.892 27.4112C23.6292 26.8088 22.5417 25.8984 21.7317 24.7657H21.7722Z" fill="#201306"/>
</g>
<defs>
<clipPath id="clip0_318_839">
<rect width="50" height="52" fill="white"/>
</clipPath>
</defs>
</svg>
