<svg width="478" height="403" viewBox="0 0 478 403" fill="none" xmlns="http://www.w3.org/2000/svg">
<g clip-path="url(#clip0_365_9587)">
<path d="M157.743 311.665C157.416 311.364 157.107 311.074 156.789 310.818L157.031 310.503C157.031 310.503 156.989 310.311 156.884 310.395L156.604 310.672C150.647 306.011 145.324 311.45 140.077 315.218C137.537 317.061 135.218 318.64 131.999 318.681C129.351 318.526 126.767 317.804 124.423 316.562C122.474 315.734 120.449 315.096 118.377 314.657C117.528 314.256 116.646 313.927 115.742 313.675C119.259 309.041 122.768 304.439 126.168 299.69C128.568 296.47 132.387 292.667 132.538 288.398C132.572 287.085 132.112 285.806 131.247 284.816C130.382 283.827 129.178 283.199 127.872 283.058C124.07 282.327 120.541 284.892 117.69 286.941C113.184 290.133 108.512 293.129 104.118 296.483C100.14 299.546 95.6747 302.637 91.924 306.038C90.5229 305.627 89.1078 305.296 87.8207 304.984C87.7162 304.965 87.6087 304.966 87.5048 304.988C87.4008 305.011 87.3022 305.053 87.215 305.114C86.9108 305.126 86.6116 305.19 86.3294 305.304C86.2731 305.248 86.2055 305.205 86.1316 305.176C79.7203 302.599 73.0666 300.673 66.271 299.428C61.2724 298.52 55.5694 297.206 50.5956 298.72C49.5397 299.055 48.5303 299.534 47.4986 299.909C45.425 300.426 43.3234 300.825 41.2047 301.103C39.9581 301.27 38.7838 301.784 37.8156 302.587C37.478 302.908 37.213 303.297 37.0391 303.73C36.8652 304.162 36.7864 304.626 36.8075 305.092C36.7521 305.151 36.7155 305.225 36.7023 305.305C36.6892 305.385 36.7004 305.467 36.734 305.54L36.9673 305.908C37.0987 306.224 37.286 306.514 37.5209 306.763C42.583 314.384 51.8549 318.149 60.1727 321.067C65.183 322.823 70.2871 324.296 75.4176 325.532L75.11 326.835C74.7006 328.072 74.3618 329.332 74.0956 330.609C72.3505 329.639 70.5266 328.819 68.6432 328.159C68.3 327.506 67.7299 327.001 67.041 326.739C66.5208 326.519 65.9456 326.464 65.3933 326.582C64.841 326.701 64.3387 326.986 63.9546 327.4C60.1148 328.44 56.2507 339.241 61.4971 340.297C61.8048 340.356 62.12 340.367 62.4309 340.329C65.2321 341.542 68.214 342.282 71.2566 342.52C69.3846 345.75 71.5029 349.58 75.7055 347.999C78.464 346.959 80.3927 343.778 82.3102 341.697C85.6547 338.058 89.102 334.537 92.7588 331.202C92.7588 331.202 92.7585 331.202 92.8324 331.186L92.9067 331.17C93.0044 331.186 93.1046 331.165 93.1872 331.11L93.4698 330.771C93.7472 330.48 94.0702 330.256 94.3444 329.95L96.3679 330.382C108.226 332.882 120.347 334.954 132.515 334.357C135.224 334.232 137.926 333.963 140.606 333.551C142.578 333.237 145.526 333.224 147.221 331.979C147.603 331.744 147.914 331.407 148.117 331.006C148.32 330.605 148.408 330.155 148.371 329.707C150.31 330.274 152.31 330.603 154.328 330.688C157.279 330.69 157.481 328.466 155.298 326.568C153.681 325.353 151.818 324.507 149.84 324.089C150.91 322.669 151.92 321.185 152.931 319.7L153.87 320.117C153.973 320.095 154.069 319.966 153.965 319.911L153.082 319.467C154.664 317.118 156.206 314.731 157.845 312.431C157.917 312.311 157.947 312.169 157.928 312.03C157.91 311.891 157.844 311.762 157.743 311.665Z" fill="white"/>
<path d="M43.172 301.78C42.9926 301.665 42.792 301.587 42.5821 301.55C42.3801 301.474 42.1641 301.442 41.9487 301.456C41.7332 301.47 41.5235 301.53 41.3333 301.632L41.1749 301.759C40.9406 301.87 40.7216 302.01 40.5231 302.177C40.3088 302.357 40.114 302.56 39.942 302.781C39.4495 303.05 39.0413 303.451 38.764 303.939C38.4866 304.428 38.3512 304.984 38.3718 305.545C38.3984 306.061 38.5638 306.559 38.8509 306.989C39.1896 307.488 40.2045 308.044 40.2457 308.669C40.2689 308.85 40.3446 309.02 40.463 309.159C40.5814 309.297 40.7374 309.398 40.9123 309.45C41.0873 309.501 41.2736 309.5 41.4479 309.447C41.6222 309.393 41.7769 309.291 41.8936 309.151C42.3363 308.824 42.7099 308.413 42.9935 307.941C43.6248 306.91 44 305.743 44.0871 304.537C44.1981 304.037 44.1717 303.517 44.0105 303.032C43.8493 302.546 43.5595 302.113 43.172 301.78Z" fill="#FF9933"/>
<path d="M78.3526 344.061C78.4407 343.962 78.5013 343.842 78.5284 343.712C78.5555 343.583 78.5478 343.448 78.5068 343.323C78.4657 343.197 78.3924 343.084 78.2941 342.995C78.1958 342.907 78.0761 342.846 77.9468 342.818C76.2139 342.239 74.3802 342.026 72.5613 342.194C72.452 342.197 72.345 342.226 72.249 342.278C72.153 342.33 72.0707 342.404 72.0088 342.494C71.9468 342.584 71.907 342.688 71.8925 342.796C71.878 342.905 71.8892 343.015 71.9253 343.118C71.838 343.123 71.7536 343.152 71.6813 343.201C71.6089 343.25 71.5513 343.318 71.5144 343.397C71.4775 343.476 71.4632 343.564 71.4723 343.651C71.4813 343.738 71.5136 343.821 71.566 343.891C71.5772 343.93 71.5857 343.97 71.5913 344.01C72.252 344.901 73.1888 345.549 74.256 345.851L74.3303 345.835C74.4266 345.935 74.5468 346.008 74.6798 346.047C74.8127 346.086 74.9538 346.09 75.0888 346.059L76.5657 345.742C76.6285 345.851 76.7161 345.944 76.8212 346.012C76.9262 346.081 77.0461 346.124 77.1709 346.138C77.2957 346.152 77.4215 346.137 77.539 346.093C77.6566 346.049 77.7625 345.977 77.8476 345.885L78.4128 345.207C78.4901 345.121 78.5471 345.019 78.5803 344.908C78.6135 344.797 78.6221 344.68 78.605 344.566C78.5878 344.451 78.5456 344.342 78.4814 344.246C78.4171 344.15 78.3321 344.069 78.233 344.009L78.3526 344.061Z" fill="#FF9933"/>
<path d="M131.001 289.3L130.843 289.21C130.937 289.11 131.007 288.989 131.046 288.857C131.191 288.3 131.18 287.714 131.013 287.163C130.846 286.612 130.529 286.118 130.098 285.736C130.005 285.645 129.89 285.579 129.764 285.545C129.197 285.017 128.51 284.633 127.763 284.427C127.789 284.318 127.786 284.204 127.757 284.096C127.727 283.988 127.671 283.888 127.594 283.807C127.517 283.725 127.421 283.664 127.315 283.629C127.209 283.594 127.095 283.585 126.985 283.604C124.974 283.82 122.998 284.28 121.099 284.974C120.498 285.195 120.278 286.186 120.988 286.544L125.805 288.48C126.228 288.652 127.993 289.171 129.235 289.709C129.193 289.782 129.171 289.865 129.172 289.949C129.174 290.033 129.199 290.116 129.245 290.186C129.459 290.469 129.734 290.701 130.05 290.863C130.365 291.026 130.713 291.115 131.068 291.126C131.204 291.115 131.332 291.054 131.425 290.953C131.518 290.853 131.569 290.722 131.57 290.585C131.566 290.279 131.471 289.982 131.295 289.732C131.304 289.637 131.279 289.541 131.226 289.463C131.172 289.384 131.093 289.326 131.001 289.3Z" fill="#FF9933"/>
<path d="M155.337 311.252C153.474 309.765 150.691 309.898 148.433 310.103C148.287 310.121 148.148 310.177 148.032 310.268C147.915 310.358 147.824 310.479 147.771 310.616C146.778 311.075 145.867 311.693 145.073 312.446C145.032 312.49 145.001 312.542 144.981 312.599C144.961 312.656 144.953 312.716 144.957 312.776C144.961 312.836 144.977 312.894 145.005 312.948C145.033 313.001 145.072 313.048 145.118 313.086C145.114 313.109 145.113 313.133 145.118 313.156C145.123 313.179 145.133 313.2 145.147 313.219C147.158 314.588 149.288 315.772 151.512 316.757C151.521 316.86 151.566 316.957 151.638 317.032C151.71 317.107 151.805 317.154 151.908 317.167C152.487 317.247 153.047 317.425 153.566 317.693C153.661 317.735 153.766 317.749 153.869 317.733C153.971 317.717 154.068 317.672 154.145 317.603C154.223 317.535 154.279 317.445 154.308 317.345C154.337 317.245 154.336 317.139 154.307 317.04C154.373 316.983 154.432 316.918 154.482 316.847C155.528 315.17 157.38 312.856 155.337 311.252Z" fill="#FF9933"/>
<path d="M157.818 312.375C156.179 314.675 154.636 317.062 153.054 319.411L153.937 319.856C154.026 319.837 153.988 320.092 153.842 320.062L152.903 319.644C151.893 321.129 150.883 322.613 149.812 324.033C151.791 324.451 153.654 325.297 155.271 326.512C157.451 328.396 157.251 330.634 154.3 330.632C152.282 330.547 150.283 330.217 148.344 329.651C148.381 330.099 148.292 330.549 148.089 330.95C147.886 331.351 147.576 331.688 147.193 331.923C145.498 333.168 142.551 333.181 140.579 333.495C137.898 333.907 135.197 334.176 132.488 334.301C120.261 334.911 108.198 332.826 96.3399 330.326L94.3164 329.894C94.0422 330.2 93.7192 330.424 93.4418 330.715L93.1591 331.054C93.0765 331.109 92.9764 331.13 92.8786 331.114L92.805 331.13C92.7946 331.138 92.7827 331.143 92.77 331.146C92.7572 331.149 92.7435 331.149 92.7308 331.146C89.0739 334.481 85.6274 338.002 82.2828 341.641C80.3653 343.722 78.4366 346.903 75.6781 347.943C71.4755 349.524 69.3573 345.694 71.2292 342.464C68.1936 342.227 65.2177 341.491 62.4212 340.284C62.1035 340.312 61.783 340.298 61.4691 340.241C56.2099 339.126 60.0748 328.325 63.9273 327.345C64.3114 326.93 64.8137 326.644 65.366 326.526C65.9183 326.408 66.4935 326.463 67.0137 326.683C67.7026 326.945 68.272 327.45 68.6152 328.103C70.4985 328.764 72.3225 329.583 74.0675 330.553C74.3337 329.277 74.6726 328.016 75.0819 326.779L75.3895 325.476C70.2432 324.167 65.1391 322.694 60.1446 321.012C51.81 318.159 42.5557 314.328 37.4936 306.707C37.2587 306.458 37.0706 306.168 36.9393 305.852L36.7059 305.484C36.6723 305.411 36.6618 305.329 36.675 305.249C36.6881 305.169 36.7248 305.094 36.7802 305.035C36.759 304.57 36.8378 304.106 37.0118 303.673C37.1857 303.241 37.4506 302.852 37.7882 302.531C38.7565 301.728 39.9308 301.214 41.1773 301.047C43.2961 300.769 45.3969 300.37 47.4706 299.853C48.5022 299.478 49.5123 298.998 50.5683 298.664C55.5421 297.15 61.2451 298.464 66.2436 299.372C73.0392 300.617 79.6929 302.543 86.1043 305.12C86.1781 305.149 86.2451 305.192 86.3013 305.248C86.5835 305.134 86.8835 305.07 87.1876 305.058C87.2749 304.997 87.3734 304.954 87.4774 304.932C87.5814 304.91 87.6889 304.909 87.7934 304.928C89.0805 305.24 90.4949 305.571 91.8959 305.982C95.6467 302.581 100.054 299.503 104.091 296.426C108.485 293.073 113.157 290.077 117.663 286.885C120.558 284.827 124.045 282.286 127.844 283.003C129.15 283.143 130.354 283.771 131.219 284.761C132.083 285.75 132.545 287.028 132.511 288.342C132.389 292.605 128.481 296.427 126.14 299.634C122.734 304.353 119.231 308.985 115.714 313.619C116.618 313.872 117.5 314.2 118.35 314.601C120.422 315.039 122.446 315.678 124.396 316.506C126.74 317.748 129.323 318.47 131.971 318.625C135.19 318.584 137.509 317.005 140.049 315.162C145.296 311.394 150.619 305.955 156.576 310.616L156.857 310.339C156.945 310.32 157.033 310.301 157.003 310.447L156.762 310.762C157.079 311.018 157.388 311.308 157.715 311.609C157.817 311.706 157.882 311.835 157.901 311.974C157.919 312.113 157.89 312.255 157.818 312.375ZM130.192 292.952C130.331 292.659 130.439 292.373 130.548 292.087C127.944 288.006 117.425 299.832 115.169 302.279C117.309 303.042 119.476 303.783 121.55 304.669C121.687 304.732 121.611 304.949 121.488 304.883C119.351 304.135 117.241 303.226 115.152 302.344L114.927 302.593C112.661 304.775 110.637 307.194 108.889 309.809C108.159 311.017 106.997 313.524 108.313 314.834C109.406 315.395 110.565 315.817 111.764 316.089C112.789 315.279 113.75 314.39 114.639 313.432C117.582 310.297 120.206 306.828 122.843 303.418C125.479 300.008 128.475 296.613 130.192 292.952ZM95.4836 304.703C94.8106 305.311 94.1903 305.877 93.452 306.468C95.6293 307.135 97.5869 308.376 99.1187 310.063C100.806 312.098 101.604 315.39 99.8906 317.628C98.9781 318.48 97.7994 318.989 96.5542 319.07C98.4078 319.214 100.252 319.314 102.071 319.295C105.441 319.305 108.718 318.195 111.388 316.139C109.769 315.79 108.295 315.256 106.766 314.825C106.69 314.803 106.626 314.75 106.588 314.68C106.55 314.61 106.54 314.528 106.562 314.452C108.31 307.181 115.152 301.555 120.372 296.649C121.887 295.211 128.4 287.398 130.827 291.084C132.021 286.421 128.818 283.15 123.957 284.253C121.787 284.913 119.745 285.936 117.917 287.279C114.534 289.426 111.269 291.751 108.134 294.246C104.234 297.385 100.164 302.108 95.5131 304.697L95.4836 304.703ZM85.5421 307.112C84.7679 308.749 84.1987 310.475 83.8478 312.253C83.7619 312.723 83.7094 313.2 83.6901 313.678L83.6278 314.109C83.6343 314.273 83.676 314.434 83.7501 314.581C83.8242 314.728 83.9292 314.857 84.0575 314.96C83.1098 313.276 85.4444 309.034 86.0455 307.947C86.246 307.557 86.5502 307.229 86.9243 307.001C86.7274 306.862 86.4948 306.783 86.2544 306.771C86.014 306.76 85.7755 306.817 85.5664 306.936C85.577 306.996 85.5684 307.057 85.5421 307.112ZM87.1489 313.385L86.9141 314.162C86.871 314.281 86.7978 314.388 86.7019 314.471C86.5569 314.764 86.3633 315.03 86.1292 315.258C87.4406 315.395 87.443 315.116 88.1675 313.739C88.6986 312.749 89.0635 311.678 89.2487 310.569C89.3611 310.083 89.4104 309.584 89.3945 309.085C89.6727 307.788 89.1984 307.163 87.9873 307.206C88.1229 307.436 88.205 307.693 88.2263 307.959C88.3706 309.841 88.0002 311.727 87.1552 313.415L87.1489 313.385ZM86.9201 316.929C88.9116 317.455 90.9623 317.723 93.0219 317.724C95.6392 317.828 99.468 318.538 99.558 314.777C99.6364 311.467 96.4647 309.425 93.7871 308.391C93.3313 308.21 91.1353 307.336 89.5233 306.877C89.7202 307.344 89.852 307.836 89.9143 308.339C90.0309 309.873 89.842 311.414 89.3593 312.874C88.8767 314.333 88.1098 315.683 87.1024 316.843L86.9201 316.929ZM92.2408 306.078L92.47 306.137L92.6597 305.942L92.2408 306.078ZM63.4566 338.918C64.9666 338.262 66.194 337.089 66.9187 335.61C68.1 333.728 68.6029 331.498 68.3445 329.29L67.6979 329.011C67.4069 330.61 66.921 332.168 66.2513 333.65C65.9599 334.58 65.5287 335.459 64.9722 336.259C64.7857 336.676 64.5179 337.053 64.1845 337.366C63.8511 337.679 63.4585 337.922 63.0301 338.082C60.3116 338.804 60.4811 336.062 61.0978 333.749C61.1441 333.461 61.2088 333.184 61.2646 332.94C61.496 331.999 61.7875 331.074 62.1382 330.171C61.1822 331.849 60.5766 333.705 60.3569 335.624C60.2233 337.524 61.1116 339.653 63.4566 338.918ZM72.6075 341.473C75.5066 341.594 75.7391 341.668 77.5784 339.078C79.7098 337.539 79.7366 335.909 77.6587 334.19L75.8143 332.791C74.7404 332.136 73.6203 331.56 72.4632 331.066C71.3301 330.536 70.1527 330.015 69.0533 329.57C69.1503 331.592 68.7321 333.605 67.8373 335.42C66.9426 337.235 65.6008 338.791 63.9388 339.944C65.2829 340.305 66.6818 340.562 67.989 340.823C69.5086 341.163 71.0531 341.381 72.6075 341.473ZM76.9414 342.307L77.2817 342.667L77.1645 342.553C77.1039 342.459 77.0282 342.376 76.9414 342.307ZM78.925 344.356C78.4207 344.228 77.9531 343.985 77.5586 343.646C77.1642 343.306 76.8541 342.88 76.6528 342.4C75.0575 342.821 73.3913 342.905 71.7617 342.643C71.0364 344.809 72.8653 345.917 77.2803 345.976C77.8804 345.461 78.4262 344.911 78.9546 344.349L78.925 344.356ZM93.0571 329.638C87.4266 328.448 81.8011 327.21 76.2149 325.794L75.9302 326.845C75.7196 328.267 75.4065 329.673 74.9932 331.05L74.9299 331.187C77.6013 332.842 79.847 334.958 80.0468 337.405L81.0876 336.207C80.9916 336.12 81.0465 336.015 81.2132 336.072C82.7656 334.091 84.5656 332.318 86.5699 330.796C87.0806 330.396 87.6861 330.133 88.3274 330.033C88.9687 329.934 89.6247 330.001 90.2329 330.228C90.4027 330.3 90.3059 330.568 90.154 330.507C86.9963 329.251 83.5462 333.841 81.4853 336.261C82.0447 336.635 82.6739 336.892 83.335 337.016C83.996 337.14 84.6754 337.129 85.332 336.983C85.3672 336.976 85.4038 336.983 85.4341 337.002C85.4644 337.022 85.4856 337.053 85.4932 337.088C85.5007 337.123 85.494 337.16 85.4744 337.19C85.4548 337.221 85.4243 337.242 85.389 337.25C84.6949 337.449 83.9623 337.477 83.255 337.329C82.5478 337.182 81.8869 336.864 81.3301 336.403L81.0939 336.67L80.0486 337.775C80.0367 338.648 79.7995 339.504 79.3601 340.258C78.9318 341.002 78.3014 341.609 77.5418 342.008L77.6383 342.095C77.6965 342.252 77.7694 342.402 77.8572 342.543L78.0286 342.692C78.2711 342.898 78.537 343.075 78.8209 343.218C79.0845 343.315 79.3381 343.436 79.5783 343.582C80.8334 342.23 82.0756 340.82 83.4341 339.446C86.2724 336.473 89.1893 333.575 92.0909 330.68C92.1074 330.624 92.139 330.574 92.1831 330.537L93.0571 329.638ZM146.539 329.234C146.081 329.115 145.63 329.027 145.193 328.935C142.187 328.388 137.544 328.053 135.17 325.84C133.471 324.256 133.546 321.797 136.278 321.784C136.343 321.778 136.407 321.798 136.459 321.838C139.509 321.825 142.547 322.213 145.496 322.994C147.677 318.754 151.758 315.235 155.308 311.908C153.719 309.898 149.151 310.568 147.286 311.524C146.14 312.189 145.046 312.94 144.014 313.771C142.084 315.144 140.248 316.666 138.244 317.915C136.563 319.032 134.648 319.747 132.646 320.004C130.644 320.262 128.609 320.054 126.699 319.399C124.069 318.586 121.635 317.391 118.926 316.642C117.297 316.249 115.703 316.018 114.183 315.556L113.806 315.961C114.035 316.038 114.234 316.184 114.374 316.38C114.681 316.671 114.879 317.057 114.935 317.476C114.991 317.895 114.902 318.32 114.682 318.68C114.546 318.905 114.354 319.091 114.124 319.219C113.894 319.347 113.634 319.413 113.371 319.41C112.851 319.359 112.369 319.115 112.02 318.725C111.77 318.516 111.586 318.238 111.493 317.926C106.101 321.601 99.3478 320.358 92.5442 319.388C89.9507 319.425 87.3862 318.834 85.0694 317.665C84.5654 317.618 84.0842 317.433 83.6786 317.13C83.2729 316.827 82.9585 316.417 82.7704 315.947C81.848 313.949 82.4909 311.183 83.5264 308.951C83.8273 307.924 84.3321 306.969 85.0103 306.143C77.146 303.053 68.9166 300.991 60.5259 300.009C57.4942 299.579 54.4111 299.68 51.4144 300.307C51.6553 300.544 51.8427 300.83 51.9636 301.145C52.0845 301.461 52.1357 301.799 52.1148 302.136C52.1089 302.296 52.0675 302.451 51.993 302.592C51.9186 302.733 51.8133 302.855 51.685 302.95C51.5567 303.044 51.4088 303.108 51.2523 303.137C51.0957 303.167 50.9342 303.16 50.7805 303.118C49.5778 302.912 48.3565 302.833 47.1443 302.583C46.5406 302.45 45.9463 302.278 45.3654 302.067L44.1842 302.32C43.6673 302.431 43.1246 302.424 42.5887 302.446C39.9492 302.238 38.669 303.688 38.7054 306.741C50.0402 319.775 70.4002 323.314 86.4868 326.948C96.3885 329.368 106.417 331.235 116.525 332.542C121.309 333.087 126.124 333.305 130.938 333.195C133.811 333.105 136.677 332.863 139.525 332.468C140.589 332.318 141.632 332.141 142.687 331.946C143.47 331.778 144.253 331.61 145.05 331.439L146.539 329.234ZM148.644 325.505L148.437 325.765C148.097 326.194 147.387 325.619 147.662 325.174C143.773 323.966 138.719 323.085 136.353 322.495C135.85 324.953 136.885 326.277 139.459 326.468L140.947 326.922C142.449 327.373 143.994 327.661 145.515 327.984L146.629 328.21C146.713 328.131 146.823 328.085 146.938 328.08C147.053 328.076 147.166 328.112 147.257 328.183L147.484 328.382L149.971 328.885C151.358 329.16 152.975 330.36 152.755 328.397C152.753 328.315 152.736 328.235 152.704 328.16C147.603 327.36 142.575 326.147 137.67 324.532C137.67 324.532 137.651 324.443 137.67 324.532C142.546 325.882 147.488 326.981 152.477 327.822C151.446 326.713 150.13 325.909 148.674 325.498L148.644 325.505ZM152.325 319.397L149.578 318.037C148.074 319.536 146.736 321.191 145.584 322.975L146.988 323.324L148.739 323.783C149.751 322.593 151.097 321.021 152.354 319.391L152.325 319.397ZM155.529 312.216C154.856 312.824 154.073 313.425 153.579 313.933L150.881 316.691L149.606 317.954C150.545 318.371 151.492 318.756 152.435 319.188C154.583 316.455 156.31 313.626 155.558 312.21L155.529 312.216Z" fill="#201306"/>
<path d="M56.7814 301.059C56.5337 301.074 56.2893 301.126 56.0573 301.214C55.7197 301.322 55.4229 301.53 55.207 301.811C54.9912 302.092 54.8666 302.433 54.8497 302.787L54.8846 302.517C54.8318 302.695 54.8191 302.882 54.8476 303.066C54.8873 303.37 55.0182 303.655 55.2232 303.882C55.259 303.914 55.2926 303.948 55.3228 303.985C55.533 304.197 55.7954 304.351 56.0835 304.43C56.3715 304.51 56.6752 304.512 56.9644 304.437C57.1974 304.372 57.4208 304.278 57.6296 304.155C57.9408 303.975 58.1851 303.698 58.3258 303.367C58.4665 303.036 58.4964 302.668 58.4102 302.318C58.3194 301.956 58.1091 301.634 57.8135 301.406C57.518 301.177 57.1547 301.055 56.7814 301.059Z" fill="#201306"/>
<path d="M62.4975 302.726C62.3745 302.786 62.2551 302.853 62.1392 302.926C61.9 303.069 61.7124 303.285 61.6036 303.542C61.4948 303.798 61.4699 304.083 61.5334 304.355C61.58 304.584 61.6735 304.802 61.8077 304.994C61.9418 305.186 62.1139 305.349 62.3134 305.471C62.514 305.605 62.7433 305.688 62.9827 305.715C63.222 305.742 63.4647 305.711 63.6896 305.625C63.9146 305.539 64.1153 305.4 64.2758 305.221C64.4363 305.041 64.5514 304.825 64.6118 304.592L64.5833 304.459C64.649 304.184 64.6371 303.897 64.5479 303.629C64.4588 303.361 64.2967 303.123 64.0796 302.943C63.8625 302.762 63.5988 302.646 63.3193 302.608C63.0397 302.57 62.755 302.611 62.4975 302.726Z" fill="#201306"/>
<path d="M67.9658 303.734C67.7744 303.815 67.6018 303.934 67.4585 304.084C67.3153 304.235 67.2046 304.413 67.1334 304.608C67.0621 304.804 67.0321 305.012 67.0447 305.219C67.0573 305.426 67.1126 305.629 67.2069 305.814C67.3647 306.119 67.6121 306.368 67.9158 306.528C68.1278 306.656 68.366 306.734 68.6124 306.755C68.8588 306.777 69.1071 306.743 69.3382 306.655C69.5693 306.566 69.7776 306.426 69.9468 306.246C70.116 306.065 70.2417 305.849 70.3148 305.612C70.3894 305.328 70.3942 305.03 70.3293 304.743C70.2604 304.507 70.14 304.289 69.9769 304.105C69.8137 303.921 69.6116 303.776 69.3855 303.679C69.1595 303.583 68.9156 303.538 68.6701 303.547C68.4246 303.557 68.1836 303.621 67.9658 303.734Z" fill="#201306"/>
<path d="M74.4372 304.883C74.0863 305.004 73.792 305.25 73.6107 305.574C73.4294 305.898 73.374 306.277 73.4545 306.64C73.5263 306.985 73.6645 307.312 73.8617 307.604C74.0609 307.932 74.3684 308.181 74.7309 308.306C75.0934 308.432 75.4881 308.427 75.8472 308.292C76.2129 308.163 76.5151 307.899 76.6912 307.553C76.8673 307.207 76.904 306.807 76.7933 306.435C76.6792 305.921 76.3694 305.471 75.9295 305.181C75.4897 304.891 74.9542 304.785 74.4372 304.883Z" fill="#201306"/>
<path d="M81.5367 307.522C81.2712 307.446 80.9882 307.459 80.7309 307.559C80.4735 307.659 80.2557 307.84 80.1105 308.074L79.9483 308.109C79.8929 308.157 79.848 308.217 79.8173 308.283C79.7867 308.35 79.7704 308.422 79.7701 308.495C79.7697 308.569 79.785 308.641 79.8149 308.708C79.8448 308.775 79.8888 308.835 79.9437 308.883C79.9809 309.102 80.0789 309.305 80.2264 309.471C80.3738 309.636 80.5649 309.756 80.7775 309.818C81.0883 309.903 81.4202 309.866 81.7038 309.713C81.9874 309.56 82.2011 309.303 82.3008 308.997C82.3717 308.7 82.3333 308.388 82.193 308.117C82.0527 307.846 81.8199 307.635 81.5367 307.522Z" fill="#201306"/>
<path d="M120.287 318.02C119.858 318.023 119.448 318.192 119.14 318.491C118.833 318.79 118.653 319.197 118.638 319.626C118.637 320.053 118.802 320.463 119.098 320.769C119.395 321.075 119.8 321.253 120.226 321.265C120.655 321.271 121.069 321.107 121.378 320.809C121.687 320.512 121.867 320.104 121.878 319.674C121.875 319.247 121.709 318.837 121.413 318.529C121.117 318.221 120.713 318.039 120.287 318.02Z" fill="#201306"/>
<path d="M127.815 322.731C127.988 322.556 128.101 322.33 128.137 322.086C128.174 321.842 128.132 321.592 128.018 321.374C127.871 321.14 127.649 320.965 127.388 320.877C127.127 320.789 126.844 320.795 126.586 320.892L126.512 320.908C126.443 320.859 126.36 320.836 126.275 320.842C126.191 320.849 126.111 320.885 126.051 320.943C125.99 321.002 125.952 321.08 125.943 321.165C125.933 321.249 125.954 321.333 126.001 321.404L126.02 321.492C125.915 321.72 125.888 321.976 125.94 322.221C125.993 322.466 126.123 322.687 126.311 322.853C126.532 323.024 126.808 323.106 127.086 323.084C127.364 323.062 127.625 322.936 127.815 322.731Z" fill="#201306"/>
<path d="M128.157 329.663C128.144 329.496 128.109 329.332 128.052 329.175C128.034 329.14 128.006 329.11 127.972 329.09C127.937 329.07 127.898 329.06 127.859 329.062C127.708 329.085 127.564 329.142 127.439 329.228C127.313 329.314 127.208 329.426 127.131 329.558C126.929 329.93 126.858 330.359 126.929 330.776C127.122 331.678 128.586 331.302 128.405 330.46C128.282 330.209 128.197 329.94 128.157 329.663Z" fill="#201306"/>
<path d="M125.631 329.121C125.154 329.347 124.708 330 125.135 330.48C125.17 330.511 125.212 330.533 125.257 330.545C125.303 330.557 125.35 330.558 125.396 330.548C125.442 330.538 125.485 330.518 125.522 330.488C125.559 330.459 125.588 330.422 125.607 330.379C125.776 330.157 125.731 329.873 125.971 329.698C126.014 329.641 126.039 329.572 126.043 329.501C126.047 329.429 126.029 329.358 125.993 329.297C125.957 329.235 125.903 329.186 125.839 329.154C125.775 329.123 125.702 329.112 125.631 329.121Z" fill="#201306"/>
<path d="M123.675 329.293C123.503 329.385 123.308 329.427 123.114 329.413C123.078 329.412 123.042 329.422 123.012 329.442C122.982 329.461 122.958 329.489 122.943 329.522C122.929 329.555 122.925 329.591 122.931 329.627C122.937 329.662 122.954 329.695 122.979 329.721C123.111 329.831 123.275 329.897 123.446 329.91C123.618 329.923 123.789 329.882 123.937 329.794C124.203 329.597 123.928 329.177 123.675 329.293Z" fill="#201306"/>
<path d="M90.9069 325.228C90.8345 325.209 90.7584 325.209 90.686 325.228C90.6136 325.247 90.5473 325.284 90.4934 325.336C90.4395 325.388 90.4002 325.453 90.3784 325.525C90.3566 325.596 90.3533 325.672 90.3691 325.745C90.3635 325.828 90.3811 325.909 90.4198 325.982C90.4282 326.019 90.4451 326.054 90.4693 326.083C90.4936 326.112 90.5244 326.135 90.5592 326.15C90.5941 326.166 90.6319 326.172 90.6698 326.17C90.7077 326.168 90.7446 326.156 90.7774 326.137C90.8854 326.093 90.9818 326.025 91.059 325.938C91.1123 325.888 91.1519 325.825 91.1737 325.755C91.1955 325.686 91.1987 325.611 91.1834 325.54C91.1681 325.469 91.1348 325.402 91.0864 325.348C91.0379 325.293 90.976 325.252 90.9069 325.228Z" fill="#201306"/>
<path d="M89.3241 323.897L88.9693 323.973C88.6001 324.052 88.8777 324.627 89.1594 324.427C89.2585 324.356 89.3497 324.274 89.4314 324.184C89.519 324.088 89.4602 323.884 89.3241 323.897Z" fill="#201306"/>
<path d="M91.1499 314.105C90.7271 314.246 90.3673 314.531 90.1331 314.91C89.9843 315.082 90.1699 315.444 90.4104 315.269C90.8202 315.062 91.1453 314.719 91.3301 314.298C91.3344 314.273 91.3326 314.247 91.3252 314.223C91.3179 314.198 91.3052 314.176 91.2878 314.157C91.2703 314.138 91.2484 314.124 91.2244 314.115C91.2005 314.106 91.1753 314.102 91.1499 314.105Z" fill="#201306"/>
<path d="M92.3031 314.878C92.0133 314.935 91.7387 315.052 91.4964 315.221C91.4571 315.256 91.4309 315.303 91.4224 315.355C91.4139 315.406 91.4232 315.459 91.4493 315.505C91.4754 315.55 91.5166 315.585 91.5655 315.604C91.6145 315.622 91.6682 315.623 91.7178 315.607C91.9805 315.477 92.2207 315.306 92.4281 315.099C92.4453 315.078 92.4558 315.052 92.4581 315.024C92.4604 314.997 92.4548 314.97 92.4413 314.946C92.4279 314.922 92.4073 314.903 92.3828 314.891C92.3582 314.879 92.3302 314.874 92.3031 314.878Z" fill="#201306"/>
<path d="M93.2395 315.714C93.608 315.506 93.9541 315.261 94.2722 314.982C94.2969 314.957 94.3114 314.923 94.3138 314.888C94.3163 314.852 94.3066 314.817 94.2857 314.788C94.2648 314.76 94.2339 314.739 94.1994 314.731C94.1649 314.722 94.1288 314.726 94.0969 314.741C93.7442 314.953 93.4079 315.19 93.0906 315.452C92.944 315.561 93.0781 315.826 93.2395 315.714Z" fill="#201306"/>
<path d="M68.2461 338.634C67.7588 338.739 67.2756 338.935 66.7693 338.951C66.2629 338.966 66.5911 339.345 66.858 339.365C67.1423 339.426 67.4373 339.415 67.7165 339.334C67.9957 339.253 68.2504 339.103 68.4573 338.898C68.4626 338.867 68.4609 338.835 68.4529 338.804C68.4449 338.773 68.4306 338.744 68.4107 338.719C68.3907 338.694 68.3658 338.674 68.3375 338.659C68.3091 338.645 68.278 338.636 68.2461 338.634Z" fill="#201306"/>
<path d="M69.527 339.349C69.3655 339.361 69.2059 339.395 69.0539 339.451C68.8176 339.501 68.9179 339.897 69.1331 339.82C69.2934 339.801 69.452 339.767 69.6062 339.719C69.6551 339.709 69.6979 339.679 69.7251 339.637C69.7523 339.595 69.7617 339.544 69.7512 339.495C69.7407 339.446 69.7111 339.403 69.6691 339.376C69.6271 339.348 69.5759 339.339 69.527 339.349Z" fill="#201306"/>
<path d="M71.2153 339.297C71.0938 339.318 70.9816 339.376 70.8951 339.464C70.8087 339.552 70.7518 339.665 70.7327 339.787C70.7549 339.89 70.8778 339.957 70.9147 339.841C70.9421 339.754 70.9898 339.675 71.0538 339.61C71.1178 339.545 71.1964 339.496 71.2829 339.468C71.3055 339.459 71.3231 339.442 71.3327 339.419C71.3424 339.397 71.3432 339.371 71.3342 339.349C71.3253 339.326 71.3073 339.308 71.285 339.298C71.2626 339.289 71.238 339.288 71.2153 339.297Z" fill="#201306"/>
<path d="M50.217 312.454C50.3525 312.676 50.53 312.869 50.74 313.022C50.74 313.022 50.9177 312.984 50.9029 312.987C50.8312 312.733 50.7066 312.496 50.5376 312.293C50.3709 312.019 50.0988 312.263 50.217 312.454Z" fill="#201306"/>
<path d="M52.6239 313.593L52.3282 313.656C52.0919 313.707 52.2597 314.058 52.3916 313.952L52.6587 313.756C52.6731 313.745 52.6843 313.731 52.6907 313.715C52.697 313.698 52.6984 313.68 52.6947 313.663C52.691 313.646 52.6824 313.63 52.6699 313.617C52.6573 313.605 52.6412 313.596 52.6239 313.593Z" fill="#201306"/>
<path d="M54.1788 314.002C54.1436 314.01 54.1123 314.031 54.0927 314.061C54.0731 314.091 54.0664 314.128 54.0739 314.164C54.0815 314.199 54.1027 314.23 54.133 314.249C54.1633 314.269 54.2006 314.276 54.2358 314.268C54.2711 314.261 54.3016 314.239 54.3212 314.209C54.3408 314.179 54.3476 314.142 54.34 314.107C54.3325 314.071 54.3112 314.04 54.2809 314.021C54.2506 314.001 54.2141 313.995 54.1788 314.002Z" fill="#201306"/>
<path d="M71.4064 319.573C71.2624 319.597 71.1253 319.652 71.0043 319.734C70.8834 319.816 70.7813 319.923 70.7049 320.048C70.5741 320.23 70.7998 320.491 71.0192 320.289C71.1723 320.129 71.3446 319.988 71.532 319.87C71.5619 319.848 71.5837 319.816 71.5935 319.78C71.6033 319.745 71.6006 319.706 71.5861 319.672C71.5716 319.638 71.5456 319.609 71.513 319.591C71.4804 319.573 71.4431 319.567 71.4064 319.573Z" fill="#201306"/>
<path d="M72.6587 320.588C72.376 320.741 72.1154 320.932 71.8843 321.156C71.6966 321.289 71.9795 321.599 72.105 321.464C72.3781 321.296 72.6306 321.096 72.8578 320.87C72.8809 320.839 72.8941 320.802 72.8946 320.763C72.8952 320.725 72.8832 320.687 72.8611 320.656C72.8389 320.624 72.8076 320.601 72.7713 320.589C72.7349 320.577 72.6952 320.576 72.6587 320.588Z" fill="#201306"/>
<path d="M73.6766 320.942C73.5261 320.958 73.378 320.99 73.2338 321.036C73.0714 321.071 73.1463 321.349 73.2909 321.303L73.7632 321.201C73.8866 321.129 73.7947 320.916 73.6766 320.942Z" fill="#201306"/>
<path d="M78.5211 319.903C78.6324 320.304 78.7873 320.691 78.984 321.057C78.9972 321.078 79.0164 321.094 79.0392 321.103C79.0619 321.113 79.0874 321.115 79.1115 321.11C79.1356 321.105 79.1579 321.092 79.1747 321.074C79.1916 321.056 79.2025 321.034 79.2061 321.009C79.1263 320.611 79.0015 320.222 78.8344 319.852C78.7605 319.651 78.4652 319.714 78.5211 319.903Z" fill="#201306"/>
<path d="M80.7411 320.247C80.779 319.992 80.4165 319.884 80.3754 320.125C80.3253 320.341 80.3236 320.566 80.3701 320.783C80.4166 321 80.5103 321.204 80.6447 321.381C80.6497 321.405 80.6639 321.425 80.6841 321.438C80.7042 321.452 80.7289 321.456 80.7524 321.451C80.7759 321.446 80.7965 321.432 80.8095 321.412C80.8226 321.391 80.8271 321.367 80.822 321.343C80.7708 320.98 80.7434 320.614 80.7411 320.247Z" fill="#201306"/>
<path d="M106.612 307.545C106.752 307.623 106.907 307.482 106.792 307.305C106.575 307.094 106.347 306.896 106.108 306.71C105.941 306.575 105.68 306.801 105.851 306.95C106.084 307.173 106.339 307.372 106.612 307.545Z" fill="#201306"/>
<path d="M108.292 305.005C108.313 305.007 108.336 305.005 108.356 304.997C108.376 304.99 108.394 304.978 108.409 304.962C108.423 304.946 108.434 304.927 108.44 304.906C108.445 304.885 108.446 304.863 108.442 304.841C108.437 304.82 108.427 304.8 108.413 304.784C108.4 304.767 108.382 304.754 108.362 304.745C108.342 304.736 108.321 304.733 108.299 304.734C108.278 304.736 108.257 304.742 108.238 304.753C108.214 304.768 108.195 304.79 108.184 304.816C108.172 304.842 108.17 304.871 108.176 304.898C108.181 304.926 108.196 304.951 108.217 304.97C108.237 304.989 108.264 305.001 108.292 305.005Z" fill="#201306"/>
<path d="M111.59 301.654C111.54 301.417 111.492 301.196 111.515 300.943C111.538 300.691 111.169 300.77 111.22 301.007C111.271 301.243 111.321 301.48 111.372 301.716C111.423 301.953 111.598 301.761 111.59 301.654Z" fill="#201306"/>
<path d="M110.426 327.942C110.509 328.139 110.607 328.33 110.719 328.513C110.747 328.646 111.04 328.568 110.985 328.456C110.915 328.24 110.823 328.032 110.712 327.834C110.617 327.607 110.341 327.759 110.426 327.942Z" fill="#201306"/>
<path d="M113.039 326.949C112.918 326.743 112.571 326.926 112.711 327.143C112.899 327.476 113.206 327.725 113.57 327.84C113.589 327.851 113.611 327.853 113.632 327.847C113.652 327.841 113.67 327.828 113.68 327.809C113.69 327.79 113.692 327.768 113.686 327.748C113.681 327.727 113.667 327.71 113.648 327.7C113.427 327.465 113.224 327.214 113.039 326.949Z" fill="#201306"/>
<path d="M545.446 21.8132C562.429 9.15966 587.217 13.8987 604.928 25.4733C637.245 46.5354 654.221 88.8519 645.295 126.421C641.691 141.681 632.53 157.39 617.354 161.322C615.574 161.898 613.672 161.986 611.847 161.574C606.339 160.018 605.808 151.194 610.441 147.805C615.075 144.415 622.013 146.083 626.066 150.147C630.119 154.211 631.896 159.984 633.02 165.665C639.472 198.3 627.901 233.25 605.559 257.953C583.218 282.655 551.073 297.29 518.072 301.439C509.244 302.741 500.274 302.762 491.44 301.501C479.568 299.515 468.483 294.205 456.722 291.654C444.961 289.102 431.326 289.844 422.736 298.271C418.673 302.234 416.08 308.155 417.404 313.685C418.728 319.215 424.879 323.557 430.254 321.755C435.63 319.954 437.874 312.979 436.889 307.299C435.139 297.33 426.352 289.703 416.672 286.768C406.991 283.832 396.619 284.879 386.666 286.656C364.159 290.802 342.6 299.032 323.054 310.94C309.608 319.125 297.208 329.018 283.355 336.455C265.869 345.714 246.546 350.976 226.781 351.861C207.015 352.746 187.298 349.232 169.049 341.574" stroke="#201306" stroke-width="0.96" stroke-miterlimit="10" stroke-linecap="round" stroke-dasharray="5.26 5.26"/>
</g>
<defs>
<clipPath id="clip0_365_9587">
<rect width="642.158" height="273.943" fill="white" transform="matrix(-0.977805 0.209517 0.209517 0.977805 627.906 0)"/>
</clipPath>
</defs>
</svg>
