<svg width="30" height="30" viewBox="0 0 30 30" fill="none" xmlns="http://www.w3.org/2000/svg">
<g clip-path="url(#clip0_551_1193)">
<path d="M29.9994 13.1596C29.9996 13.0359 29.9606 12.9153 29.8881 12.815C29.8623 12.7798 29.8326 12.7475 29.7996 12.7189L27.7775 10.9494C28.0007 10.7706 28.1809 10.5439 28.3048 10.2861C28.4286 10.0283 28.4929 9.74597 28.493 9.45997V8.49844C28.493 7.57134 28.218 6.66506 27.703 5.8942C27.1879 5.12335 26.4558 4.52255 25.5993 4.16776C24.7428 3.81298 23.8003 3.72015 22.891 3.90101C21.9817 4.08188 21.1465 4.52832 20.4909 5.18388C19.8353 5.83944 19.3889 6.67467 19.208 7.58395C19.0272 8.49324 19.12 9.43574 19.4748 10.2923C19.8296 11.1488 20.4304 11.8809 21.2012 12.3959C21.9721 12.911 22.8784 13.1859 23.8055 13.1859C23.9609 13.1859 24.1099 13.1242 24.2198 13.0143C24.3297 12.9044 24.3914 12.7554 24.3914 12.6C24.3914 12.4446 24.3297 12.2956 24.2198 12.1857C24.1099 12.0758 23.9609 12.0141 23.8055 12.0141C23.1101 12.0141 22.4304 11.8079 21.8523 11.4216C21.2742 11.0353 20.8235 10.4862 20.5575 9.84382C20.2914 9.20142 20.2217 8.49454 20.3574 7.81258C20.493 7.13061 20.8279 6.50419 21.3195 6.01252C21.8112 5.52085 22.4376 5.18602 23.1196 5.05037C23.8016 4.91472 24.5084 4.98434 25.1508 5.25043C25.7932 5.51652 26.3423 5.96712 26.7286 6.54526C27.1149 7.1234 27.3211 7.80311 27.3211 8.49844V9.45997C27.3211 9.65639 27.2431 9.84477 27.1042 9.98366C26.9653 10.1226 26.7769 10.2006 26.5805 10.2006C26.3841 10.2006 26.1957 10.1226 26.0568 9.98366C25.9179 9.84477 25.8398 9.65639 25.8398 9.45997V6.96563C25.8399 6.88588 25.8236 6.80697 25.7921 6.73373C25.7605 6.66048 25.7144 6.59444 25.6565 6.53965C25.291 6.19414 24.8362 5.95775 24.3435 5.85721C23.8508 5.75667 23.3397 5.79598 22.8682 5.97071C22.3966 6.14543 21.9833 6.44859 21.6751 6.84592C21.3668 7.24325 21.1758 7.71891 21.1238 8.2191C21.0717 8.71929 21.1607 9.22407 21.3805 9.67636C21.6003 10.1287 21.9423 10.5104 22.3678 10.7785C22.7933 11.0466 23.2853 11.1903 23.7881 11.1934C24.291 11.1964 24.7848 11.0588 25.2135 10.7959C25.5603 11.1517 26.0322 11.3579 26.5289 11.3707C26.5611 11.4271 26.6025 11.4778 26.6514 11.5207L28.476 13.118L23.7885 16.5275V14.9994C23.7885 14.844 23.7267 14.695 23.6169 14.5851C23.507 14.4752 23.3579 14.4135 23.2025 14.4135C23.0471 14.4135 22.8981 14.4752 22.7882 14.5851C22.6783 14.695 22.6166 14.844 22.6166 14.9994V17.3795L18.2426 20.5623L15.344 18.4529C15.2438 18.3801 15.1232 18.3409 14.9994 18.3409C14.8756 18.3409 14.755 18.3801 14.6549 18.4529L11.7563 20.5623L1.54861 13.1356L4.88262 10.2182C4.9415 10.1678 4.98978 10.1062 5.0247 10.0371C5.05962 9.96788 5.08046 9.89245 5.08604 9.81516C5.09162 9.73787 5.08183 9.66025 5.0572 9.58678C5.03257 9.51331 4.99362 9.44544 4.94259 9.38713C4.89156 9.32881 4.82947 9.28121 4.75991 9.24705C4.69036 9.21289 4.6147 9.19287 4.53735 9.18814C4.46001 9.18342 4.3825 9.19409 4.3093 9.21953C4.2361 9.24496 4.16867 9.28466 4.11092 9.33633L0.215607 12.7049C0.148301 12.7598 0.0940548 12.8289 0.0567627 12.9074C0.0194706 12.9858 8.41366e-05 13.0715 0 13.1584V29.4123C0 29.5677 0.0617196 29.7167 0.171604 29.8266C0.281489 29.9365 0.430537 29.9982 0.585938 29.9982H29.4141C29.5695 29.9982 29.7185 29.9365 29.8284 29.8266C29.9383 29.7167 30 29.5677 30 29.4123V13.1596H29.9994ZM24.6674 9.75294C24.4386 9.9102 24.1713 10.002 23.8941 10.0184C23.617 10.0347 23.3407 9.97506 23.0951 9.84583C22.8494 9.7166 22.6437 9.52271 22.5002 9.28509C22.3567 9.04746 22.2809 8.77515 22.2809 8.49756C22.2809 8.21997 22.3567 7.94766 22.5002 7.71004C22.6437 7.47241 22.8494 7.27851 23.0951 7.14928C23.3407 7.02005 23.617 6.9604 23.8941 6.97677C24.1713 6.99315 24.4386 7.08492 24.6674 7.24219V9.75294ZM28.8275 14.3104V28.265L19.2387 21.2865L28.8275 14.3104ZM1.17127 14.3104L10.7607 21.2865L1.17188 28.265L1.17127 14.3104ZM2.38652 28.8275L15 19.6518L27.6123 28.8275H2.38652Z" fill="url(#paint0_linear_551_1193)"/>
<path d="M6.79688 13.4174C6.95228 13.4174 7.1013 13.3556 7.21118 13.2458C7.32106 13.1359 7.38281 12.9868 7.38281 12.8314V4.97988H19.3828L19.3775 4.96582H19.3822C19.5016 4.96586 19.6182 4.92939 19.7163 4.86134C19.8144 4.79328 19.8894 4.69689 19.9312 4.58503C19.973 4.47318 19.9797 4.35123 19.9503 4.2355C19.9208 4.11978 19.8568 4.0158 19.7666 3.9375L15.3838 0.140621C15.2774 0.0487455 15.1415 -0.00180054 15.0009 -0.00180054C14.8603 -0.00180054 14.7244 0.0487455 14.618 0.140621L12.5086 1.95703C12.3909 2.0585 12.3183 2.20259 12.3068 2.35758C12.2953 2.51258 12.3459 2.66578 12.4474 2.78349C12.5488 2.90121 12.6929 2.9738 12.8479 2.98528C13.0029 2.99676 13.1561 2.94619 13.2738 2.84472L14.9994 1.35879L17.8277 3.8086H6.79688C6.64147 3.8086 6.49243 3.87032 6.38254 3.9802C6.27266 4.09008 6.21094 4.23913 6.21094 4.39453V12.832C6.21109 12.9873 6.27287 13.1362 6.38274 13.246C6.49261 13.3557 6.64158 13.4174 6.79688 13.4174Z" fill="url(#paint1_linear_551_1193)"/>
<path d="M9.22461 10.8979H15.084C15.2394 10.8979 15.3884 10.8361 15.4983 10.7262C15.6082 10.6164 15.6699 10.4673 15.6699 10.3119C15.6699 10.1565 15.6082 10.0075 15.4983 9.8976C15.3884 9.78772 15.2394 9.72598 15.084 9.72598H9.22461C9.06921 9.72598 8.92016 9.78772 8.81028 9.8976C8.70039 10.0075 8.63867 10.1565 8.63867 10.3119C8.63867 10.4673 8.70039 10.6164 8.81028 10.7262C8.92016 10.8361 9.06921 10.8979 9.22461 10.8979Z" fill="url(#paint2_linear_551_1193)"/>
<path d="M9.22461 7.96817H15.0008C15.1562 7.96817 15.3052 7.90644 15.4151 7.79655C15.525 7.68667 15.5867 7.53763 15.5867 7.38223C15.5867 7.22683 15.525 7.0778 15.4151 6.96791C15.3052 6.85803 15.1562 6.7963 15.0008 6.7963H9.22461C9.06921 6.7963 8.92016 6.85803 8.81028 6.96791C8.70039 7.0778 8.63867 7.22683 8.63867 7.38223C8.63867 7.53763 8.70039 7.68667 8.81028 7.79655C8.92016 7.90644 9.06921 7.96817 9.22461 7.96817Z" fill="url(#paint3_linear_551_1193)"/>
<path d="M6.79655 15.7805C6.93204 15.7801 7.06319 15.7328 7.16772 15.6466C7.27224 15.5604 7.34366 15.4406 7.36982 15.3077C7.39598 15.1747 7.37526 15.0368 7.3112 14.9174C7.24713 14.7981 7.14367 14.7046 7.01843 14.6529C6.89319 14.6012 6.75391 14.5945 6.62429 14.634C6.49468 14.6734 6.38276 14.7566 6.30755 14.8693C6.23234 14.982 6.19851 15.1172 6.21182 15.2521C6.22513 15.3869 6.28475 15.513 6.38053 15.6088C6.43514 15.6634 6.5 15.7067 6.57139 15.7361C6.64279 15.7656 6.71932 15.7807 6.79655 15.7805Z" fill="url(#paint4_linear_551_1193)"/>
<path d="M18.9603 13.7865H17.8125C17.6571 13.7865 17.5081 13.7248 17.3982 13.6149C17.2883 13.505 17.2266 13.356 17.2266 13.2006C17.2266 13.0452 17.2883 12.8962 17.3982 12.7863C17.5081 12.6764 17.6571 12.6147 17.8125 12.6147H18.9603C19.1157 12.6147 19.2648 12.6764 19.3747 12.7863C19.4846 12.8962 19.5463 13.0452 19.5463 13.2006C19.5463 13.356 19.4846 13.505 19.3747 13.6149C19.2648 13.7248 19.1157 13.7865 18.9603 13.7865Z" fill="url(#paint5_linear_551_1193)"/>
<path d="M15.2233 13.7865H15.2168C15.0614 13.7865 14.9124 13.7248 14.8025 13.6149C14.6926 13.505 14.6309 13.356 14.6309 13.2006C14.6309 13.0452 14.6926 12.8962 14.8025 12.7863C14.9124 12.6764 15.0614 12.6147 15.2168 12.6147H15.2233C15.3787 12.6147 15.5277 12.6764 15.6376 12.7863C15.7475 12.8962 15.8092 13.0452 15.8092 13.2006C15.8092 13.356 15.7475 13.505 15.6376 13.6149C15.5277 13.7248 15.3787 13.7865 15.2233 13.7865Z" fill="url(#paint6_linear_551_1193)"/>
<path d="M12.4217 13.7865H9.2207C9.0653 13.7865 8.91625 13.7248 8.80637 13.6149C8.69649 13.505 8.63477 13.356 8.63477 13.2006C8.63477 13.0452 8.69649 12.8962 8.80637 12.7863C8.91625 12.6764 9.0653 12.6147 9.2207 12.6147H12.4217C12.5771 12.6147 12.7261 12.6764 12.836 12.7863C12.9459 12.8962 13.0076 13.0452 13.0076 13.2006C13.0076 13.356 12.9459 13.505 12.836 13.6149C12.7261 13.7248 12.5771 13.7865 12.4217 13.7865Z" fill="url(#paint7_linear_551_1193)"/>
</g>
<defs>
<linearGradient id="paint0_linear_551_1193" x1="0" y1="16.9049" x2="30" y2="16.9049" gradientUnits="userSpaceOnUse">
<stop stop-color="#08AC9E"/>
<stop offset="0.92" stop-color="#FF621F"/>
</linearGradient>
<linearGradient id="paint1_linear_551_1193" x1="6.21094" y1="6.70899" x2="19.9687" y2="6.70899" gradientUnits="userSpaceOnUse">
<stop stop-color="#08AC9E"/>
<stop offset="0.92" stop-color="#FF621F"/>
</linearGradient>
<linearGradient id="paint2_linear_551_1193" x1="8.63867" y1="10.3119" x2="15.6682" y2="10.3119" gradientUnits="userSpaceOnUse">
<stop stop-color="#08AC9E"/>
<stop offset="0.92" stop-color="#FF621F"/>
</linearGradient>
<linearGradient id="paint3_linear_551_1193" x1="8.63867" y1="7.38223" x2="15.5867" y2="7.38223" gradientUnits="userSpaceOnUse">
<stop stop-color="#08AC9E"/>
<stop offset="0.92" stop-color="#FF621F"/>
</linearGradient>
<linearGradient id="paint4_linear_551_1193" x1="6.21062" y1="15.1945" x2="7.38247" y2="15.1945" gradientUnits="userSpaceOnUse">
<stop stop-color="#08AC9E"/>
<stop offset="0.92" stop-color="#FF621F"/>
</linearGradient>
<linearGradient id="paint5_linear_551_1193" x1="17.2266" y1="13.2006" x2="19.5463" y2="13.2006" gradientUnits="userSpaceOnUse">
<stop stop-color="#08AC9E"/>
<stop offset="0.92" stop-color="#FF621F"/>
</linearGradient>
<linearGradient id="paint6_linear_551_1193" x1="14.6309" y1="13.2006" x2="15.8092" y2="13.2006" gradientUnits="userSpaceOnUse">
<stop stop-color="#08AC9E"/>
<stop offset="0.92" stop-color="#FF621F"/>
</linearGradient>
<linearGradient id="paint7_linear_551_1193" x1="8.63477" y1="13.2006" x2="13.0076" y2="13.2006" gradientUnits="userSpaceOnUse">
<stop stop-color="#08AC9E"/>
<stop offset="0.92" stop-color="#FF621F"/>
</linearGradient>
<clipPath id="clip0_551_1193">
<rect width="30" height="29.9994" fill="white"/>
</clipPath>
</defs>
</svg>
