<svg width="24" height="37" viewBox="0 0 24 37" fill="none" xmlns="http://www.w3.org/2000/svg">
<g clip-path="url(#clip0_552_1209)">
<path d="M12.0679 2.82436C11.9283 2.82343 11.7916 2.86393 11.675 2.94071C11.5584 3.0175 11.4672 3.12713 11.413 3.25575C11.3587 3.38437 11.3438 3.52619 11.3701 3.66329C11.3964 3.80039 11.4628 3.92659 11.5608 4.02596C11.6589 4.12533 11.7842 4.1934 11.9209 4.22154C12.0577 4.24969 12.1997 4.23668 12.3291 4.18411C12.4584 4.13155 12.5692 4.04182 12.6475 3.92627C12.7258 3.81071 12.7682 3.67452 12.7691 3.53492C12.7699 3.44219 12.7523 3.35023 12.7175 3.2643C12.6826 3.17837 12.6311 3.10014 12.566 3.03414C12.5009 2.96813 12.4233 2.91564 12.3379 2.87964C12.2524 2.84364 12.1607 2.82485 12.0679 2.82436Z" fill="url(#paint0_linear_552_1209)"/>
<path d="M12.0428 7.0595C11.3939 7.05461 10.7504 7.17759 10.1491 7.42138C9.54774 7.66518 9.00033 8.02504 8.53806 8.4804C8.0758 8.93576 7.70774 9.4777 7.45493 10.0753C7.20211 10.6729 7.06947 11.3144 7.06459 11.9633C7.05971 12.6122 7.18268 13.2556 7.42648 13.857C7.67028 14.4583 8.03013 15.0057 8.48549 15.468C8.94085 15.9303 9.48282 16.2983 10.0804 16.5511C10.678 16.8039 11.3195 16.9366 11.9684 16.9415H12.006C12.6549 16.9439 13.2979 16.8185 13.8983 16.5724C14.4987 16.3263 15.0447 15.9644 15.5052 15.5073C15.9657 15.0502 16.3317 14.5068 16.5822 13.9083C16.8328 13.3097 16.963 12.6677 16.9654 12.0188C16.9678 11.37 16.8424 10.727 16.5963 10.1266C16.3502 9.52622 15.9883 8.98016 15.5312 8.51964C15.0741 8.05912 14.5307 7.69315 13.9322 7.44262C13.3337 7.19208 12.6916 7.06191 12.0428 7.0595ZM12.006 15.5298H11.9787C11.0567 15.5054 10.1809 15.1212 9.53858 14.4593C8.89625 13.7974 8.53847 12.9104 8.54179 11.988C8.54511 11.0657 8.90924 10.1813 9.55632 9.52408C10.2034 8.86683 11.082 8.48892 12.0042 8.47121H12.0314C12.9675 8.47458 13.8638 8.84963 14.5233 9.51388C15.1828 10.1781 15.5514 11.0772 15.548 12.0132C15.5447 12.9492 15.1696 13.8455 14.5053 14.505C13.8411 15.1645 12.9421 15.5331 12.006 15.5298Z" fill="url(#paint1_linear_552_1209)"/>
<path d="M15.0787 3.35893C14.9031 3.30006 14.7114 3.31257 14.5449 3.39374C14.3784 3.47491 14.2506 3.61824 14.1888 3.79285C14.1271 3.96746 14.1364 4.15934 14.2149 4.32711C14.2933 4.49488 14.4345 4.62512 14.6081 4.68971C16.1266 5.22996 17.439 6.22978 18.3631 7.55024C19.2873 8.8707 19.7771 10.4462 19.7646 12.0579C19.7639 12.1506 19.7814 12.2425 19.8162 12.3284C19.851 12.4144 19.9023 12.4926 19.9674 12.5587C20.0324 12.6247 20.1097 12.6773 20.1951 12.7135C20.2805 12.7497 20.3721 12.7686 20.4648 12.7694H20.4705C20.6567 12.7694 20.8354 12.6958 20.9676 12.5647C21.0998 12.4335 21.1748 12.2554 21.1763 12.0692C21.191 10.1638 20.6118 8.30125 19.5192 6.74025C18.4266 5.17926 16.8748 3.99739 15.0796 3.35893H15.0787Z" fill="url(#paint2_linear_552_1209)"/>
<path d="M16.3311 26.5712C21.0255 20.5281 23.9599 17.3772 23.9995 12.0899C24.0493 5.4379 18.65 0 11.999 0C8.83341 0.00434135 5.79741 1.25775 3.55073 3.48787C1.30404 5.71799 0.0281735 8.74464 0.000405829 11.9101C-0.0400632 17.3405 2.949 20.4877 7.67635 26.5703C2.97065 27.2733 0.000405829 29.0389 0.000405829 31.1988C0.000405829 32.6453 1.33776 33.9441 3.76496 34.8551C5.9757 35.6833 8.89984 36.1398 11.999 36.1398C15.0982 36.1398 18.0223 35.6833 20.233 34.8551C22.6612 33.9441 23.9976 32.6453 23.9976 31.1988C23.9976 29.0398 21.0273 27.2752 16.3292 26.5712H16.3311ZM1.41212 11.9205C1.42256 10.5301 1.70679 9.15532 2.24853 7.87474C2.79026 6.59416 3.57893 5.43283 4.56948 4.45704C5.56004 3.48126 6.73307 2.71013 8.02164 2.18769C9.31021 1.66525 10.6891 1.40173 12.0795 1.41217C13.4699 1.42261 14.8446 1.70682 16.1252 2.24856C17.4058 2.79029 18.5671 3.57896 19.5429 4.56951C20.5187 5.56007 21.2898 6.73313 21.8123 8.0217C22.3347 9.31027 22.5982 10.6891 22.5878 12.0795C22.5501 17.1005 19.4387 20.195 14.4714 26.6672C13.5848 27.821 12.7717 28.9128 12.0009 29.981C11.2329 28.9118 10.4358 27.8399 9.53606 26.6663C4.35979 19.9192 1.37353 17.0591 1.41212 11.9167V11.9205ZM11.9999 34.7281C5.93994 34.7281 1.41212 32.8655 1.41212 31.1988C1.41212 29.9631 4.11884 28.4027 8.67019 27.8624C9.67627 29.18 10.5581 30.3809 11.424 31.6063C11.4889 31.6985 11.575 31.7737 11.6751 31.8256C11.7752 31.8776 11.8863 31.9047 11.999 31.9046C12.1118 31.9045 12.2229 31.8775 12.323 31.8258C12.4232 31.774 12.5096 31.6991 12.575 31.6072C13.4314 30.3979 14.3378 29.1697 15.3354 27.8634C19.883 28.4036 22.5868 29.9649 22.5868 31.1988C22.5868 32.8655 18.059 34.7281 11.999 34.7281H11.9999Z" fill="url(#paint3_linear_552_1209)"/>
</g>
<defs>
<linearGradient id="paint0_linear_552_1209" x1="11.3574" y1="3.53021" x2="12.7691" y2="3.53021" gradientUnits="userSpaceOnUse">
<stop stop-color="#08AC9E"/>
<stop offset="0.92" stop-color="#FF621F"/>
</linearGradient>
<linearGradient id="paint1_linear_552_1209" x1="7.05942" y1="12.0005" x2="16.9414" y2="12.0005" gradientUnits="userSpaceOnUse">
<stop stop-color="#08AC9E"/>
<stop offset="0.92" stop-color="#FF621F"/>
</linearGradient>
<linearGradient id="paint2_linear_552_1209" x1="14.1375" y1="8.04392" x2="21.1754" y2="8.04392" gradientUnits="userSpaceOnUse">
<stop stop-color="#08AC9E"/>
<stop offset="0.92" stop-color="#FF621F"/>
</linearGradient>
<linearGradient id="paint3_linear_552_1209" x1="0.00040583" y1="18.0699" x2="23.9995" y2="18.0699" gradientUnits="userSpaceOnUse">
<stop stop-color="#08AC9E"/>
<stop offset="0.92" stop-color="#FF621F"/>
</linearGradient>
<clipPath id="clip0_552_1209">
<rect width="24" height="36.1398" fill="white"/>
</clipPath>
</defs>
</svg>
