<svg width="20" height="20" viewBox="0 0 20 20" fill="none" xmlns="http://www.w3.org/2000/svg">
<g clip-path="url(#clip0_561_2901)">
<path d="M19.998 10C19.998 14.9911 16.3408 19.1281 11.5605 19.8787V12.8906H13.8908L14.334 10H11.5605V8.125C11.5605 7.33437 11.948 6.5625 13.1902 6.5625H14.4512V4.10156C14.4512 4.10156 13.3053 3.90625 12.2116 3.90625C9.92721 3.90625 8.4345 5.29064 8.4345 7.79689V10H5.89544V12.8906H8.43555V19.8787C3.65482 19.1281 -0.00195312 14.9911 -0.00195312 10C-0.00195312 4.47917 4.47721 0 9.99805 0C15.5189 0 19.998 4.47917 19.998 10Z" fill="#1877F2"/>
<path d="M13.8934 12.8906L14.3366 10H11.5616V8.125C11.5616 7.33437 11.9491 6.5625 13.1913 6.5625H14.4522V4.10156C14.4522 4.10156 13.3064 3.90625 12.2126 3.90625C9.92826 3.90625 8.43555 5.29064 8.43555 7.79689V10H5.89648V12.8906H8.43659V19.8787C9.47197 20.0405 10.5262 20.0405 11.5616 19.8787V12.8906H13.8934Z" fill="white"/>
</g>
<defs>
<clipPath id="clip0_561_2901">
<rect width="20" height="20" fill="white"/>
</clipPath>
</defs>
</svg>
