<svg width="20" height="20" viewBox="0 0 20 20" fill="none" xmlns="http://www.w3.org/2000/svg">
<g clip-path="url(#clip0_561_2895)">
<path d="M4.43281 12.0865L3.73645 14.6854L1.1922 14.7375C0.422297 13.3041 0.0132006 11.7047 0.000314171 10.0776C-0.0125722 8.4506 0.371143 6.8449 1.11825 5.39948L3.38387 5.81614L4.37605 8.0677C3.92974 9.37334 3.94963 10.7933 4.43231 12.0859L4.43281 12.0865Z" fill="#FBBB00"/>
<path d="M19.8259 8.13228C20.1654 9.91533 20.013 11.7572 19.3849 13.4601C18.7568 15.1631 17.6768 16.6628 16.2608 17.7984L13.4072 17.6526L13.0035 15.1323C14.1818 14.4415 15.0869 13.367 15.5676 12.0885H10.2207V8.1328L19.8259 8.13228Z" fill="#518EF8"/>
<path d="M16.2596 17.7979C15.1153 18.7162 13.7829 19.3716 12.357 19.7174C10.9311 20.0633 9.44651 20.0913 8.00858 19.7993C6.57065 19.5074 5.21455 18.9027 4.03643 18.0281C2.85831 17.1535 1.88701 16.0304 1.19141 14.7385L4.43202 12.0859C4.73636 12.897 5.2142 13.6317 5.83209 14.2389C6.44998 14.846 7.19301 15.3108 8.00926 15.6009C8.82551 15.8909 9.69526 15.9991 10.5577 15.918C11.4202 15.8369 12.2545 15.5684 13.0023 15.1312L16.2596 17.7979Z" fill="#28B446"/>
<path d="M16.3837 2.30522L13.1441 4.9573C12.3852 4.48467 11.5295 4.18925 10.6407 4.09299C9.75183 3.99673 8.85273 4.10212 8.01024 4.40132C7.16775 4.70052 6.40356 5.18582 5.77452 5.82114C5.14548 6.45645 4.66777 7.22542 4.37694 8.07084L1.11914 5.40105C1.8064 4.07447 2.78219 2.91874 3.97477 2.0188C5.16736 1.11886 6.54644 0.497588 8.01067 0.200626C9.4749 -0.0963362 10.9871 -0.061432 12.436 0.302771C13.885 0.666974 15.2339 1.35121 16.3837 2.30522Z" fill="#F14336"/>
</g>
<defs>
<clipPath id="clip0_561_2895">
<rect width="20" height="20" fill="white"/>
</clipPath>
</defs>
</svg>
