<svg width="130" height="91" viewBox="0 0 130 91" fill="none" xmlns="http://www.w3.org/2000/svg">
<g opacity="0.05" clip-path="url(#clip0_548_548)">
<path d="M66.3813 30.8157C66.3348 26.7357 67.1385 22.6912 68.7406 18.9419C70.3428 15.1926 72.7079 11.8216 75.6841 9.04566C78.4432 6.15327 81.762 3.85869 85.4366 2.30306C89.1111 0.747421 93.0635 -0.0363638 97.0507 -6.01439e-05C101.657 -0.136896 106.231 0.81825 110.402 2.7879C114.573 4.75754 118.223 7.68636 121.058 11.3373C127.004 18.5374 130.121 27.6758 129.821 37.0271C129.821 55.7216 114.056 73.813 82.5262 91.3015L78.0248 84.1855C88.7081 75.3207 94.1098 68.2048 94.1098 62.717C94.1098 61.0285 91.8291 59.34 87.3277 57.6514C82.351 56.1289 77.6787 53.7407 73.5234 50.5957C70.9232 48.055 68.9297 44.9553 67.6927 41.5294C66.4557 38.1036 66.0073 34.4406 66.3813 30.8157ZM0.000808001 30.8157C-0.152367 22.7205 2.8902 14.8936 8.46343 9.04566C11.2681 6.13037 14.6377 3.82362 18.3642 2.26781C22.0908 0.712006 26.0951 -0.0598379 30.1301 -6.01439e-05C34.7352 -0.127303 39.3059 0.832039 43.4752 2.80096C47.6445 4.76989 51.2963 7.69358 54.1375 11.3373C60.2052 18.4825 63.4138 27.6384 63.1403 37.0271C63.1403 55.7216 47.3754 73.813 15.8457 91.3015L10.8042 84.1855C21.8475 75.3207 27.4292 68.2048 27.4292 62.717C27.4292 61.0285 24.9685 59.34 20.107 57.6514C15.228 56.115 10.6567 53.7265 6.60283 50.5957C4.17074 47.9567 2.32449 44.8286 1.18632 41.4186C0.048152 38.0086 -0.355952 34.3945 0.000808001 30.8157Z" fill="#1F1F1F"/>
</g>
<defs>
<clipPath id="clip0_548_548">
<rect width="130" height="91" fill="white"/>
</clipPath>
</defs>
</svg>
