<svg width="25" height="23" viewBox="0 0 25 23" fill="none" xmlns="http://www.w3.org/2000/svg">
<g clip-path="url(#clip0_494_1537)">
<path d="M18.7699 3.84277H0.749176C0.335417 3.84277 0 4.17199 0 4.57809V22.2647C0 22.6708 0.335417 23 0.749176 23H18.7699C19.1836 23 19.519 22.6708 19.519 22.2647V4.57809C19.519 4.17199 19.1836 3.84277 18.7699 3.84277Z" fill="#FAF8FD"/>
<path d="M9.95768 19.933C9.89175 20.0477 9.78162 20.0484 9.71345 19.933C7.81579 16.7601 2.77458 10.0275 2.72363 9.95986C2.68393 9.90692 2.8907 9.63045 3.18438 9.34662L3.83542 8.71424C3.98847 8.57525 4.18441 8.49037 4.39218 8.47305C4.59995 8.45574 4.80766 8.50697 4.9824 8.61864L9.80485 11.9276C13.2286 7.56714 16.4223 4.57439 18.5058 2.82434C20.784 0.912512 22.2674 0.0301408 22.2824 0.0220523C22.2974 0.0139638 22.657 0.00219727 23.0653 0.00219727H24.479C24.891 0.00219727 25.1038 0.111763 24.9509 0.244856C17.7941 6.49947 10.0356 19.7992 9.95768 19.933Z" fill="#08AC9E"/>
</g>
<defs>
<clipPath id="clip0_494_1537">
<rect width="25" height="23" fill="white"/>
</clipPath>
</defs>
</svg>
