<svg width="150" height="142" viewBox="0 0 150 142" fill="none" xmlns="http://www.w3.org/2000/svg">
<path d="M92.6106 54.1774L75 0L57.3838 54.1774H0L46.5006 87.5079L28.6459 141.668L75 108.07L121.349 141.668L103.499 87.5079L150 54.1774H92.6106ZM98.2206 89.2471L110.693 127.079L78.2606 103.572L75 101.21L71.7394 103.572L39.3009 127.079L51.7738 89.2468L53.0541 85.3703L49.7338 82.9938L17.285 59.7329H57.3838H61.4203L62.6679 55.8944L75 17.9659L87.3265 55.8944L88.5741 59.7329H92.6106H132.709L100.26 82.9941L96.9456 85.3706L98.2206 89.2471Z" fill="#2C2C2C"/>
</svg>
