<svg width="150" height="214" viewBox="0 0 150 214" fill="none" xmlns="http://www.w3.org/2000/svg">
<path fill-rule="evenodd" clip-rule="evenodd" d="M118.421 177.633C115.122 180.111 111.022 181.579 106.579 181.579C95.6786 181.579 86.8421 172.742 86.8421 161.842C86.8421 150.942 95.6786 142.105 106.579 142.105C111.022 142.105 115.122 143.573 118.421 146.051V142.105H126.316V181.579H118.421V177.633ZM62.594 157.895L71.0526 181.579H78.9474L55.2632 118.421H47.3684L23.6842 181.579H31.5789L40.0376 157.895H62.594ZM59.7744 150L51.3158 126.316L42.8571 150H59.7744ZM98.6842 0H15.8113C7.07894 0 0 7.09214 0 15.8473V197.311C0 206.063 7.03362 213.158 15.7691 213.158H134.231C142.94 213.158 150 206.067 150 197.441V59.2105V55.2632L102.632 0H98.6842ZM94.7368 7.89474H15.7546C11.4137 7.89474 7.89474 11.4889 7.89474 15.7536V197.404C7.89474 201.745 11.4845 205.263 15.7892 205.263H134.211C138.571 205.263 142.105 201.75 142.105 197.421V63.1579H110.51C101.799 63.1579 94.7368 56.1588 94.7368 47.3217V7.89474ZM102.632 11.8421V47.2991C102.632 51.6975 106.189 55.2632 110.501 55.2632H139.736L102.632 11.8421ZM106.579 173.684C113.119 173.684 118.421 168.382 118.421 161.842C118.421 155.302 113.119 150 106.579 150C100.039 150 94.7368 155.302 94.7368 161.842C94.7368 168.382 100.039 173.684 106.579 173.684Z" fill="#2C2C2C"/>
</svg>
