<?xml version="1.0" standalone="no"?>
<!DOCTYPE svg PUBLIC "-//W3C//DTD SVG 20010904//EN"
 "http://www.w3.org/TR/2001/REC-SVG-20010904/DTD/svg10.dtd">
<svg version="1.0" xmlns="http://www.w3.org/2000/svg"
 width="1462.000000pt" height="1462.000000pt" viewBox="0 0 1462.000000 1462.000000"
 preserveAspectRatio="xMidYMid meet">
<metadata>
Created by potrace 1.14, written by Peter Selinger 2001-2017
</metadata>
<g transform="translate(0.000000,1462.000000) scale(0.100000,-0.100000)"
fill="#000000" stroke="none">
<path d="M7305 14589 c-16 -5 -48 -14 -70 -18 -22 -5 -70 -16 -107 -25 -38 -9
-96 -22 -131 -30 -66 -15 -211 -71 -237 -92 -8 -6 -40 -26 -70 -43 -100 -58
-304 -209 -419 -311 -67 -59 -237 -273 -282 -355 -20 -36 -56 -141 -61 -174
-2 -19 -14 -27 -63 -42 -33 -10 -72 -19 -87 -19 -26 0 -156 -83 -320 -203
-105 -77 -249 -182 -271 -197 -60 -41 -1082 -812 -1212 -914 -82 -65 -186
-145 -230 -179 -164 -124 -760 -606 -978 -790 -144 -121 -279 -293 -292 -372
-4 -22 -11 -53 -16 -70 -4 -16 -17 -68 -28 -115 -21 -91 -21 -96 17 -245 11
-44 23 -99 27 -122 4 -23 20 -59 36 -79 36 -45 36 -52 2 -59 -125 -27 -245
-59 -278 -75 -22 -11 -89 -57 -150 -102 -92 -70 -123 -100 -190 -189 -129
-172 -201 -277 -257 -379 -14 -25 -48 -86 -76 -136 -90 -159 -159 -315 -181
-409 -12 -49 -28 -115 -36 -145 -7 -30 -17 -77 -21 -103 -6 -47 -24 -67 -58
-67 -9 0 -62 -33 -118 -74 -88 -63 -114 -89 -174 -173 -47 -64 -77 -117 -87
-153 -9 -30 -23 -80 -31 -110 -17 -61 -83 -315 -97 -370 -10 -43 -32 -125 -54
-205 -10 -33 -21 -80 -26 -103 -5 -24 -13 -60 -18 -80 -6 -21 -22 -86 -37
-147 l-27 -109 28 -116 c52 -219 63 -250 103 -303 21 -29 51 -69 66 -90 15
-21 71 -70 123 -109 91 -67 100 -71 217 -100 66 -16 124 -33 128 -36 4 -4 1
-29 -7 -57 -38 -143 -69 -258 -87 -325 -11 -41 -37 -142 -58 -225 -40 -154
-52 -200 -97 -365 -14 -52 -29 -111 -33 -130 -25 -109 -42 -183 -58 -245 -17
-69 -17 -72 5 -160 64 -264 60 -253 114 -327 60 -83 62 -49 -11 -323 -23 -88
-46 -176 -50 -196 -3 -19 -10 -41 -14 -47 -3 -6 -10 -30 -16 -54 -5 -24 -30
-122 -55 -218 -26 -96 -51 -191 -55 -210 -10 -43 -33 -126 -55 -205 -10 -33
-21 -76 -25 -95 -4 -19 -22 -89 -40 -155 -18 -66 -36 -139 -41 -163 -5 -24
-11 -47 -13 -51 -5 -8 -82 -298 -96 -361 -30 -134 -65 -266 -72 -268 -10 -5
-11 -132 0 -132 5 0 16 -37 26 -82 34 -160 52 -203 123 -303 58 -82 83 -107
168 -169 88 -64 110 -75 180 -91 44 -9 105 -25 135 -34 68 -20 229 -19 455 3
88 9 219 20 290 26 72 6 182 15 245 21 63 5 172 14 241 19 192 13 354 35 489
66 109 25 192 44 250 59 30 8 84 21 120 30 154 39 287 96 393 169 37 25 72 46
78 46 6 0 23 -8 37 -18 65 -45 182 -83 462 -148 36 -9 78 -19 95 -22 30 -8 36
-22 73 -174 8 -30 35 -79 77 -137 51 -70 86 -105 161 -160 52 -39 97 -71 99
-71 3 0 35 -14 72 -31 38 -16 104 -46 148 -66 44 -20 107 -49 140 -64 53 -25
282 -127 405 -181 25 -11 72 -32 105 -47 33 -16 94 -43 135 -61 41 -18 108
-48 149 -67 40 -18 100 -45 132 -59 33 -13 88 -37 122 -53 34 -16 96 -44 137
-63 173 -79 294 -123 425 -153 39 -8 95 -22 125 -29 127 -32 157 -39 200 -47
219 -41 418 -36 630 16 30 8 84 20 120 29 426 99 493 131 953 462 75 54 197
141 270 192 294 206 677 478 934 661 134 96 150 111 219 204 46 63 76 114 80
136 6 36 17 82 50 213 10 39 14 84 11 108 -4 33 -2 42 11 47 69 22 206 84 259
116 37 22 69 35 76 30 6 -4 44 -30 82 -58 39 -29 84 -54 100 -57 17 -3 59 -13
95 -22 216 -52 236 -52 615 -16 55 5 156 14 224 20 68 6 165 20 215 32 239 55
230 52 338 129 83 60 113 89 168 164 83 113 75 97 100 191 12 43 33 120 47
169 13 50 29 109 34 133 5 24 11 47 14 52 3 5 10 28 15 52 5 24 16 68 24 98 8
30 22 83 30 118 17 66 22 73 356 485 36 44 85 106 110 137 25 32 170 212 322
401 152 189 308 382 345 429 103 128 204 270 213 299 4 14 16 62 25 106 10 44
24 102 32 129 22 83 18 126 -33 302 -7 28 -14 62 -14 76 0 26 -11 45 -99 165
-39 54 -78 91 -149 143 -53 39 -108 73 -122 76 -14 3 -52 11 -85 19 -33 7 -72
16 -86 19 -23 5 -34 23 -84 143 -32 76 -69 161 -82 190 l-25 52 73 68 c99 94
286 336 354 458 15 28 31 55 35 60 4 6 21 46 38 90 27 73 39 118 88 325 9 36
19 81 24 100 32 125 40 189 40 332 0 155 -2 166 -57 408 -8 36 -18 81 -23 100
-31 140 -75 252 -128 330 -74 111 -200 276 -236 309 -39 38 -44 52 -22 70 8 7
24 56 36 109 12 53 28 120 36 149 18 66 18 129 -1 201 -8 31 -24 98 -35 147
-26 111 -64 169 -322 500 -229 293 -292 362 -433 467 -138 103 -153 110 -340
153 -60 14 -129 31 -151 36 -23 6 -51 8 -61 5 -15 -5 -37 16 -107 104 l-87
111 14 42 c9 23 23 78 32 122 9 44 21 91 25 105 23 67 21 109 -9 232 -16 68
-33 140 -37 160 -4 24 -31 71 -75 130 -38 51 -70 95 -71 98 -8 16 -396 284
-433 299 -5 2 -125 75 -265 161 -140 86 -331 202 -425 257 -93 55 -186 110
-205 122 -19 11 -55 32 -80 46 -78 43 -124 70 -150 86 -24 16 -190 111 -280
162 -25 14 -79 45 -120 69 -41 24 -79 45 -85 47 -5 2 -17 9 -25 16 -13 11
-110 64 -208 116 -18 10 -38 22 -45 27 -7 5 -48 28 -92 52 -44 23 -84 46 -90
50 -5 4 -39 14 -75 23 -212 52 -195 45 -219 95 -111 229 -449 556 -781 758
-134 81 -263 128 -495 179 -38 9 -95 22 -125 29 -30 8 -77 20 -105 26 -64 16
-281 22 -320 9z m248 -178 c23 -5 78 -16 122 -26 125 -26 251 -57 347 -86 37
-11 70 -25 73 -30 4 -5 14 -9 23 -9 20 0 74 -26 118 -56 16 -12 36 -24 44 -27
122 -54 491 -377 600 -527 61 -83 120 -197 120 -232 0 -38 15 -52 48 -45 17 4
44 2 59 -2 15 -5 64 -17 108 -26 97 -22 247 -94 425 -205 8 -5 35 -19 60 -31
25 -12 58 -31 73 -42 16 -10 47 -29 70 -42 64 -34 121 -66 132 -75 6 -4 46
-26 90 -50 44 -23 87 -49 95 -56 8 -7 26 -18 40 -24 14 -6 34 -16 45 -23 95
-58 197 -117 202 -117 3 0 21 -11 39 -25 18 -14 35 -25 38 -25 4 0 79 -43 151
-87 11 -7 27 -15 35 -19 8 -4 55 -31 103 -61 49 -29 90 -53 92 -53 3 0 37 -22
77 -48 40 -27 96 -62 123 -77 28 -16 57 -34 65 -40 8 -7 35 -23 60 -37 25 -13
71 -41 102 -61 31 -20 60 -37 63 -37 3 0 41 -24 84 -54 43 -29 83 -55 87 -57
30 -13 194 -130 224 -159 65 -66 108 -136 125 -207 9 -38 23 -96 31 -131 9
-34 14 -72 11 -85 -3 -12 -13 -53 -22 -92 -9 -38 -20 -89 -25 -112 -5 -23 -25
-63 -45 -88 -19 -26 -35 -50 -35 -53 0 -8 93 -133 167 -224 29 -34 75 -91 102
-125 l50 -61 75 5 c53 4 94 1 143 -11 37 -10 88 -22 113 -28 88 -21 126 -43
273 -156 69 -53 277 -304 495 -597 101 -136 116 -163 136 -250 10 -44 25 -102
34 -129 13 -44 13 -55 0 -100 -9 -28 -24 -87 -33 -131 -16 -68 -27 -91 -77
-158 -32 -43 -58 -81 -58 -86 0 -4 26 -26 58 -49 83 -59 190 -173 263 -282
102 -151 123 -206 183 -460 72 -307 69 -429 -14 -770 -5 -19 -16 -66 -25 -105
-42 -176 -105 -300 -248 -495 -122 -166 -207 -252 -338 -344 -21 -14 -22 -18
-9 -43 7 -16 19 -41 26 -58 7 -16 22 -51 33 -77 12 -27 37 -87 57 -134 38 -93
42 -102 68 -151 9 -17 16 -41 16 -52 0 -12 6 -37 14 -56 12 -28 21 -35 53 -40
21 -4 49 -10 63 -14 14 -5 61 -17 105 -27 169 -38 311 -180 349 -349 10 -44
23 -93 27 -109 14 -47 11 -90 -16 -192 -14 -53 -25 -104 -25 -113 0 -10 -15
-38 -33 -62 -118 -158 -162 -215 -167 -219 -8 -6 -165 -199 -195 -239 -10 -14
-43 -55 -72 -91 -30 -36 -57 -69 -61 -75 -4 -5 -44 -54 -87 -109 -44 -54 -89
-110 -100 -125 -10 -14 -42 -54 -70 -87 -27 -34 -79 -99 -115 -144 -36 -45
-82 -103 -104 -128 -59 -70 -267 -330 -298 -371 -27 -37 -48 -104 -98 -301
-28 -114 -43 -169 -52 -199 -14 -44 -58 -215 -67 -262 -4 -20 -34 -72 -65
-116 -78 -109 -179 -182 -286 -208 -41 -9 -88 -22 -105 -27 -34 -11 -128 -21
-390 -43 -472 -40 -423 -40 -594 2 -89 22 -115 33 -172 75 -38 27 -82 67 -99
88 -34 43 -50 49 -71 24 -7 -9 -22 -20 -34 -25 -21 -9 -41 -21 -90 -54 -35
-23 -92 -51 -205 -98 -19 -8 -73 -28 -120 -43 -47 -16 -88 -32 -91 -37 -4 -5
-3 -23 2 -41 4 -17 12 -50 18 -72 16 -59 14 -81 -13 -191 -14 -54 -27 -109
-30 -123 -9 -37 -105 -160 -151 -192 -22 -16 -83 -58 -135 -94 -52 -36 -120
-83 -150 -105 -30 -22 -66 -48 -80 -57 -13 -9 -83 -58 -155 -109 -71 -51 -174
-123 -228 -160 -54 -37 -113 -80 -130 -94 -18 -14 -84 -61 -147 -104 -63 -43
-124 -86 -135 -95 -11 -9 -62 -46 -113 -81 -51 -35 -152 -106 -225 -156 -123
-86 -316 -193 -349 -193 -8 0 -18 -4 -24 -9 -10 -10 -48 -22 -169 -52 -527
-132 -603 -132 -1130 0 -144 36 -223 66 -450 171 -38 17 -83 38 -100 45 -46
20 -141 63 -232 106 -46 22 -86 39 -90 39 -4 0 -25 9 -47 19 -82 39 -198 91
-202 91 -2 0 -44 18 -92 41 -100 47 -126 58 -202 92 -30 14 -82 37 -115 52
-33 15 -76 34 -95 42 -19 9 -62 28 -95 43 -33 15 -80 37 -105 48 -116 52 -139
64 -192 102 -60 43 -168 183 -168 218 0 11 -4 32 -9 48 -5 16 -17 65 -27 109
-9 44 -21 85 -26 91 -5 6 -32 14 -61 17 -28 3 -81 13 -117 21 -36 9 -83 20
-105 25 -127 29 -174 41 -205 52 -66 23 -145 62 -211 106 -37 24 -70 43 -73
43 -3 0 -39 -24 -79 -53 -109 -80 -132 -94 -242 -142 -68 -30 -229 -85 -250
-85 -9 0 -37 -6 -63 -14 -136 -40 -403 -91 -532 -101 -41 -3 -154 -12 -250
-21 -96 -8 -231 -19 -300 -24 -133 -10 -249 -20 -505 -45 -198 -19 -224 -19
-297 0 -32 8 -86 22 -120 31 -85 22 -185 96 -252 188 -57 78 -66 97 -90 201
-10 39 -21 87 -27 108 -6 24 -6 50 0 75 6 20 17 66 25 102 8 36 25 103 37 150
12 47 25 101 30 120 4 19 15 61 23 92 9 32 23 84 32 115 8 32 19 74 24 93 4
19 22 89 40 155 18 66 36 139 41 163 5 24 12 48 15 54 4 6 11 28 14 47 4 20
15 63 24 96 22 79 76 280 86 325 5 19 16 60 24 90 54 206 79 300 86 330 8 33
15 57 56 208 8 31 18 68 20 82 3 14 13 47 21 73 12 40 13 51 1 66 -7 10 -38
52 -70 94 -52 69 -58 83 -88 202 -23 94 -30 137 -25 168 9 57 62 272 101 412
28 102 57 211 65 245 4 19 15 62 24 95 9 33 21 79 26 103 5 24 12 48 15 54 4
6 11 28 15 47 4 20 21 90 39 156 18 66 36 139 41 163 5 24 12 48 16 55 4 6 10
29 14 52 4 22 15 65 24 95 27 90 32 85 -75 85 -92 0 -192 19 -285 52 -65 24
-162 103 -213 173 -55 75 -64 97 -87 205 -10 44 -21 95 -26 113 -7 32 -3 61
37 227 8 33 18 82 24 108 5 27 13 53 17 60 3 6 10 27 14 46 4 20 15 61 23 91
8 30 24 93 36 140 11 47 28 110 36 140 8 30 22 80 30 110 8 30 19 69 24 86 6
17 10 39 10 50 1 32 37 101 91 175 29 38 55 69 58 69 4 0 29 17 56 38 61 45
106 64 208 87 88 21 87 19 60 116 -18 66 -20 49 38 286 16 63 149 349 197 422
28 42 40 63 63 111 38 75 206 313 291 412 59 67 255 188 307 188 10 0 41 6 67
14 113 33 150 38 179 24 26 -12 29 -10 61 27 19 22 34 44 34 49 0 4 12 22 26
39 l25 30 -34 36 c-73 76 -115 146 -132 217 -9 38 -23 95 -31 127 -13 51 -13
63 0 115 8 31 22 88 31 126 28 116 117 220 354 416 172 142 253 209 311 255
156 126 205 165 280 225 46 36 99 79 119 96 35 30 132 104 175 134 11 8 48 37
82 65 61 50 209 166 308 240 30 22 133 101 231 175 97 74 187 142 199 150 11
8 83 62 160 120 76 58 158 119 181 135 23 17 55 41 71 54 34 27 226 167 310
226 31 22 71 52 88 66 17 14 63 48 101 74 39 26 98 68 133 92 48 35 81 49 145
64 45 11 100 24 122 30 22 6 45 13 51 14 11 3 44 111 44 144 0 11 4 22 9 26 5
3 13 19 16 37 16 73 114 208 245 338 104 104 305 260 400 312 27 14 63 36 79
47 16 12 33 21 39 21 5 0 30 9 55 20 46 20 115 39 272 75 44 10 91 21 105 26
35 11 183 11 233 0z"/>
<path d="M7275 13853 c-27 -8 -64 -22 -82 -29 -17 -8 -33 -14 -36 -14 -16 0
-165 -93 -247 -153 -129 -96 -238 -208 -273 -280 -38 -78 -67 -172 -67 -216 0
-20 -5 -56 -11 -80 -14 -60 -15 -235 -1 -296 6 -27 18 -86 27 -130 10 -44 21
-93 26 -109 16 -50 10 -66 -40 -115 -52 -53 -63 -86 -54 -162 8 -70 34 -135
107 -264 7 -11 28 -45 47 -75 59 -91 69 -128 76 -279 8 -185 6 -195 -73 -279
-55 -60 -80 -78 -169 -121 -57 -28 -106 -51 -109 -51 -17 0 -210 -99 -271
-138 -40 -26 -128 -104 -205 -181 -206 -207 -318 -358 -420 -566 -99 -200
-150 -396 -150 -573 l0 -93 69 -142 c38 -78 77 -164 86 -192 10 -27 22 -54 25
-60 4 -5 10 -21 13 -35 3 -14 20 -63 37 -110 18 -47 36 -96 40 -110 4 -14 15
-42 25 -63 16 -39 16 -39 63 -34 279 30 456 37 657 27 116 -6 246 -15 290 -21
88 -11 244 -25 435 -39 69 -5 177 -14 240 -20 148 -13 402 -13 555 1 66 5 181
14 255 19 158 11 285 25 349 39 61 13 155 31 211 41 25 4 79 15 120 25 41 9
99 21 129 26 29 5 62 14 72 19 10 6 31 10 48 10 16 0 42 5 58 11 15 6 51 15
78 20 28 5 82 16 120 24 39 9 97 20 130 25 33 5 73 13 88 19 16 6 43 11 61 11
18 0 46 4 62 10 26 9 123 24 231 37 65 8 68 20 30 104 -19 41 -44 108 -57 149
-12 41 -26 85 -31 98 -15 38 -11 58 31 141 34 67 40 89 40 141 0 54 -5 70 -37
124 -47 76 -62 115 -74 189 -5 33 -11 63 -14 68 -3 5 -10 41 -15 81 -5 40 -17
114 -25 163 -9 50 -20 117 -25 150 -5 33 -13 73 -19 88 -6 16 -11 41 -11 56 0
63 -80 322 -144 466 -95 213 -138 250 -371 320 -49 15 -108 33 -130 40 -22 7
-67 20 -100 30 -33 10 -91 28 -130 40 -38 12 -97 30 -130 39 -100 30 -128 44
-120 64 3 9 11 36 16 60 5 23 13 61 18 85 5 23 14 55 20 70 17 43 14 247 -5
320 -8 34 -19 78 -24 97 -5 19 -16 64 -25 100 -10 40 -20 140 -26 260 -21 462
-23 478 -80 570 -35 56 -256 266 -366 347 -77 57 -236 143 -265 143 -8 0 -18
4 -24 8 -11 10 -82 32 -139 43 -22 4 -58 12 -80 18 -61 16 -251 12 -310 -6z
m607 -2523 c50 -43 99 -136 116 -220 6 -30 13 -129 15 -220 3 -131 7 -172 21
-197 9 -18 20 -33 25 -33 5 0 8 -14 7 -32 -1 -37 24 -50 46 -23 7 9 27 33 45
52 18 21 39 60 48 92 18 62 24 81 64 191 45 123 65 221 57 282 -16 117 -17
113 40 116 51 3 51 3 107 -58 31 -33 61 -60 68 -60 7 0 9 -9 4 -27 -4 -16 -11
-53 -15 -83 -4 -30 -13 -81 -20 -112 -7 -31 -10 -64 -7 -72 6 -16 42 -21 72
-10 18 7 55 74 55 102 0 10 7 27 15 38 23 31 18 73 -13 102 -39 39 -59 79 -44
94 39 39 281 -30 298 -84 3 -11 3 -40 -1 -63 -5 -40 -4 -45 21 -61 15 -10 33
-33 40 -50 12 -28 11 -39 -7 -91 -11 -32 -23 -69 -26 -83 -3 -14 -12 -34 -19
-45 -8 -11 -14 -29 -14 -40 0 -12 -4 -25 -9 -31 -10 -9 -15 -45 -13 -76 3 -28
42 -23 42 5 0 13 7 32 15 43 8 10 15 29 15 42 0 27 17 62 29 62 5 0 14 -14 21
-31 11 -24 11 -44 2 -93 -6 -33 -14 -83 -17 -111 -10 -82 -28 -135 -45 -135
-30 0 -40 23 -40 90 0 37 -3 70 -6 73 -13 13 -44 -14 -44 -39 0 -32 -18 -38
-61 -20 l-36 15 5 58 c6 88 35 172 87 252 31 47 49 88 54 121 8 52 6 60 -16
60 -14 0 -98 -124 -114 -169 -5 -14 -13 -35 -18 -46 -26 -63 -35 -95 -39 -143
-5 -61 -16 -70 -69 -54 -28 9 -42 8 -64 -4 -39 -20 -41 -76 -3 -115 21 -22 24
-30 15 -47 -6 -12 -11 -42 -11 -69 0 -55 -33 -137 -52 -131 -7 3 -14 19 -16
36 -2 19 -11 36 -23 43 -17 8 -24 5 -47 -20 -34 -40 -62 -41 -62 -3 1 35 29
71 71 91 36 17 45 37 35 77 -7 25 -32 31 -64 15 -9 -5 -46 -24 -82 -41 -35
-18 -72 -43 -82 -55 -23 -29 -66 -38 -95 -19 -12 8 -29 14 -37 14 -8 0 -28 17
-45 39 -63 79 -126 77 -162 -6 l-20 -47 -17 30 c-27 45 -51 130 -58 204 -7 67
10 219 26 250 5 9 13 45 18 81 5 35 19 99 31 142 23 85 18 110 -19 100 -19 -5
-20 0 -20 70 0 71 -2 79 -31 111 l-31 36 31 -11 c16 -6 50 -28 73 -49z m238
-654 c0 -3 -4 -8 -10 -11 -5 -3 -10 -1 -10 4 0 6 5 11 10 11 6 0 10 -2 10 -4z"/>
<path d="M9051 12808 c-4 -13 -14 -48 -21 -78 -7 -30 -22 -82 -35 -115 -12
-33 -20 -66 -17 -73 4 -12 130 -76 417 -212 50 -23 144 -68 210 -100 136 -65
256 -122 365 -173 41 -19 104 -48 140 -65 36 -16 97 -44 135 -62 39 -18 93
-42 120 -55 115 -53 207 -95 210 -95 2 0 43 -18 90 -40 47 -22 88 -40 90 -40
2 0 36 -15 77 -34 40 -18 102 -46 138 -61 36 -15 83 -35 105 -45 22 -10 71
-32 108 -49 38 -17 71 -31 74 -31 3 0 31 -12 60 -26 53 -24 83 -26 83 -4 0 5
-4 10 -9 10 -5 0 -16 6 -23 13 -7 7 -100 67 -206 132 -106 66 -205 128 -220
137 -15 10 -34 21 -42 25 -9 5 -128 76 -265 159 -280 169 -445 267 -460 273
-5 2 -60 35 -123 73 -62 37 -115 68 -117 68 -3 0 -34 18 -70 40 -36 22 -68 40
-70 40 -3 0 -22 11 -43 23 -20 13 -57 35 -82 49 -25 14 -97 54 -160 90 -141
80 -185 105 -230 130 -19 11 -48 27 -65 37 -62 36 -144 81 -150 81 -3 0 -9
-10 -14 -22z"/>
<path d="M5995 12771 c-27 -21 -153 -114 -280 -206 -284 -207 -1048 -780
-1155 -866 -25 -19 -157 -123 -295 -229 -137 -107 -295 -231 -350 -275 -55
-44 -158 -128 -230 -185 -236 -191 -510 -421 -518 -436 -5 -9 -6 -18 -3 -22 9
-8 48 13 246 132 91 55 178 106 193 115 39 22 120 72 193 119 10 6 28 17 39
22 11 6 39 23 62 38 24 15 120 76 215 135 95 60 232 146 303 192 72 46 157
100 190 121 154 97 1026 674 1270 841 72 49 175 120 230 158 136 93 175 124
175 141 0 8 -3 14 -8 14 -19 0 -113 95 -156 159 -26 39 -53 71 -59 70 -7 0
-34 -17 -62 -38z"/>
<path d="M5563 11441 c-50 -36 -92 -90 -125 -161 -44 -94 -47 -103 -128 -375
-31 -104 -71 -177 -108 -196 -54 -28 -162 6 -304 94 -182 113 -343 154 -428
108 -50 -26 -79 -68 -165 -235 -101 -196 -173 -311 -230 -366 -44 -43 -48 -45
-103 -44 -41 0 -73 8 -112 28 -82 41 -137 44 -191 13 -126 -74 -290 -294 -630
-842 -152 -246 -193 -305 -213 -305 -7 0 -25 26 -40 58 -16 31 -38 77 -49 101
-26 53 -82 101 -118 101 -34 0 -98 -44 -145 -100 -90 -108 -227 -339 -352
-592 -60 -123 -70 -152 -54 -161 8 -6 257 7 422 22 103 10 369 31 555 46 39 3
124 10 190 15 66 5 174 14 240 20 66 5 206 17 310 25 105 8 242 20 305 25 63
6 174 15 245 20 72 6 213 17 315 25 102 9 246 20 320 25 74 5 149 12 165 15
17 2 102 9 190 15 92 6 162 15 166 21 4 6 -11 49 -32 94 -22 46 -39 89 -39 97
0 8 -19 43 -41 78 -126 194 -199 404 -199 580 0 36 -7 106 -15 155 -19 114
-19 187 0 269 15 64 73 211 100 253 8 12 12 29 9 37 -4 9 -1 16 6 16 20 0 99
89 126 141 31 62 131 169 210 225 34 24 66 44 71 44 5 0 38 27 73 60 l63 59
-6 114 c-10 175 14 269 90 349 20 20 32 41 29 47 -5 7 -63 11 -170 11 l-163 0
-40 -29z m-319 -1011 c5 -5 -9 -11 -30 -15 -22 -3 -50 -8 -64 -10 -53 -8 -144
-49 -214 -96 -207 -138 -400 -444 -522 -827 -9 -29 -20 -55 -25 -57 -4 -3 -38
22 -76 55 -72 64 -168 132 -243 170 -65 33 -153 34 -200 1 -71 -50 -312 -299
-397 -410 -2 -2 -6 -1 -9 2 -13 12 235 367 328 469 46 51 105 88 142 88 68 0
177 -58 303 -161 39 -33 74 -59 76 -59 3 0 37 64 76 143 171 345 395 601 598
682 95 38 229 51 257 25z"/>
<path d="M10353 11288 c-22 -24 -48 -58 -57 -76 -40 -78 -148 -144 -289 -176
-16 -4 -45 -18 -66 -31 -20 -14 -61 -34 -90 -44 -29 -10 -57 -25 -62 -32 -12
-20 -11 -103 2 -136 20 -51 40 -156 49 -268 13 -164 24 -210 63 -263 103 -141
157 -308 157 -488 0 -62 -6 -121 -16 -153 l-15 -53 30 -57 c35 -67 81 -202 81
-241 0 -50 13 -52 197 -41 92 6 249 18 348 26 99 8 239 19 310 25 72 5 184 14
250 20 66 6 174 15 240 21 66 5 177 14 248 19 312 24 390 30 512 40 72 6 200
18 285 26 86 8 178 14 205 14 87 0 125 10 125 33 0 32 -331 458 -450 578 -99
101 -172 115 -226 44 -28 -37 -64 -156 -64 -213 0 -18 -4 -32 -10 -30 -11 4
-433 530 -699 873 -269 347 -364 441 -521 513 -136 63 -328 112 -435 112 -58
0 -62 -2 -102 -42z m-152 -419 c54 -18 126 -77 264 -216 135 -135 399 -421
513 -554 37 -43 74 -79 83 -79 8 0 22 12 30 26 22 42 124 131 158 137 39 8 56
2 108 -40 42 -34 191 -209 229 -268 19 -30 19 -30 -1 -15 -11 8 -47 39 -80 70
-77 70 -169 120 -223 120 -36 0 -49 -7 -114 -68 -76 -70 -140 -122 -151 -122
-4 0 -37 46 -73 103 -266 405 -518 673 -727 770 -62 29 -169 37 -208 16 -47
-25 -40 2 12 53 49 46 81 64 140 77 3 0 21 -4 40 -10z"/>
<path d="M11810 8739 c-36 -4 -137 -12 -225 -18 -88 -6 -167 -13 -175 -16 -8
-2 -78 -9 -155 -14 -337 -24 -524 -41 -547 -50 -26 -10 -41 -38 -57 -106 -5
-22 -24 -94 -41 -160 -18 -66 -36 -136 -40 -155 -5 -19 -16 -61 -24 -92 -9
-32 -23 -84 -32 -115 -8 -32 -19 -74 -23 -93 -5 -19 -18 -71 -30 -115 -12 -44
-29 -107 -37 -140 -8 -33 -22 -82 -29 -110 -18 -64 -44 -160 -55 -205 -29
-117 -43 -169 -52 -200 -6 -19 -15 -51 -19 -70 -4 -19 -15 -62 -24 -95 -9 -33
-20 -76 -24 -95 -5 -19 -18 -71 -31 -115 -26 -96 -69 -256 -81 -305 -4 -19
-15 -60 -23 -90 -54 -206 -79 -300 -86 -330 -5 -19 -16 -61 -24 -92 -9 -32
-23 -84 -32 -115 -8 -32 -19 -74 -23 -93 -5 -19 -18 -70 -30 -112 -23 -84 -26
-124 -12 -132 5 -4 51 -2 103 4 140 14 328 31 473 41 119 9 438 36 442 38 3 2
35 112 44 151 9 40 30 119 54 205 10 33 21 76 26 95 4 19 15 60 23 90 8 30 28
107 45 170 16 63 34 128 39 145 8 29 10 30 108 42 136 16 133 17 145 -14 7
-16 15 -37 20 -48 4 -11 22 -56 39 -100 18 -44 36 -89 40 -100 16 -37 37 -90
55 -135 9 -25 21 -54 26 -65 4 -11 29 -72 54 -135 26 -63 51 -124 55 -135 5
-11 16 -37 25 -59 l15 -39 93 6 c50 4 171 13 267 22 96 8 238 19 315 25 77 5
174 14 215 20 41 6 104 11 139 13 45 1 67 7 74 18 10 17 10 18 -71 199 -11 25
-39 90 -62 145 -40 95 -64 151 -96 223 -47 106 -45 101 -124 286 -27 65 -50
119 -50 121 0 1 21 10 48 20 149 56 341 185 470 317 220 224 322 480 322 811
0 180 -19 272 -83 407 -72 152 -193 270 -350 344 -77 36 -198 75 -267 86 -30
5 -82 14 -115 19 -67 12 -524 12 -625 0z m246 -895 c100 -41 141 -108 131
-213 -13 -143 -77 -213 -288 -312 -31 -14 -186 -39 -344 -54 -193 -18 -215
-19 -215 -2 0 12 17 76 60 232 13 44 26 96 31 115 4 19 15 62 24 95 10 33 19
74 22 92 5 30 8 32 57 37 28 3 87 9 131 14 144 16 348 14 391 -4z"/>
<path d="M10465 8610 c-99 -7 -267 -21 -480 -40 -60 -5 -170 -15 -243 -20 -73
-6 -143 -15 -156 -19 -15 -6 -26 -23 -35 -53 -20 -71 -40 -141 -46 -168 -3
-14 -19 -77 -36 -140 -17 -63 -35 -131 -39 -150 -5 -19 -13 -53 -19 -75 -6
-22 -16 -56 -21 -75 -27 -102 -40 -151 -55 -210 -9 -36 -23 -90 -31 -120 -8
-30 -19 -71 -24 -90 -5 -19 -16 -60 -24 -90 -28 -106 -71 -271 -112 -425 -81
-310 -138 -438 -239 -541 -168 -172 -472 -205 -624 -68 -69 62 -91 125 -91
262 0 59 5 125 10 147 6 22 14 58 19 80 8 37 31 125 83 315 11 41 24 91 29
110 4 19 15 60 23 90 54 206 79 300 86 330 5 19 16 61 24 93 9 31 23 83 32
115 8 31 19 73 23 92 12 47 54 207 81 305 34 123 41 157 36 172 -7 16 -104 17
-226 3 -47 -6 -143 -15 -215 -20 -393 -26 -595 -50 -606 -70 -7 -14 -24 -75
-49 -170 -5 -19 -16 -60 -24 -90 -20 -78 -42 -161 -71 -270 -29 -109 -51 -192
-71 -270 -8 -30 -19 -71 -24 -90 -8 -35 -30 -116 -57 -220 -8 -30 -19 -71 -23
-90 -5 -19 -16 -60 -24 -90 -8 -30 -23 -89 -34 -130 l-20 -75 -1 147 c-4 578
-336 1034 -876 1201 -269 83 -576 98 -835 41 -36 -8 -72 -14 -80 -14 -9 0 -78
-20 -154 -45 -218 -70 -421 -177 -601 -314 -104 -79 -283 -256 -353 -348 -30
-40 -58 -73 -63 -73 -4 0 -3 15 2 33 19 62 41 142 49 177 4 19 22 87 39 150
17 63 33 126 36 140 3 14 13 48 22 77 21 66 9 85 -46 78 -35 -5 -177 -17 -431
-35 -68 -5 -174 -14 -235 -19 -214 -20 -451 -41 -525 -46 -41 -3 -154 -12
-250 -20 -96 -8 -240 -20 -320 -25 -80 -6 -172 -15 -205 -20 -33 -5 -90 -10
-127 -10 -37 0 -100 -4 -140 -10 -64 -9 -148 -16 -438 -37 -81 -6 -110 -16
-110 -37 0 -8 -6 -36 -14 -62 -8 -27 -21 -76 -30 -109 -58 -219 -85 -323 -112
-425 -8 -30 -19 -71 -24 -90 -4 -19 -16 -63 -26 -97 -25 -91 -20 -97 74 -89
42 4 131 11 197 15 66 5 172 14 235 20 301 28 361 33 366 28 3 -2 1 -15 -5
-28 -5 -13 -17 -53 -26 -89 -9 -36 -23 -90 -31 -120 -8 -30 -20 -73 -25 -95
-6 -22 -16 -62 -24 -90 -8 -27 -17 -61 -20 -75 -3 -14 -19 -77 -36 -140 -17
-63 -35 -131 -38 -151 -4 -19 -11 -41 -15 -47 -3 -6 -11 -30 -16 -54 -5 -24
-16 -70 -25 -103 -9 -33 -20 -76 -24 -95 -5 -19 -19 -71 -31 -115 -12 -44 -26
-96 -31 -115 -4 -19 -15 -62 -24 -95 -9 -33 -20 -76 -24 -95 -8 -33 -37 -140
-83 -310 -11 -41 -24 -91 -29 -110 -4 -19 -15 -62 -24 -95 -40 -149 -47 -187
-36 -198 7 -7 50 -7 148 2 76 6 197 16 268 21 72 5 162 14 200 19 39 6 98 11
133 11 81 0 254 20 268 31 6 5 16 26 22 46 12 42 23 83 97 363 29 109 51 192
71 270 8 30 19 71 24 90 8 35 30 116 57 220 8 30 19 71 23 90 11 44 37 140 55
205 8 28 17 61 20 75 3 14 19 77 36 140 17 63 35 131 38 151 4 19 11 41 15 47
3 6 10 30 15 54 5 24 17 70 26 103 9 33 20 76 25 95 24 102 66 256 72 266 4 6
45 14 90 18 46 4 157 14 248 22 238 20 462 35 467 31 2 -2 -8 -28 -23 -58 -25
-50 -36 -75 -62 -139 -39 -95 -85 -262 -107 -392 -21 -125 -16 -469 8 -568 33
-138 54 -197 108 -303 231 -461 772 -729 1365 -677 178 15 267 32 424 79 461
140 874 467 1133 898 46 78 105 192 127 248 25 64 41 106 59 155 l20 55 0
-178 c1 -178 7 -226 48 -367 9 -30 20 -62 24 -70 107 -218 191 -314 361 -412
110 -64 207 -99 388 -139 78 -17 436 -23 545 -10 50 7 108 14 130 17 105 12
233 41 375 85 336 104 578 271 776 535 46 61 84 115 84 118 0 4 10 23 23 44
48 75 132 250 160 332 9 25 25 70 37 100 11 30 25 71 30 90 5 19 16 60 25 90
9 30 20 71 25 90 7 33 33 132 82 310 11 41 24 91 29 110 4 19 15 61 23 93 9
31 23 83 32 115 8 31 19 73 23 92 5 19 16 62 25 95 22 79 76 280 86 325 5 19
16 61 24 93 9 31 23 83 32 115 8 31 19 73 23 92 5 19 20 78 34 130 55 203 57
213 46 227 -6 7 -19 12 -28 11 -9 -1 -61 -4 -116 -8z m-4670 -1284 c170 -45
280 -158 329 -338 10 -34 16 -97 16 -161 0 -181 -53 -353 -157 -510 -102 -155
-211 -242 -378 -305 -56 -21 -206 -44 -248 -37 -154 23 -240 60 -314 136 -109
113 -162 299 -134 474 24 153 32 181 83 294 101 224 301 402 497 442 24 5 47
11 49 14 11 11 210 4 257 -9z"/>
<path d="M5533 6717 c-55 -82 -79 -147 -55 -147 25 0 108 140 98 165 -8 23
-19 18 -43 -18z"/>
<path d="M3416 5578 c-9 -12 -16 -32 -16 -43 0 -11 -6 -40 -14 -65 -17 -53
-34 -116 -70 -260 -15 -58 -31 -119 -36 -136 -16 -49 -13 -64 13 -64 13 0 46
-6 73 -14 27 -7 85 -21 129 -31 44 -10 100 -24 124 -32 38 -12 46 -12 65 2 11
8 42 30 68 48 26 17 50 38 53 45 2 7 -13 32 -34 55 -111 122 -286 396 -310
485 -9 34 -26 38 -45 10z"/>
<path d="M13210 5339 c-58 -4 -188 -15 -290 -24 -102 -8 -243 -20 -314 -25
-71 -6 -136 -15 -143 -22 -8 -6 -141 -185 -295 -397 -314 -430 -296 -407 -303
-399 -3 3 -30 106 -60 229 -31 123 -62 251 -71 284 -9 33 -19 76 -24 95 -24
98 -32 119 -48 124 -9 3 -64 1 -122 -4 -58 -5 -168 -15 -245 -20 -77 -6 -176
-15 -220 -20 -44 -6 -105 -10 -136 -10 -67 0 -89 -7 -89 -26 0 -8 30 -106 66
-217 94 -286 162 -495 228 -697 31 -96 78 -244 106 -327 l49 -153 -29 -112
c-42 -167 -99 -383 -121 -468 -12 -41 -24 -91 -29 -110 -4 -19 -18 -74 -31
-122 -14 -56 -19 -91 -14 -97 6 -6 46 -6 100 -1 100 10 417 36 539 45 146 11
143 9 171 120 17 66 68 259 95 360 48 178 62 232 71 274 12 60 29 86 151 237
134 166 403 501 743 924 148 184 306 381 352 437 46 56 83 109 83 118 0 17 -1
17 -170 4z"/>
<path d="M9795 5040 c-66 -5 -201 -15 -300 -24 -99 -9 -250 -21 -335 -27 -85
-6 -166 -16 -180 -23 -18 -8 -29 -25 -37 -56 -6 -25 -23 -88 -36 -140 -14 -52
-39 -147 -55 -210 -17 -63 -44 -167 -61 -230 -35 -135 -53 -201 -88 -330 -14
-52 -29 -111 -33 -130 -4 -19 -22 -89 -40 -155 -17 -66 -43 -163 -57 -215 -13
-52 -31 -120 -39 -150 -8 -30 -19 -71 -23 -90 -8 -33 -37 -140 -83 -310 -11
-41 -24 -91 -28 -110 -5 -19 -20 -79 -34 -133 -14 -54 -26 -104 -26 -111 0
-26 6 -26 345 3 66 6 203 17 305 26 462 39 557 51 765 95 84 18 264 84 370
136 347 168 627 472 752 814 67 184 83 276 83 479 0 142 -3 177 -26 270 -50
202 -149 351 -307 460 -55 37 -185 100 -237 113 -181 47 -371 63 -595 48z
m162 -726 c60 -19 137 -82 162 -133 10 -20 24 -67 31 -104 27 -146 -41 -359
-151 -474 -44 -47 -122 -113 -133 -113 -3 0 -23 -11 -44 -24 -79 -50 -259 -97
-424 -112 -89 -7 -87 -11 -62 81 9 33 20 76 24 95 10 40 36 142 75 285 15 55
31 116 35 135 5 19 16 62 25 95 9 33 20 76 24 95 23 95 44 166 53 177 21 26
301 24 385 -3z"/>
<path d="M7289 4846 c-4 -5 -269 -28 -529 -46 -164 -12 -206 -18 -218 -33 -5
-7 -19 -50 -31 -97 -12 -47 -35 -136 -52 -197 -16 -62 -42 -164 -58 -225 -17
-62 -39 -149 -51 -193 -44 -162 -62 -231 -69 -265 -5 -19 -18 -69 -29 -110
-46 -170 -75 -277 -83 -310 -4 -19 -15 -60 -23 -90 -47 -176 -115 -435 -150
-570 -13 -52 -36 -138 -50 -192 -29 -109 -31 -124 -13 -130 12 -5 131 3 342
21 66 6 203 18 305 26 474 39 533 47 714 87 647 143 1119 600 1231 1193 20
107 20 375 0 470 -31 146 -64 224 -140 330 -77 109 -191 197 -325 252 -171 70
-254 83 -534 83 -128 0 -235 -2 -237 -4z m176 -706 c38 -6 74 -15 79 -20 6 -6
17 -10 26 -10 23 0 109 -78 129 -119 33 -64 46 -171 32 -253 -58 -344 -309
-535 -753 -574 -63 -5 -78 -4 -78 7 1 16 5 35 50 204 17 66 42 161 55 210 13
50 37 144 55 210 17 66 43 165 57 220 13 55 29 105 35 112 9 11 54 16 193 21
28 1 81 -3 120 -8z"/>
<path d="M6235 4739 c-86 -7 -288 -24 -540 -46 -79 -6 -91 -13 -97 -51 -3 -15
-14 -61 -26 -102 -40 -145 -75 -275 -83 -310 -4 -19 -15 -60 -23 -90 -66 -248
-125 -473 -135 -520 -41 -177 -111 -393 -149 -464 -41 -75 -116 -151 -180
-183 -53 -26 -65 -28 -182 -28 -118 0 -127 1 -166 26 -98 64 -124 180 -83 364
29 132 34 150 64 260 34 128 64 240 75 285 9 36 31 121 70 265 12 44 35 132
51 195 17 63 37 140 46 170 23 85 26 107 15 113 -5 4 -49 2 -98 -3 -49 -5
-179 -17 -289 -25 -327 -26 -388 -34 -401 -47 -7 -7 -29 -74 -48 -148 -19 -74
-44 -171 -57 -215 -12 -44 -25 -96 -30 -115 -4 -19 -15 -60 -23 -90 -59 -222
-114 -434 -157 -600 -42 -168 -62 -369 -48 -495 20 -186 76 -318 183 -433 130
-138 287 -205 548 -232 169 -18 403 4 613 56 417 105 692 350 862 769 50 123
94 261 124 385 8 34 23 91 55 210 8 30 19 71 23 90 5 19 20 78 34 130 45 166
94 349 142 535 12 50 37 143 55 209 17 65 29 124 26 132 -6 15 -15 15 -171 3z"/>
<path d="M2815 4454 c-77 -7 -205 -18 -285 -24 -80 -7 -190 -16 -245 -21 -55
-5 -165 -14 -245 -19 -80 -5 -155 -12 -166 -15 -25 -5 -35 -29 -63 -140 -11
-44 -27 -107 -36 -140 -9 -33 -30 -112 -46 -175 -17 -63 -44 -167 -61 -230
-16 -63 -34 -131 -38 -150 -5 -19 -16 -60 -24 -90 -8 -30 -28 -107 -45 -170
-16 -63 -37 -142 -46 -175 -9 -33 -32 -121 -51 -195 -20 -74 -49 -187 -66
-250 -16 -63 -41 -158 -55 -210 -13 -52 -31 -120 -39 -150 -8 -30 -19 -71 -23
-90 -5 -19 -18 -70 -30 -112 -35 -128 -40 -122 92 -114 61 4 159 11 217 16 58
5 191 16 295 25 105 8 242 20 305 26 63 6 167 15 230 19 442 32 717 112 932
271 249 185 348 543 213 774 -45 78 -151 163 -237 189 -30 9 -20 25 30 48 156
72 305 212 371 350 40 85 61 177 61 274 0 385 -304 538 -945 478z m147 -632
c87 -50 39 -201 -80 -253 -69 -30 -234 -52 -467 -63 -33 -1 -33 0 -17 74 27
120 55 216 66 227 10 11 168 30 301 36 91 4 167 -4 197 -21z m-212 -817 c41
-21 60 -53 60 -102 0 -54 -11 -81 -49 -121 -65 -67 -164 -93 -434 -112 -76 -5
-142 -12 -148 -15 -17 -11 -20 21 -5 76 48 183 68 254 72 258 2 2 50 8 106 13
57 5 108 10 113 13 6 2 65 4 133 4 91 1 131 -3 152 -14z"/>
<path d="M9351 2049 c-69 -4 -135 -10 -149 -14 -13 -3 -79 -10 -146 -15 -66
-5 -195 -16 -286 -25 -91 -8 -217 -20 -280 -25 -63 -5 -155 -14 -205 -20 -49
-5 -171 -17 -270 -25 -99 -9 -220 -20 -270 -25 -49 -5 -121 -12 -160 -15 -38
-3 -113 -10 -165 -15 -52 -5 -171 -16 -265 -25 -93 -8 -242 -22 -330 -30 -88
-9 -209 -20 -270 -25 -60 -6 -157 -15 -215 -20 -58 -6 -161 -15 -230 -20 -69
-6 -136 -12 -150 -15 -14 -3 -81 -10 -150 -15 -69 -6 -197 -17 -285 -25 -88
-8 -214 -19 -280 -25 -245 -20 -256 -30 -104 -93 47 -20 121 -52 163 -71 43
-20 79 -36 81 -36 2 0 43 -18 90 -40 47 -22 88 -40 90 -40 2 0 39 -16 82 -36
43 -19 96 -44 118 -54 22 -10 70 -32 108 -49 37 -17 70 -31 73 -31 3 0 43 -18
90 -40 47 -22 87 -40 89 -40 2 0 43 -18 90 -40 47 -22 88 -40 90 -40 2 0 43
-18 90 -40 47 -22 88 -40 90 -40 2 0 36 -15 77 -34 292 -135 455 -176 703
-176 270 0 490 58 711 188 38 22 231 154 429 292 198 139 414 291 480 337 66
46 190 133 275 193 85 60 199 139 253 176 53 37 97 73 97 79 0 10 -27 29 -33
24 -1 -1 -58 -5 -126 -10z"/>
</g>
</svg>
